<?xml version="1.0" standalone="no"?>
<!DOCTYPE svg PUBLIC "-//W3C//DTD SVG 1.1//EN" "http://www.w3.org/Graphics/SVG/1.1/DTD/svg11.dtd" >
<svg xmlns="http://www.w3.org/2000/svg">
<metadata>
This is a custom SVG webfont generated by Fontspring.
</metadata>
<defs>
<font id="EuphorigenicRegular" horiz-adv-x="788" >
<font-face units-per-em="2048" ascent="1573" descent="-475" />
<missing-glyph horiz-adv-x="497" />
<glyph unicode=" "  horiz-adv-x="497" />
<glyph unicode="&#x09;" horiz-adv-x="497" />
<glyph unicode="&#xa0;" horiz-adv-x="497" />
<glyph unicode="!" horiz-adv-x="450" d="M82 1372q0 61 42 102.5t103 41.5q66 0 104 -39t38 -103q0 -12 -4 -41q-8 -45 -32 -183t-34 -203.5t-21.5 -159t-13.5 -150.5q-4 -119 -4 -199h-61q0 186 -12.5 299t-49.5 330q-55 303 -55 305zM100 139q0 68 37 112t96 44q61 0 98.5 -44t37.5 -112q0 -70 -37 -112.5 t-99 -42.5q-59 0 -96 42.5t-37 112.5z" />
<glyph unicode="&#x22;" horiz-adv-x="798" d="M86 1452q0 68 39 106.5t96.5 38.5t97 -38.5t39.5 -106.5q0 -37 -42 -133t-44 -182h-102q-2 86 -43 182t-41 133zM438 1452q0 68 39 106.5t96.5 38.5t97.5 -38.5t40 -106.5q0 -37 -42 -133t-44 -182h-103q-2 86 -43 182t-41 133z" />
<glyph unicode="#" horiz-adv-x="1046" d="M47 442v109h219l66 416h-207v108h225l68 434h106l-69 -434h243l70 434h104l-69 -434h194v-108h-213l-67 -416h201v-109h-220l-69 -442h-105l70 442h-240l-71 -442h-105l72 442h-203zM371 551h243l66 416h-244z" />
<glyph unicode="$" horiz-adv-x="780" d="M29 485l75 23q55 -188 250 -189v340q-160 68 -226.5 129.5t-66.5 182.5q0 111 78 186.5t213 89.5q0 66 -12 262h104q-12 -86 -12 -266q68 -12 143 -72v97h93v-297h-93q0 150 -145 180v-303q33 -14 87 -32.5t77 -29.5q147 -70 147 -243q0 -131 -81.5 -214t-227.5 -102 q2 -57 4 -111.5t3 -82t1 -33.5h-96v221q-119 0 -199.5 70.5t-115.5 193.5zM268 1018q0 -80 84 -131v254q-84 -29 -84 -123zM430 618q0 -184 2 -274q72 41 72 141q0 84 -74 133z" />
<glyph unicode="%" horiz-adv-x="1382" d="M53 1100v65q0 18 2 65.5t6.5 70l12.5 62.5t20.5 60.5t31.5 49t45 42t60.5 23.5t75.5 10q59 0 103.5 -17.5t70 -55t42 -74.5t22.5 -97.5t8 -99.5t2 -104q0 -233 -58.5 -321.5t-193.5 -88.5q-131 0 -190.5 93.5t-59.5 316.5zM127 0q201 283 530.5 799t421.5 710h189 q-176 -227 -506 -754.5t-447 -754.5h-188zM195 1120q2 -262 18 -299q23 -55 92 -55q63 0 88 51q25 43 25 295q0 256 -23 301q-29 63 -88 64q-72 0 -94 -64q-18 -55 -18 -293zM829 375v65q0 18 2.5 65.5t6.5 70t12 62.5t20.5 60.5t32 49t45 42t60 23.5t75.5 10 q59 0 103.5 -17.5t70 -55t42 -74.5t22.5 -97.5t8 -99.5t2 -104q0 -233 -58.5 -321.5t-193.5 -88.5q-131 0 -190.5 93.5t-59.5 316.5zM971 395q2 -262 18 -299q23 -55 92 -55q61 0 88 51q25 43 25 295q0 256 -23 301q-29 63 -88 64q-72 0 -94 -64q-18 -55 -18 -293z" />
<glyph unicode="&#x26;" horiz-adv-x="923" d="M33 422q0 297 198 459q-82 209 -81 336q0 141 65.5 228t181.5 87q109 0 170.5 -84t61.5 -186q0 -115 -38 -194t-171 -247q111 -252 256 -471t235 -272l-16 -72q-88 41 -219 172q-31 -57 -47.5 -81.5t-48 -58.5t-75.5 -46t-108 -12q-150 0 -257 124.5t-107 317.5zM244 403 q0 -143 53 -237t147 -94q57 0 109.5 41t83.5 106q-172 178 -320 469q-73 -125 -73 -285zM281 1309q0 -133 77 -334q133 109 134 287q0 74 -33 131t-86 57q-41 0 -66.5 -37.5t-25.5 -103.5z" />
<glyph unicode="'" horiz-adv-x="446" d="M86 1452q0 68 39 106.5t96.5 38.5t97 -38.5t39.5 -106.5q0 -37 -42 -133t-44 -182h-102q-2 86 -43 182t-41 133z" />
<glyph unicode="(" horiz-adv-x="675" d="M219 164v878q0 348 106.5 493.5t307.5 145.5v-104q-125 -25 -185.5 -129.5t-60.5 -339.5v-1010q0 -236 60.5 -340t185.5 -129v-104q-201 0 -307.5 145.5t-106.5 493.5z" />
<glyph unicode=")" horiz-adv-x="675" d="M43 -371q123 25 183.5 129.5t60.5 339.5v1010q0 236 -60.5 340t-183.5 129v104q199 0 306.5 -145t107.5 -494v-878q0 -348 -107.5 -493.5t-306.5 -145.5v104z" />
<glyph unicode="*" horiz-adv-x="817" d="M45 930q0 20 10.5 38.5t32 34t44 27.5t56 24.5t59 21.5t64.5 21.5t60 18.5q-96 25 -157.5 46.5t-115 57t-53.5 78.5q0 98 100 99q14 0 28.5 -6.5t30 -19.5t30 -26.5t35 -38t34.5 -43t41 -51t43 -55.5q-2 12 -21.5 69.5t-36 117t-16.5 90.5q0 98 101 98q106 0 106 -98 q0 -37 -40 -148.5t-42 -120.5q16 20 52 68.5t52.5 68t42 47t47 38t44.5 10.5q98 0 98 -99q0 -33 -27.5 -60.5t-83 -51t-98.5 -36.5t-116 -34q27 -12 96 -35.5t110 -40t78 -46t37 -64.5q0 -98 -98 -99q-27 0 -53.5 18.5t-46 41t-61.5 77t-73 89.5q10 -20 42 -118.5t32 -133.5 q0 -100 -104 -100q-100 0 -101 100q0 20 11.5 62t23.5 79t27.5 77t15.5 42q-16 -20 -43 -54t-40 -51.5t-33.5 -42t-33 -37t-29 -25.5t-30.5 -18.5t-29 -5.5q-102 1 -102 99z" />
<glyph unicode="+" horiz-adv-x="872" d="M33 680v119h342v342h119v-342h346v-119h-346v-346h-119v346h-342z" />
<glyph unicode="," horiz-adv-x="442" d="M86 150q0 59 38 102t95 43q61 0 98 -45t37 -119q0 -115 -56 -196.5t-142 -100.5l-15 43q94 41 113 123q-16 -10 -41 -10q-57 0 -92 42t-35 118z" />
<glyph unicode="-" horiz-adv-x="528" d="M37 539v168q166 -18 252 -19q100 0 200 19v-168q-104 12 -210 12q-123 0 -242 -12z" />
<glyph unicode="." horiz-adv-x="442" d="M86 139q0 68 37 112t96 44q61 0 98 -44t37 -112q0 -70 -36.5 -112.5t-98.5 -42.5q-59 0 -96 42.5t-37 112.5z" />
<glyph unicode="/" horiz-adv-x="575" d="M14 -377q98 408 226.5 1050t165.5 941h155q-268 -1159 -391 -1991h-156z" />
<glyph unicode="0" horiz-adv-x="993" d="M51 717q0 285 24.5 431t80.5 228q106 156 344 156q227 0 338 -164q55 -84 79.5 -228.5t24.5 -422.5q0 -256 -31.5 -399.5t-105.5 -223.5q-102 -115 -313 -114q-262 0 -369 221q-72 151 -72 516zM264 754q0 -297 9.5 -406.5t33.5 -159.5q51 -119 187 -118q133 0 188 104 q25 49 36 162t11 405q0 479 -39 574q-55 125 -192 125q-143 0 -197 -125q-20 -47 -28.5 -154.5t-8.5 -406.5z" />
<glyph unicode="1" horiz-adv-x="473" d="M39 0v94h33q53 0 59 62q14 82 14 604q0 348 -14 487h-92v92q72 4 130 53.5t62 116.5h97q-4 -250 -4 -749q0 -512 20 -610q8 -31 22.5 -43.5t45.5 -12.5h22v-94h-395z" />
<glyph unicode="2" horiz-adv-x="768" d="M57 2v166q0 106 15.5 187t35 134.5t65.5 105.5t82 82t105 83q176 133 177 405q0 131 -49.5 204t-137.5 73q-106 0 -121 -60q92 -35 93 -141q0 -57 -38 -100t-93.5 -43t-94.5 41t-39 96q0 135 84 217t219 82q168 0 261.5 -98.5t93.5 -286.5q0 -156 -60.5 -261.5 t-205.5 -199.5q-45 -31 -72 -51.5t-59.5 -55t-49.5 -69.5q-27 -61 -33 -109.5t-6 -207.5v-82h342q59 0 60 112h71v-223h-645z" />
<glyph unicode="3" horiz-adv-x="778" d="M51 279q0 57 38 98t93 41q57 0 95 -43t38 -103q0 -111 -92 -141q14 -61 113 -61q86 0 141 61q45 57 45 301q0 231 -37 279q-41 63 -116 63h-93v72h93q78 0 110 80q23 57 23 229q0 166 -41 236q-33 51 -119 51q-90 0 -111 -60q92 -33 93 -141q0 -57 -38 -100t-93 -43 q-57 0 -93.5 42t-36.5 105q0 127 82 207t230 80q150 0 234.5 -98.5t84.5 -272.5q0 -154 -40 -238.5t-128 -117.5q201 -90 201 -387q0 -193 -97.5 -315.5t-275.5 -122.5q-137 0 -220 82t-83 217z" />
<glyph unicode="4" d="M8 672q106 346 150 665h157q-59 -203 -127 -573h250q0 602 -16 745h291v-90h-27q-51 0 -63 -65q-16 -86 -17 -590h129v-92h-129q0 -68 -3 -183.5t-3 -160.5q0 -141 17.5 -188.5t72.5 -47.5q16 0 23 2v-94h-416v94h61q47 0 62 70q18 78 18 508h-430z" />
<glyph unicode="5" horiz-adv-x="792" d="M47 201l82 57q61 -188 225 -188q78 0 123 49q27 29 39 97.5t12 254.5q0 160 -11 227.5t-40 98.5q-47 49 -123 49q-154 0 -272 -82q20 213 20 539q0 96 -6 206h586v-243h-100q-2 84 -17.5 117.5t-54.5 33.5h-213q-16 -106 -16 -315q0 -139 4 -197q51 14 125 15 q168 0 249.5 -102.5t81.5 -371.5q0 -225 -99 -345.5t-273 -120.5q-244 0 -322 221z" />
<glyph unicode="6" horiz-adv-x="829" d="M55 532q0 369 162 653.5t401 346.5l29 -74q-377 -154 -391 -702q74 113 213 112q135 0 220 -116.5t85 -321.5q0 -201 -97 -325.5t-249 -124.5q-174 0 -273.5 154t-99.5 398zM252 596q0 -240 46 -383t130 -143q55 0 96 67q45 80 45 303q0 195 -45 281q-39 57 -108 57 q-90 0 -164 -116v-66z" />
<glyph unicode="7" horiz-adv-x="679" d="M16 1229v280h668q-63 -127 -166 -376q-186 -449 -186 -992q0 -162 -107 -161q-117 0 -116 139q0 180 86 442q78 231 325 789h-356q-57 0 -58 -121h-90z" />
<glyph unicode="8" horiz-adv-x="804" d="M43 455q0 266 176 381q-74 49 -102.5 128.5t-28.5 213.5q0 176 82 265t233 89q150 0 231 -89t81 -265q0 -135 -28 -214t-103 -128q178 -121 178 -381q0 -475 -359 -475q-195 0 -277.5 112.5t-82.5 362.5zM254 424q0 -246 43 -301q39 -55 106 -55q55 0 95 45q49 57 49 311 q0 264 -39 321q-39 55 -107 56q-70 0 -104 -51q-43 -50 -43 -326zM285 1182q0 -215 30 -267q31 -47 91 -47q51 0 81.5 43t30.5 271q0 186 -41 233q-27 31 -74 31q-53 0 -81 -41q-37 -51 -37 -223z" />
<glyph unicode="9" horiz-adv-x="808" d="M49 1069q0 201 98.5 332t245.5 131q176 0 274.5 -152.5t98.5 -396.5q0 -377 -131 -644t-365 -353l-28 71q168 104 242.5 248t82.5 432q-66 -106 -213 -106q-135 0 -220 116.5t-85 321.5zM254 1059q0 -207 45 -279q33 -57 109 -57q96 0 163 106v74q0 242 -46 389.5 t-132 147.5q-61 0 -94 -60q-45 -75 -45 -321z" />
<glyph unicode=":" horiz-adv-x="495" d="M113 139q0 68 36.5 112t98.5 44q59 0 96 -44t37 -112q0 -70 -37 -112.5t-96 -42.5q-61 0 -98 42.5t-37 112.5zM113 713q0 70 36.5 112.5t98.5 42.5q59 0 96 -43t37 -112q0 -68 -37 -112t-96 -44q-61 0 -98 44t-37 112z" />
<glyph unicode=";" horiz-adv-x="495" d="M113 713q0 70 36.5 112.5t98.5 42.5q59 0 96 -43t37 -112q0 -68 -37 -112t-96 -44q-61 0 -98 44t-37 112zM113 150q0 59 37.5 102t97 43t96.5 -45t37 -119q0 -115 -56.5 -196.5t-142.5 -100.5l-14 43q94 41 113 123q-16 -10 -39 -10q-59 0 -94 41t-35 119z" />
<glyph unicode="&#x3c;" horiz-adv-x="860" d="M33 680v119l807 288v-124l-650 -224l650 -223v-127z" />
<glyph unicode="=" horiz-adv-x="872" d="M33 403v119h807v-119h-807zM33 956v119h807v-119h-807z" />
<glyph unicode="&#x3e;" horiz-adv-x="860" d="M33 389v127l649 223l-649 224v124l807 -288v-119z" />
<glyph unicode="?" horiz-adv-x="716" d="M33 1247q0 127 84 207t217 80q352 0 352 -358q0 -100 -44 -183.5t-107.5 -137.5t-127 -100t-107.5 -97.5t-44 -102.5q0 -53 31.5 -85t79.5 -36v-47q-78 0 -132.5 53.5t-54.5 130.5q0 86 51 154q25 31 93.5 92.5t101.5 106.5q72 98 72 247q0 272 -181 273q-104 0 -112 -62 q94 -35 94 -141q0 -57 -39 -100t-96 -43q-55 0 -93 43t-38 106zM174 139q0 68 37 112t98 44q59 0 96 -44t37 -112q0 -70 -36.5 -112.5t-96.5 -42.5q-61 0 -98 42.5t-37 112.5z" />
<glyph unicode="@" horiz-adv-x="1378" d="M53 469q0 389 188.5 605t463.5 216q625 0 624 -667q0 -104 -24.5 -200.5t-95 -174.5t-177.5 -78q-109 0 -164 109q-49 -109 -188 -109q-106 0 -170 73.5t-64 235.5q0 135 56.5 217t169.5 82q92 0 149 -45l15 41h108v-418q0 -57 25.5 -87.5t70.5 -30.5q141 0 142 378 q0 276 -106.5 423t-366.5 147q-223 0 -363.5 -187.5t-140.5 -525.5q0 -590 471 -715l-8 -94q-307 61 -461 271t-154 534zM621 473q0 -203 110 -203q49 0 88 62v276q-31 66 -92 66q-57 0 -81.5 -43t-24.5 -158z" />
<glyph unicode="A" horiz-adv-x="1040" d="M31 -283h24q51 0 66 60q29 94 141.5 735t165.5 997h201q88 -735 252 -1507q51 -248 67 -268q14 -16 47 -17h21v-94h-432v94h24q74 0 74 37q0 70 -29 242h-397l-33 -205q-2 -16 -2 -39q0 -35 70 -35h26v-94h-286v94zM270 88h371l-166 1100q-14 -68 -103.5 -547 t-101.5 -553z" />
<glyph unicode="B" horiz-adv-x="1062" d="M39 -283h20q43 0 58 39q27 78 28 619v211q0 729 -22 803q-8 29 -64 28h-20v92h473q172 0 261 -110.5t89 -325.5q0 -213 -135 -330q131 -25 211 -120q59 -72 80.5 -161t21.5 -286q0 -252 -115.5 -402.5t-310.5 -150.5h-575v94zM326 674q4 -162 4 -477v-318q0 -94 13 -128 t65 -34h143q150 0 219 109q57 86 57 377q0 174 -17 251.5t-60 131.5q-72 88 -199 88h-225zM326 764h141q84 0 133 70q51 63 51 233q0 197 -47 268q-53 82 -153 82h-41q-39 0 -54.5 -43t-21.5 -172q-8 -188 -8 -438z" />
<glyph unicode="C" horiz-adv-x="915" d="M51 539q0 395 18.5 541.5t82.5 248.5q127 203 387 203q154 0 250 -80t96 -197q0 -61 -39 -109t-96 -48q-115 0 -115 137q0 63 15.5 94t64.5 51q-51 59 -170 60q-127 0 -201 -92q-43 -53 -60.5 -195.5t-17.5 -552.5q0 -463 13.5 -606.5t46.5 -190.5q43 -61 92 -85.5 t127 -24.5q190 0 241 170l66 -27q-37 -127 -116 -182t-208 -55q-229 0 -360 163q-68 86 -92.5 236t-24.5 541z" />
<glyph unicode="D" horiz-adv-x="1089" d="M39 -283h20q41 0 56 39q29 78 30 629v229q0 670 -22 775q-4 29 -62 28h-22v92h618q168 0 269 -149q61 -94 87.5 -264t26.5 -518q0 -350 -29.5 -525.5t-90.5 -269.5q-106 -160 -306 -160h-575v94zM326 682q0 -711 8 -825q6 -82 23.5 -111t66.5 -29h127q133 0 201 109 q39 61 57 204.5t18 508.5q0 360 -15 509.5t-48 221.5q-66 147 -211 147h-141q-61 0 -70 -63q-16 -144 -16 -672z" />
<glyph unicode="E" horiz-adv-x="1001" d="M39 -283h27q39 0 55 14.5t18 61.5q6 125 6 496q0 895 -10 1050q-4 43 -18.5 60.5t-44.5 17.5h-33v92h676v-213h-86q0 121 -58 121h-145q-49 0 -63.5 -10t-20.5 -53q-12 -127 -14 -590h143q70 0 70 121h88v-336h-88q0 125 -70 125h-145v-191q0 -573 16 -696q8 -43 84 -43 h418q57 0 57 113h86v-234h-948v94z" />
<glyph unicode="F" horiz-adv-x="729" d="M39 -283h31q53 0 61 82q14 100 14 826q0 332 -2 490.5t-6 196.5t-12 60q-10 27 -22.5 36t-43.5 9h-20v92h676v-213h-86q0 121 -58 121h-145q-49 0 -63.5 -10t-20.5 -53q-10 -123 -14 -633h143q70 0 70 119h88v-332h-88q0 121 -70 121h-145v-189q0 -504 16 -661 q6 -37 23.5 -49.5t64.5 -12.5h39v-94h-430v94z" />
<glyph unicode="G" horiz-adv-x="1030" d="M51 516q0 408 29 586t96 270q121 160 334 160q174 0 269 -79t95 -198q0 -158 -124 -157q-61 0 -92 41t-31 100q0 111 80 141q-51 59 -170 60q-141 0 -215 -113q-35 -55 -49.5 -203.5t-14.5 -607.5q0 -391 8 -515t33 -173q61 -135 190 -135q98 0 160 136t62 335 q0 219 -18.5 284.5t-86.5 65.5v90h398v-90h-60q-6 0 -15 -21.5t-22.5 -153.5t-13.5 -359q0 -266 84 -267q20 0 27 2v-92q-16 -8 -64 -8q-92 0 -137 37t-80 123q-18 -78 -91 -127t-177 -49q-201 0 -310 182q-51 84 -72.5 235.5t-21.5 499.5z" />
<glyph unicode="H" horiz-adv-x="1062" d="M39 -283h33q27 0 38 7.5t17 29.5q14 45 14 920q0 664 -14 704q-10 39 -55 39h-33v92h399v-92h-43q-41 0 -55 -39q-12 -39 -12 -614h407q0 565 -12 614q-14 39 -55 39h-43v92h399v-92h-33q-45 0 -55 -39q-14 -41 -14 -704q0 -874 14 -920q6 -23 17.5 -30t37.5 -7h33v-94 h-399v94h43q43 0 55 37q12 49 12 920h-407q0 -870 12 -920q12 -37 55 -37h43v-94h-399v94z" />
<glyph unicode="I" horiz-adv-x="468" d="M39 -283h33q27 0 38 7.5t17 29.5q14 45 14 920q0 664 -14 704q-10 39 -55 39h-33v92h391v-92h-35q-41 0 -55 -39q-12 -41 -12 -704q0 -870 12 -920q12 -37 55 -37h35v-94h-391v94z" />
<glyph unicode="J" horiz-adv-x="714" d="M10 -104q0 57 38 100t93.5 43t94 -45t38.5 -105q0 -117 -94 -139q6 -20 29 -37q29 -23 86 -22q94 0 139 92q20 39 27.5 183.5t7.5 649.5q0 621 -18 736q-4 41 -18.5 53t-51.5 12h-27v92h324q-37 -205 -37 -1470q0 -205 -88 -322.5t-242 -117.5q-135 0 -218 82t-83 215z " />
<glyph unicode="K" horiz-adv-x="1230" d="M39 -283h33q27 0 38 7.5t17 29.5q14 45 14 920q0 664 -14 704q-10 39 -55 39h-33v92h391v-92h-35q-41 0 -55 -39q-12 -39 -12 -663q104 2 157 190q8 31 49 220.5t84 263.5q68 121 195 120h133v-92h-88q-84 0 -121 -147q-8 -33 -38.5 -168t-57.5 -205q-57 -154 -160 -197 q113 -25 190 -94t136 -219q18 -47 88 -261t123 -316q29 -51 58.5 -72t74.5 -21h74v-94h-135q-121 0 -185.5 52.5t-126.5 203.5q-31 74 -85 241t-89 245q-68 154 -127 217t-149 73q0 -852 12 -901q12 -37 55 -37h35v-94h-391v94z" />
<glyph unicode="L" horiz-adv-x="1011" d="M39 1417v92h424v-92h-55q-53 0 -66 -63q-16 -115 -16 -672q0 -473 8 -784q2 -82 18.5 -118t57.5 -36h432q57 0 57 113h88v-234h-948v94h31q43 0 52 29t15 152q6 139 6 833q0 481 -14 623q-2 37 -16.5 50t-44.5 13h-29z" />
<glyph unicode="M" horiz-adv-x="1210" d="M39 1417v92h321q23 -209 97.5 -689t146.5 -859q141 565 297 1548h268v-92h-18q-49 0 -70 -55q-16 -61 -21 -177t-5 -503q0 -756 18 -905q4 -39 20.5 -49.5t53.5 -10.5h22v-94h-389v94h19q41 0 56 11.5t17 48.5q16 377 17 946q0 143 -2 221q-154 -772 -246 -1321h-164 q-23 145 -115 637t-131 682q-4 -168 -4 -262q0 -131 6.5 -482.5t12.5 -422.5q2 -37 17.5 -47.5t53.5 -10.5h25v-94h-303v96h18q57 0 68 19q10 23 14 94q10 317 11 889q0 590 -27 655q-18 41 -68 41h-16z" />
<glyph unicode="N" horiz-adv-x="1003" d="M39 -283h20q33 0 52 29q23 33 27.5 164t4.5 723q0 702 -20 756q-12 29 -45 28h-39v92h311q197 -739 436 -1437q8 317 9 651q0 629 -27 672q-10 23 -37 22h-43v92h305v-92h-18q-47 0 -64 -22q-18 -25 -22 -134.5t-4 -570.5q0 -858 16 -1067h-213q-70 287 -218 810 t-232 738q-4 -106 -5 -882q0 -340 4.5 -422t20.5 -117q14 -33 64 -33h20v-94h-303v94z" />
<glyph unicode="O" horiz-adv-x="1083" d="M51 530q0 422 35 606.5t121 272.5q117 123 328 123q223 0 350 -131q84 -88 115.5 -269.5t31.5 -603.5q0 -397 -30.5 -561t-106.5 -241q-123 -127 -334 -127q-242 0 -366 125q-80 78 -112 240.5t-32 565.5zM264 530q0 -420 14.5 -554t51.5 -181q80 -102 213 -102 q154 0 225 129q29 45 39 172t10 534q0 451 -15.5 600.5t-51.5 204.5q-74 106 -207 107q-137 0 -211 -109q-37 -55 -52.5 -203.5t-15.5 -597.5z" />
<glyph unicode="P" horiz-adv-x="884" d="M39 -283h20q43 0 62 31q16 27 19 97.5t3 351.5q0 180 1 420.5t1 308.5q0 125 -1 201.5t-6 136t-11 87t-20.5 44t-27.5 19.5t-40 3v92h473q176 0 262 -102q88 -106 88 -334q0 -119 -18.5 -187.5t-63.5 -125.5q-94 -115 -284 -115h-170q0 -389 5 -580.5t11 -236.5t20 -72 q20 -39 72 -39h43v-94h-438v94zM326 739h125q115 0 159 80q39 63 39 228q0 242 -49 305q-45 66 -149 65h-37q-41 0 -62 -47q-16 -35 -21 -141.5t-5 -489.5z" />
<glyph unicode="Q" horiz-adv-x="1095" d="M49 756q0 248 25.5 385t89.5 223q125 168 379 168q250 0 372 -172q63 -88 89 -226.5t26 -385.5q0 -305 -34.5 -447.5t-108.5 -212.5q-57 -55 -139 -80q27 -162 70.5 -226.5t117.5 -64.5h84v-94h-152q-104 0 -172 68q-39 39 -63.5 100.5t-54.5 188.5h-35q-229 0 -350 120 q-78 76 -111 218.5t-33 437.5zM264 752q0 -207 4 -279h146q109 0 182 -59q49 -41 74.5 -94.5t56.5 -188.5q43 37 61 105q29 129 29 501q0 315 -19.5 438t-64.5 177q-76 88 -190 88q-133 0 -207 -101q-39 -53 -55.5 -169.5t-16.5 -417.5zM270 393q12 -162 60 -223 q80 -102 213 -102h10q-4 23 -11 56.5t-10.5 47.5t-8.5 37.5t-8 34t-7 26t-7 22.5t-7.5 17t-8.5 17.5t-10 15.5q-23 31 -45 41t-70 10h-90z" />
<glyph unicode="R" horiz-adv-x="1230" d="M39 -283h18q39 0 53.5 11.5t18.5 48.5q14 111 14 946q0 424 -5 529.5t-25 142.5q-10 23 -50 22h-24v92h473q172 0 256 -102q51 -59 72.5 -128t21.5 -206q0 -225 -112 -325q-76 -66 -201 -72q41 -8 104 -55q80 -59 154 -234q18 -47 88 -261t123 -316q29 -51 58.5 -72 t74.5 -21h74v-94h-135q-121 0 -185.5 52.5t-126.5 203.5q-31 74 -85 241t-89 245q-96 211 -174 256q-53 29 -104 34q0 -776 16 -878q8 -39 21.5 -49.5t48.5 -10.5h20v-94h-393v94zM326 764h125q106 0 159 80q41 61 41 235q0 123 -9 174.5t-34 87.5q-51 76 -157 76h-41 q-37 0 -56 -47q-20 -51 -24 -146t-4 -460z" />
<glyph unicode="S" horiz-adv-x="761" d="M31 -164l65 27q20 -76 78.5 -124t132.5 -48q109 0 164 73.5t55 192.5q0 45 -4 85t-20.5 86t-24.5 71.5t-39 81.5l-41 73q-10 18 -55 91t-57 92q-111 184 -158 319q-55 158 -55 285q0 170 84 280.5t241 110.5q133 0 187 -74v94h96v-282h-96q0 76 -45 125t-125 49 q-88 0 -125 -76q-23 -47 -23 -162q0 -129 42 -239.5t171 -341.5q29 -53 61.5 -110.5t49 -85.5t35 -63.5t34.5 -70.5q66 -143 66 -287q0 -199 -103.5 -304t-281.5 -105q-246 -1 -309 237z" />
<glyph unicode="T" horiz-adv-x="880" d="M18 1268v241h840v-241h-90q0 74 -18.5 102.5t-73.5 28.5h-84q-27 0 -38 -7.5t-17 -29.5q-12 -41 -13 -688q0 -870 13 -920q6 -23 17 -30t38 -7h55v-94h-434v94h55q27 0 38 7.5t18 29.5q12 49 12 920q0 647 -12 688q-6 23 -17.5 30t-38.5 7h-106q-57 0 -58 -131h-86z" />
<glyph unicode="U" horiz-adv-x="1079" d="M31 1417v92h409v-92h-26q-43 0 -60 -43q-16 -41 -20 -113.5t-4 -330.5q0 -12 -2 -241.5t-2 -424.5q0 -223 10 -303t37 -141q57 -127 211 -127q133 0 182 74q57 82 75.5 197.5t18.5 400.5q0 518 -12 899q-2 100 -21 127q-23 27 -59 26h-23v92h306v-92h-27q-29 0 -47 -26 q-16 -29 -21.5 -75t-5.5 -186q0 -61 4 -409t4 -526q0 -350 -96 -480q-84 -117 -299 -116q-242 0 -350 145q-51 70 -71.5 156t-20.5 247q0 123 4 402.5t4 451.5q0 317 -10 369q-6 29 -18.5 38t-45.5 9h-24z" />
<glyph unicode="V" horiz-adv-x="1026" d="M31 1417v92h432v-92h-27q-72 0 -71 -39q0 -94 38 -331q129 -858 168 -1102q12 55 101.5 535.5t103.5 566.5q47 293 47 333q0 37 -69 37h-25v92h287v-92h-25q-49 0 -67 -61q-27 -96 -140.5 -740.5t-165.5 -992.5h-200q-88 735 -252 1507q-53 252 -68 269q-12 18 -47 18 h-20z" />
<glyph unicode="W" horiz-adv-x="1546" d="M31 1417v92h430v-92h-27q-74 0 -74 -44q0 -54 33 -326q133 -1008 148 -1102q68 276 221 1097h147q162 -946 191 -1097q12 72 92 551t90 551q45 295 45 333q0 37 -72 37h-26v92h287v-92h-25q-49 0 -64 -61q-25 -94 -123 -725t-149 -1008h-188q-61 442 -185 1067 q-135 -686 -198 -1067h-201q-41 393 -149.5 1062t-137.5 714q-12 18 -47 18h-18z" />
<glyph unicode="X" horiz-adv-x="1089" d="M31 -283h16q29 0 42 11.5t32 48.5q8 14 63.5 145t134 327.5t127.5 330.5q-270 676 -315 774q-27 63 -74 63h-22v92h432v-92h-37q-59 0 -59 -39q0 -90 209 -639q203 532 202 639q0 39 -51 39h-43v92h336v-92h-31q-33 0 -46 -11t-34 -52q-63 -137 -288 -721 q203 -547 346 -856q18 -41 30.5 -50.5t38.5 -9.5h31v-94h-434v94h39q55 0 55 37q0 74 -239 705q-238 -625 -238 -705q0 -20 9 -28.5t34 -8.5h39v-94h-305v94z" />
<glyph unicode="Y" horiz-adv-x="1058" d="M14 1417v92h426v-92h-37q-59 0 -59 -39q0 -10 8 -38.5t33 -93t47.5 -125t69.5 -185.5t84 -223q231 616 231 665q0 39 -43 39h-47v92h317v-92h-16q-27 0 -41 -13t-37 -61q-66 -133 -329 -788q0 -223 -1.5 -449.5t-1.5 -261.5q0 -80 17.5 -103.5t69.5 -23.5h36v-94h-440v94 h55q31 0 46.5 27t21.5 111q8 109 14 690q-98 285 -332 809q-14 37 -29.5 50t-41.5 13h-21z" />
<glyph unicode="Z" d="M29 -285q47 147 230 852t206 840h-240q-57 0 -57 -109h-84v211h627v-92q-49 -154 -230.5 -845t-212.5 -828h367q57 0 57 113h86v-234h-749v92z" />
<glyph unicode="[" horiz-adv-x="675" d="M217 -475v2156h416v-149h-246v-1858h246v-149h-416z" />
<glyph unicode="\" horiz-adv-x="575" d="M14 1614h156q37 -299 165 -941t226 -1050h-155q-124 832 -392 1991z" />
<glyph unicode="]" horiz-adv-x="675" d="M43 -326h244v1858h-244v149h416v-2156h-416v149z" />
<glyph unicode="^" d="M45 702l289 807h121l288 -807h-125l-225 650l-223 -650h-125z" />
<glyph unicode="_" horiz-adv-x="706" d="M-12 -39q246 -16 413 -16q150 0 330 16v-145q-182 12 -348 12q-199 0 -395 -12v145z" />
<glyph unicode="`" horiz-adv-x="475" d="M25 1460h235l189 -321h-185z" />
<glyph unicode="a" horiz-adv-x="876" d="M20 219q0 76 29 125t101 92q35 23 122.5 66t133.5 69q96 59 112 80q0 172 -33 217q-33 49 -114 50q-49 0 -83 -18.5t-40 -47.5q90 -33 90 -139q0 -57 -37 -99.5t-92 -42.5q-59 0 -96 39t-37 113q0 127 93 205t226 78q164 0 234 -82q47 -55 62.5 -152.5t15.5 -325.5 q0 -256 10 -307q10 -45 39 -45q35 0 35 56v67h81v-76q0 -70 -42 -113.5t-115 -43.5q-98 0 -160 123q-90 -127 -242 -127q-143 0 -218 62t-75 177zM221 229q0 -61 42 -99t106 -38q115 0 157 125q0 158 -4 358q-20 -31 -50 -55t-77 -56t-61 -42q-59 -45 -86 -84t-27 -109z" />
<glyph unicode="b" horiz-adv-x="811" d="M-25 1483v94h306q0 -31 -17 -664q63 92 191 93q135 0 209 -86q57 -63 80.5 -144.5t23.5 -273.5q0 -207 -27.5 -301.5t-93.5 -153.5q-74 -68 -213 -67q-74 0 -139.5 38.5t-101.5 104.5q-37 -102 -54 -129l-88 29q20 164 25.5 276.5t5.5 466.5q0 63 -4 263t-4 298 q0 82 -19 119t-80 37zM281 250q0 -72 38.5 -126t100.5 -54q63 0 104 51q18 27 24.5 95.5t6.5 285.5q0 203 -8 272.5t-31 95.5q-37 43 -96 43q-63 0 -101 -51t-38 -121v-491z" />
<glyph unicode="c" horiz-adv-x="737" d="M43 483q0 299 123 426q92 96 227 97q152 0 227.5 -75t75.5 -198q0 -68 -37.5 -116t-93.5 -48q-57 0 -96 42t-39 102q0 55 26.5 95t71.5 50q-23 70 -135 70q-53 0 -94 -54q-27 -29 -36 -102.5t-9 -292.5q0 -186 8 -253.5t29 -94.5q49 -53 133 -53q82 0 144.5 50t78.5 120 l55 -15q-78 -254 -309 -253q-141 0 -237 112q-113 129 -113 391z" />
<glyph unicode="d" horiz-adv-x="833" d="M43 477q0 272 92 400.5t225 128.5q131 0 183 -93q0 449 -17 512q-10 37 -24.5 49.5t-42.5 12.5h-33v90h307q-4 -145 -4 -872q0 -440 10 -549q2 -39 15.5 -50.5t52.5 -11.5h24v-94h-38q-80 0 -123 20.5t-68 77.5q-41 -51 -98.5 -84.5t-114.5 -33.5q-152 0 -249 129.5 t-97 367.5zM254 477q0 -197 7 -263.5t28 -94.5q39 -49 100 -49q63 0 101 53t38 127v491q0 70 -37.5 121t-101.5 51q-53 0 -90 -47q-25 -29 -35 -101.5t-10 -287.5z" />
<glyph unicode="e" horiz-adv-x="735" d="M43 485q0 270 113 404q100 117 237 117q143 0 223 -74t80 -215q0 -63 -31.5 -98t-132.5 -80l-278 -123q0 -242 47 -299q41 -47 92 -47q96 0 164 51t90 125l55 -13q-78 -254 -309 -253q-172 0 -274 170q-76 122 -76 335zM254 526l240 99q53 20 53 104q0 96 -34 140 t-120 44q-57 0 -102 -55q-20 -25 -28.5 -88.5t-8.5 -243.5z" />
<glyph unicode="f" horiz-adv-x="651" d="M18 891v92h123v180q0 246 73 341t210 95q100 0 175 -72.5t75 -223.5q0 -59 -35 -99.5t-90 -40.5t-92 43t-37 103q0 109 96 143q-6 59 -80 59q-68 0 -94.5 -74.5t-26.5 -277.5v-176h158v-92h-160v-176q0 -463 19 -559q8 -39 24.5 -50.5t65.5 -11.5h29v-94h-422v94h30 q23 0 34 10.5t20 38.5q18 55 23 152.5t5 425.5v170h-123z" />
<glyph unicode="g" horiz-adv-x="841" d="M-6 -143q0 129 68.5 205.5t179.5 76.5q72 0 150.5 -27.5t105.5 -62.5q-10 76 -82 133q-33 29 -101 45q-94 25 -149 80q-111 109 -111 336q0 168 92.5 265.5t253.5 97.5q133 0 203 -82q20 133 54 196.5t108 63.5q111 0 111 -113q0 -117 -109 -117q-47 0 -70.5 -16 t-44.5 -68q43 -41 67.5 -107.5t24.5 -127.5q0 -360 -266 -397q49 -55 76 -123t55 -187q-96 82 -243 82q-164 0 -164 -180q0 -104 68.5 -159.5t179.5 -55.5q115 0 186.5 56.5t91.5 158.5l55 -18q-23 -129 -116 -208t-226 -79q-201 0 -324.5 91t-123.5 241zM262 621 q0 -221 45 -271q35 -45 94 -45q57 0 97 51q41 47 41 265q0 207 -41 253q-37 49 -96.5 49.5t-96.5 -49.5q-43 -48 -43 -253z" />
<glyph unicode="h" horiz-adv-x="937" d="M39 0v94h31q57 0 59 64q14 291 14 731q0 276 -14 532q-4 41 -22.5 51.5t-67.5 10.5v94h303q0 -233 -8 -651q55 80 178 80q129 0 215 -76q100 -88 100 -225v-277q0 -164 9.5 -233.5t27 -85t60.5 -15.5v-94h-396v94h29q49 0 59.5 33t10.5 197v405q0 68 -39 115 q-43 53 -107 53q-68 0 -108.5 -51t-40.5 -121v-420q0 -127 17.5 -169t82.5 -42v-94h-393z" />
<glyph unicode="i" horiz-adv-x="471" d="M39 891v92h305q-12 -123 -12 -512q0 -215 5 -267t30 -85q20 -25 49 -25h16v-94h-393v94h31q37 0 51 43q16 41 20 120t4 405q0 170 -39 202q-27 27 -55 27h-12zM96 1370.5q0 65.5 37 107.5t94 42q59 0 96 -42t37 -107.5t-36.5 -105.5t-96.5 -40q-57 0 -94 40t-37 105.5z " />
<glyph unicode="j" horiz-adv-x="436" d="M-274 -205q0 68 35.5 107t93 39t95.5 -38t38 -98q0 -100 -92 -127q14 -59 106 -59q84 0 121 72q43 82 51 215t8 655q0 203 -17.5 266.5t-72.5 63.5h-20v92h305q-20 -264 -21 -747v-261q0 -211 -88 -330.5t-243 -119.5q-135 0 -217 71.5t-82 198.5zM127 1370.5 q0 65.5 37 107.5t96 42q57 0 94 -42t37 -107.5t-37 -105.5t-94 -40q-59 0 -96 40t-37 105.5z" />
<glyph unicode="k" horiz-adv-x="851" d="M39 0v94h47q18 0 26.5 11.5t16.5 46.5q12 57 16.5 198.5t4.5 732.5q0 211 -5.5 270.5t-29.5 96.5q-23 37 -62 37h-14v90h305q-18 -309 -18 -821q0 -168 2 -254q147 152 239 297q27 41 27 57q0 35 -82 35v92h305v-92h-22q-35 0 -93 -55q-23 -25 -120 -149t-140 -187 q53 -12 97 -72q27 -35 80 -128t81 -124q76 -82 134 -82h14v-94h-94q-102 0 -167 53.5t-141 218.5q-55 129 -116 179q0 -201 14 -295q8 -39 23.5 -50.5t66.5 -11.5v-94h-395z" />
<glyph unicode="l" horiz-adv-x="473" d="M39 1487v90h303q0 -39 -3 -132t-5 -231.5t-2 -341.5q0 -651 10 -716q6 -35 18.5 -48.5t42.5 -13.5h31v-94h-395v94h33q31 0 43 41q18 55 24 189.5t6 558.5q0 473 -14 538q-8 41 -19.5 53.5t-48.5 12.5h-24z" />
<glyph unicode="m" horiz-adv-x="1359" d="M31 0v94h30q41 0 55.5 41t14.5 451q0 174 -2 218t-14 56q-31 31 -64 31h-20v92h55q76 0 107.5 -20.5t64.5 -75.5q47 63 95 91t141 28q139 0 208 -121q82 121 244 121q158 0 232.5 -93.5t74.5 -212.5q0 -541 15 -583q8 -23 53 -23h22v-94h-378v94h14q39 0 49 17 q25 31 25 413q0 184 -8.5 236.5t-38.5 91.5q-35 43 -102.5 43t-102.5 -49q-31 -45 -31 -211q0 -469 16 -518q8 -23 54 -23h22v-94h-354v94h16q39 0 49 17q23 33 23 415q0 197 -5 248t-28 80q-33 41 -88 41q-66 0 -102 -49q-27 -33 -36 -99.5t-9 -232.5q0 -365 8 -387 q12 -33 55 -33h21v-94h-381z" />
<glyph unicode="n" horiz-adv-x="927" d="M31 0v94h30q41 0 55.5 41t14.5 451q0 174 -2 218t-14 56q-31 31 -64 31h-20v92h55q76 0 107.5 -20.5t64.5 -75.5q86 119 260 119q156 0 230.5 -93.5t74.5 -212.5q0 -535 17 -583q8 -23 53 -23h22v-94h-393v94h29q39 0 49 17q25 31 25 413q0 184 -8.5 236.5t-38.5 91.5 q-33 43 -103 43q-66 0 -102 -49q-27 -33 -36 -99.5t-9 -232.5q0 -365 8 -387q12 -33 70 -33h20v-94h-395z" />
<glyph unicode="o" d="M43 483q0 176 31.5 271.5t97.5 158.5q96 92 221 93q121 0 215 -84q72 -61 104.5 -153.5t32.5 -289.5q0 -156 -29.5 -244t-88.5 -153q-92 -102 -234 -102q-147 0 -241 110q-57 63 -83 146t-26 247zM254 483q0 -201 10 -270.5t31 -95.5q37 -47 98.5 -47t95.5 45 q23 27 32 95.5t9 272.5q0 215 -9 288t-29 97q-39 45 -98.5 45t-98.5 -45q-23 -25 -32 -97.5t-9 -287.5z" />
<glyph unicode="p" horiz-adv-x="856" d="M18 -383q76 0 93 41q10 27 10 129v492q0 442 -10 550q-2 39 -15.5 50.5t-52.5 11.5h-25v92h39q80 0 123 -20.5t68 -75.5q41 51 98 85t115 34q152 0 249 -130.5t97 -367.5q0 -272 -92 -400t-226 -128q-131 0 -182 90v-283q0 -104 31 -147q18 -23 76 -23v-92h-396v92z M322 244q0 -70 37.5 -122t101.5 -52q51 0 90 47q25 31 35 103.5t10 287.5q0 197 -7 263.5t-28 92.5q-37 49 -100 49q-66 0 -102.5 -52t-36.5 -126v-491z" />
<glyph unicode="q" horiz-adv-x="856" d="M45 508q0 238 97.5 368t248.5 130q57 0 114.5 -34t98.5 -85q25 55 68 75.5t123 20.5h39v-92h-25q-39 0 -52.5 -11.5t-15.5 -50.5q-10 -109 -10 -550v-459q0 -121 17 -154q12 -27 36 -26q14 0 23 12q8 16 8 45v59h84v-73q0 -72 -44 -115t-114 -43q-92 0 -141 65 q-33 45 -44 85t-11 126v269q-51 -90 -183 -90q-133 0 -225 128t-92 400zM256 508q0 -215 10 -288t35 -103q39 -47 90 -47q63 0 101 52t38 122v491q0 74 -36.5 126t-102.5 52q-63 0 -100 -49q-20 -27 -27.5 -93t-7.5 -263z" />
<glyph unicode="r" horiz-adv-x="774" d="M31 0v94h30q41 0 55.5 41t14.5 451q0 174 -2 218t-14 56q-31 31 -64 31h-20v92h55q80 0 115 -21.5t63 -80.5q90 125 236 125q246 0 245 -279q0 -68 -38.5 -111t-96 -43t-93.5 39t-36 103q0 57 29 97t78 40q0 59 -80 59q-180 0 -180 -293v-104q0 -365 8 -387 q12 -33 70 -33h49v-94h-424z" />
<glyph unicode="s" horiz-adv-x="696" d="M20 256l62 16q12 -90 77.5 -146t149.5 -56q72 0 116 43t44 120.5t-53 131.5q-27 29 -132.5 88t-140.5 94q-82 82 -82 194q0 119 78 192t199 73q129 0 182 -97v97h82v-289h-82v18q0 63 -31 111q-43 72 -129 72q-115 0 -114 -117q0 -74 76 -125q25 -16 151 -80 q78 -37 119 -92q61 -78 61 -189q0 -160 -96 -247.5t-242 -87.5q-115 0 -201 73.5t-94 202.5z" />
<glyph unicode="t" horiz-adv-x="546" d="M33 891v92h14q94 0 158.5 112.5t64.5 245.5v41h78v-399h168v-92h-168q-20 -193 -20 -604q0 -262 24 -348q23 -86 105 -86q43 0 72.5 28.5t41.5 69.5l58 -12q-4 -68 -61.5 -122.5t-145.5 -54.5q-147 0 -213 101q-59 94 -59 424q0 481 -9 604h-108z" />
<glyph unicode="u" horiz-adv-x="862" d="M16 891v92h398v-92h-31q-29 0 -47 -21q-16 -18 -20.5 -73.5t-4.5 -282.5q0 -201 6.5 -265.5t22.5 -101.5q20 -41 47 -56t74 -15q80 0 117 71q16 35 21 94.5t5 258.5q0 326 -14 358q-10 33 -66 33h-16v92h344v-92h-25q-39 0 -53 -27q-10 -16 -13 -80.5t-3 -324.5 q0 -276 -47 -357q-72 -123 -254 -122q-197 0 -281 102q-37 45 -51 128t-14 275q0 362 -15 383q-14 23 -80 23z" />
<glyph unicode="v" horiz-adv-x="800" d="M31 891v92h381v-92h-25q-68 0 -68 -47q0 -25 7 -56q57 -299 133 -528q70 242 127 569q2 6 2 21q0 41 -72 41h-16v92h270v-92h-18q-25 0 -38.5 -12.5t-25.5 -49.5q-102 -311 -209 -829h-145q-45 205 -118 469t-116 381q-14 41 -55 41h-14z" />
<glyph unicode="w" horiz-adv-x="1232" d="M31 891v92h391v-92h-39q-70 0 -70 -47q0 -25 6 -56q51 -315 115 -528q119 356 148 567h172q51 -256 166 -567q55 207 98 522q6 43 6 68q0 41 -68 41h-28v92h276v-92h-18q-25 0 -37 -12.5t-23 -49.5q-88 -299 -174 -829h-131q-92 344 -196 653q-102 -328 -176 -653h-144 q-41 207 -105.5 470t-103.5 380q-14 41 -55 41h-10z" />
<glyph unicode="x" horiz-adv-x="794" d="M16 0v94h21q49 0 78 27q45 39 209 375q-12 20 -82 141t-115 190q-41 63 -84 64h-27v92h369v-92h-10q-25 0 -39 -11.5t-14 -27.5q0 -33 106 -246q109 223 109 246q0 39 -50 39h-14v92h289v-92h-29q-37 0 -69 -23q-12 -10 -25.5 -26.5t-31 -47t-33 -60t-46 -91 t-59.5 -113.5q39 -98 103.5 -216.5t109.5 -174.5q37 -45 80 -45h18v-94h-368v94h18q55 0 55 37q0 53 -116 279q-117 -238 -117 -279q0 -37 49 -37h14v-94h-299z" />
<glyph unicode="y" horiz-adv-x="811" d="M-43 -219q0 72 36 115t95 43q55 0 88 -35t33 -101q0 -57 -32 -91t-89 -34q0 -29 25.5 -46t54.5 -17q70 0 108 59q29 39 43.5 87.5t57.5 222.5q-20 78 -128 432t-128 413q-12 37 -24.5 49.5t-41.5 12.5h-24v92h397v-92h-37q-55 0 -55 -45q0 -137 141 -586q119 449 127 574 q2 31 -9 44t-46 13h-31v92h270v-92h-12q-53 0 -71 -62q-12 -43 -101.5 -406.5t-111.5 -447.5q-55 -240 -121 -345t-191 -105q-119 0 -171 71.5t-52 184.5z" />
<glyph unicode="z" horiz-adv-x="778" d="M51 0v94q70 106 211 383t193 400h-258q-57 0 -58 -99v-20h-88v225h662v-92q-66 -104 -214.5 -389t-197.5 -393h289q57 0 57 98v22h86v-229h-682z" />
<glyph unicode="{" horiz-adv-x="675" d="M156 551v102q66 12 90 55.5t24 120.5q0 33 -25.5 210.5t-25.5 279.5q0 160 115 261t299 101v-104q-123 -25 -184.5 -83t-61.5 -167q0 -43 25.5 -226t25.5 -259q0 -168 -112 -240q113 -72 112 -237q0 -78 -25.5 -260.5t-25.5 -225.5q0 -109 61.5 -167t184.5 -83v-104 q-184 0 -299 101.5t-115 260.5q0 100 25.5 278.5t25.5 211.5q0 78 -24 120t-90 54z" />
<glyph unicode="|" horiz-adv-x="552" d="M193 -475v2156h169v-2156h-169z" />
<glyph unicode="}" horiz-adv-x="675" d="M43 -371q123 25 183.5 83.5t60.5 166.5q0 43 -25.5 225.5t-25.5 260.5q0 166 114 237q-115 72 -114 240q0 76 25.5 259t25.5 226q0 109 -60.5 167t-183.5 83v104q184 0 299 -101t115 -261q0 -102 -25.5 -279.5t-25.5 -210.5q0 -78 24.5 -120.5t89.5 -55.5v-102 q-66 -12 -90 -54t-24 -120q0 -33 25.5 -211t25.5 -279q0 -160 -115 -261t-299 -101v104z" />
<glyph unicode="~" horiz-adv-x="872" d="M33 721q47 63 118.5 109.5t133.5 46.5q66 0 161 -62.5t144 -62.5q98 0 203 120l47 -112q-33 -47 -103.5 -85t-122.5 -38q-66 0 -171 61.5t-152 61.5q-104 0 -213 -152z" />
<glyph unicode="&#xa1;" horiz-adv-x="450" d="M74 977q0 70 36.5 113t98.5 43q59 0 96 -43t37 -113q0 -68 -37 -112t-96 -44q-61 0 -98 44t-37 112zM74 -258q0 12 4 41q8 45 31.5 183t34 204t21.5 159t13 150q4 119 4 199h64q0 -190 12 -306t49 -323q55 -303 55 -305q0 -63 -41.5 -104t-105.5 -41q-66 0 -103.5 40 t-37.5 103z" />
<glyph unicode="&#xa2;" horiz-adv-x="780" d="M55 725q0 479 310 516q0 166 -11 268h105q-14 -80 -15 -266q133 -10 199 -84t66 -186q0 -66 -38 -115t-93 -49q-57 0 -96.5 42t-39.5 103q0 53 27 93t72 53q-23 70 -133 69q-51 0 -97 -53q-27 -31 -36 -104.5t-9 -290.5q0 -188 8.5 -255t30.5 -93q43 -53 131 -54 q82 0 144.5 49.5t78.5 118.5l56 -12q-70 -238 -273 -256q6 -160 13 -219h-101q6 98 6 223q-137 20 -221 143t-84 359z" />
<glyph unicode="&#xa3;" horiz-adv-x="1081" d="M18 82q94 35 144.5 95.5t50.5 191.5q0 125 -31 301h-141v96h127q-10 92 -10 176q0 258 120.5 424t364.5 166q156 0 251 -80t95 -197q0 -63 -38 -110t-95 -47q-59 0 -95 38t-36 105q0 117 94 139q-51 59 -170 60q-135 0 -206.5 -101.5t-71.5 -279.5q0 -59 41 -293h487v-96 h-473q16 -104 16 -178q0 -162 -86 -283q84 41 193 41q80 0 146.5 -33t112.5 -64.5t77 -31.5q49 0 73.5 13t47.5 56l63 -30q-43 -94 -92 -137t-125 -43q-84 0 -203 66.5t-182 66.5q-137 0 -252 -43q-90 -53 -168 -70z" />
<glyph unicode="&#xa4;" horiz-adv-x="1046" d="M43 342l158 158q-70 113 -70 241q0 127 66 236l-152 153l82 87l145 -148q106 96 244 96q139 0 246 -100l151 152l86 -87l-161 -159q63 -106 63 -230q0 -119 -65 -233l165 -166l-86 -82l-155 156q-106 -96 -243.5 -96.5t-240.5 92.5l-151 -152zM227 741q0 -133 85 -228 t204 -95t203 95t84 228t-84 228.5t-203 95.5t-204 -95.5t-85 -228.5z" />
<glyph unicode="&#xa5;" horiz-adv-x="1095" d="M35 1417v92h426v-92h-49q-47 0 -47 -33q0 -16 12 -57q33 -98 223 -569q184 449 229 588q8 27 9 38q0 33 -31 33h-62v92h318v-92h-14q-33 0 -52 -22q-23 -23 -110 -217q-229 -496 -246 -547h322v-103h-326v-110h326v-107h-326v-123q0 -53 19.5 -73.5t58.5 -20.5h33v-94 h-396v94h23q23 0 38 4t28.5 26.5t13.5 63.5v123h-303v107h305v110h-305v103h297q-84 227 -324 725q-18 39 -32.5 50t-45.5 11h-12z" />
<glyph unicode="&#xa6;" horiz-adv-x="552" d="M193 397h169v-872h-169v872zM193 881v800h169v-800h-169z" />
<glyph unicode="&#xa7;" horiz-adv-x="722" d="M20 256l62 16q12 -90 77.5 -146t149.5 -56q72 0 116 43t44 120.5t-51 126t-141.5 96.5t-133.5 91q-82 82 -82 194q0 96 54.5 165t144.5 91q-190 102 -190 271q0 119 78.5 191.5t199.5 72.5q127 0 180 -96v96h82v-289h-82v19q0 74 -43 128t-116 54q-115 0 -115 -117 q0 -35 10 -59.5t45 -50t67 -42t105 -53.5q180 -86 181 -280q0 -186 -132 -279q123 -84 123 -248q0 -160 -96 -247.5t-242 -87.5q-115 0 -201 73.5t-94 202.5zM246 801q0 -74 76 -125q18 -16 94 -51q61 39 61 135q0 47 -17.5 80.5t-66.5 74.5q-4 0 -16 1t-17 1 q-114 1 -114 -116z" />
<glyph unicode="&#xa8;" horiz-adv-x="798" d="M86 1370.5q0 65.5 37 107.5t94 42q59 0 96 -42t37 -107.5t-37 -105.5t-96 -40q-57 0 -94 40t-37 105.5zM446 1370.5q0 65.5 37 107.5t97 42q57 0 94 -42t37 -107.5t-37 -105.5t-94 -40q-59 0 -96.5 40t-37.5 105.5z" />
<glyph unicode="&#xa9;" horiz-adv-x="1536" d="M61 753.5q0 321.5 207 550t498 228.5q293 0 501 -228.5t208 -550t-208 -547.5t-501 -226t-499 226t-206 547.5zM190 753.5q0 -268.5 168 -458t408 -189.5t410 189.5t170 458t-170 459t-410 190.5t-408 -190.5t-168 -459zM528 762q0 199 10.5 276.5t43.5 130.5 q63 104 200 105q80 0 128 -41t48 -103q0 -31 -19 -55t-48 -24q-59 0 -60 69q0 59 41 74q-27 33 -88 33q-68 0 -102 -47q-23 -27 -32 -99.5t-9 -285.5q0 -242 7 -314.5t24 -97.5q39 -57 112 -57q100 0 125 88l35 -17q-37 -121 -168 -121q-121 0 -186 84q-35 45 -48.5 122 t-13.5 280z" />
<glyph unicode="&#xaa;" horiz-adv-x="602" d="M37 1057q0 88 82 139q39 23 84 45.5t74.5 38.5t54.5 41q0 84 -16.5 109.5t-59.5 25.5q-39 0 -53 -18q45 -20 45 -90q0 -39 -25.5 -66t-60.5 -27q-92 0 -92 97q0 84 59 133t143 49q104 0 148 -51t44 -238q0 -23 -1 -49q-2 -50 -2 -88q0 -113 14 -113t14 19v53h80v-57 q0 -45 -29.5 -76t-76.5 -31q-66 0 -105 74q-45 -78 -135 -78t-138 42t-48 116zM41 705v141q168 -20 276 -21q117 0 222 21v-141q-106 14 -232 14q-143 0 -266 -14zM182 1061q0 -29 21.5 -47.5t50.5 -18.5q55 0 82 64q-2 29 -2 104v68l-31 -25q-31 -25 -59 -41 q-37 -25 -49.5 -46t-12.5 -58z" />
<glyph unicode="&#xab;" horiz-adv-x="784" d="M35 588v205l321 217v-170l-241 -150l241 -139v-180zM426 588v205l322 217v-170l-242 -150l242 -139v-180z" />
<glyph unicode="&#xac;" horiz-adv-x="872" d="M33 680v119h807v-799h-119v680h-688z" />
<glyph unicode="&#xad;" horiz-adv-x="528" d="M37 539v168q166 -18 252 -19q100 0 200 19v-168q-104 12 -210 12q-123 0 -242 -12z" />
<glyph unicode="&#xae;" horiz-adv-x="1536" d="M61 753.5q0 321.5 207 550t498 228.5q293 0 501 -228.5t208 -550t-208 -547.5t-501 -226t-499 226t-206 547.5zM190 753.5q0 -268.5 168 -458t408 -189.5t410 189.5t170 458t-170 459t-410 190.5t-408 -190.5t-168 -459zM522 1214v50h244q86 0 134 -50.5t48 -177.5 q0 -102 -40 -150t-122 -52q78 -14 134 -150q8 -23 40.5 -130.5t64.5 -162.5t73 -55h37v-47h-68q-66 0 -97.5 26.5t-64.5 106.5q-18 41 -46 127t-44 123q-35 78 -66.5 111.5t-76.5 37.5q0 -387 8 -452q4 -33 35 -33h12v-47h-205v47h10q35 0 39 33q6 74 7 487q0 315 -17 348 q-8 10 -24 10h-15zM672 877h65q53 0 78 33.5t25 131.5q0 111 -23.5 141.5t-79.5 30.5h-24q-18 0 -27 -24q-14 -41 -14 -313z" />
<glyph unicode="&#xaf;" horiz-adv-x="688" d="M39 1206v168q254 -20 340 -20q117 0 270 20v-168q-145 12 -282 13q-166 -1 -328 -13z" />
<glyph unicode="&#xb0;" horiz-adv-x="630" d="M59 1257q0 123 71 199t185.5 76t185 -76t70.5 -199q0 -121 -70.5 -197.5t-185 -76.5t-185.5 76.5t-71 197.5zM188 1257.5q0 -65.5 35 -105.5t92.5 -40t92 40t34.5 105.5t-34.5 105.5t-92 40t-92.5 -40t-35 -105.5z" />
<glyph unicode="&#xb1;" horiz-adv-x="872" d="M33 0v119h807v-119h-807zM33 680v119h342v342h119v-342h346v-119h-346v-346h-119v346h-342z" />
<glyph unicode="&#xb2;" horiz-adv-x="487" d="M53 707v100q0 94 23.5 157.5t51.5 92t91 78.5q92 74 92 206q0 61 -24.5 98.5t-65.5 37.5t-45 -13q43 -27 43 -82q0 -37 -23.5 -63.5t-58.5 -26.5t-59.5 25.5t-24.5 60.5q0 78 48.5 126t125.5 48q96 0 149.5 -57t53.5 -166q0 -152 -149 -254q-72 -51 -91.5 -99t-19.5 -155 v-33h170q20 0 20 60h66v-141h-373z" />
<glyph unicode="&#xb3;" horiz-adv-x="491" d="M49 866q0 33 24.5 59.5t57.5 26.5q35 0 59.5 -27.5t24.5 -62.5q0 -63 -43 -84q8 -12 43 -12q41 0 64 29q25 33 24 153q0 100 -14.5 135t-57.5 35h-61v64h61q37 0 48.5 28.5t11.5 122.5q0 68 -11.5 100.5t-22.5 38t-38 5.5q-29 0 -41 -13q43 -27 43 -82q0 -37 -24.5 -63.5 t-57.5 -26.5q-37 0 -60.5 25.5t-23.5 66.5q0 74 47.5 119t133.5 45t135 -55t49 -154q0 -156 -76 -192q92 -59 92 -207q0 -109 -55 -179.5t-158 -70.5q-78 0 -126 48t-48 128z" />
<glyph unicode="&#xb4;" horiz-adv-x="475" d="M25 1139l190 321h234l-238 -321h-186z" />
<glyph unicode="&#xb5;" horiz-adv-x="856" d="M29 891v92h395v-92h-31q-29 0 -45 -21q-18 -18 -22 -72.5t-4 -283.5v-332q63 -106 149 -106q129 0 143 155l4 453q0 137 -18 174q-10 33 -65 33h-17v92h344v-92h-24q-39 0 -54 -27q-10 -16 -13 -80.5t-3 -324.5v-144q0 -115 12 -176q8 -45 37 -45q35 0 35 56v67h84v-76 q0 -70 -42 -113.5t-116 -43.5q-98 0 -143 90q-41 -94 -168 -94q-76 0 -128 30.5t-95 108.5q4 -129 41 -245t37 -146q0 -129 -100.5 -129t-100.5 131v755q0 362 -15 383q-14 23 -77 23z" />
<glyph unicode="&#xb6;" horiz-adv-x="1263" d="M39 1073q0 227 88 334q86 102 262 102h836v-92q-74 0 -90.5 -71.5t-16.5 -419.5q0 -33 1 -493t1 -810h-192q10 195 10 1116q0 561 -27 631q-18 47 -67 47q-37 0 -58 -33q-18 -31 -24 -114.5t-6 -343.5q0 -33 1 -493t1 -810h-191q8 233 8 1022h-169q-195 0 -285 115 q-45 57 -63.5 125.5t-18.5 187.5zM252 1047q0 -162 37 -228q49 -80 160 -80h126q0 383 -5 489.5t-21 141.5q-20 47 -62 47h-38q-102 0 -148 -65q-49 -63 -49 -305z" />
<glyph unicode="&#xb7;" horiz-adv-x="442" d="M86 676q0 68 37 111.5t96 43.5q61 0 98 -44t37 -111q0 -70 -36.5 -113t-98.5 -43q-59 0 -96 43t-37 113z" />
<glyph unicode="&#xb8;" horiz-adv-x="391" d="M66 -205q0 51 36.5 89t94 38t93.5 -38t36 -101q0 -100 -54.5 -171t-136.5 -87l-18 43q94 37 106 98q-16 -8 -39 -8q-53 0 -85.5 35.5t-32.5 101.5z" />
<glyph unicode="&#xb9;" horiz-adv-x="323" d="M43 1372v74q39 4 69.5 28.5t32.5 63.5h76q-2 -66 -2 -416q0 -270 10 -325q8 -18 25 -19h25v-73h-236v73h29q16 0 20 23q6 61 6 321q0 201 -4 250h-51z" />
<glyph unicode="&#xba;" horiz-adv-x="546" d="M49 1214q0 172 63.5 246t159.5 74q117 0 168.5 -94t51.5 -228q0 -164 -63.5 -238.5t-156.5 -74.5q-223 0 -223 315zM51 705v141q150 -20 246 -21q102 0 197 21v-141q-94 14 -205 14q-125 0 -238 -14zM199 1214q0 -180 24 -208q14 -23 49 -23q23 0 43 23q23 18 23 208 q0 197 -23 213q-20 27 -43 27q-29 0 -43 -14q-30 -36 -30 -226z" />
<glyph unicode="&#xbb;" horiz-adv-x="784" d="M35 371v180l239 139l-239 150v170l321 -217v-205zM426 371v180l240 139l-240 150v170l322 -217v-205z" />
<glyph unicode="&#xbc;" horiz-adv-x="1243" d="M51 0q201 283 530.5 799t422.5 710h188q-176 -227 -506 -754.5t-446 -754.5h-189zM152 1372v74q39 4 69.5 28.5t32.5 63.5h76q-2 -66 -2 -416q0 -270 10 -325q10 -18 24 -19h25v-73h-235v73h28q16 0 21 23q6 61 6 321q0 201 -4 250h-51zM768 338q68 215 88 383h111 q-45 -168 -70 -307h107l2 180q0 137 -11 219h181v-74h-25q-16 0 -21.5 -30.5t-7.5 -126.5l-2 -168h68v-76h-68l-2 -191q-1 -14 0 -26q0 -36 4 -49q6 -18 31 -19h23v-73h-250v73h47q31 0 31 94v191h-236z" />
<glyph unicode="&#xbd;" horiz-adv-x="1243" d="M51 0q201 283 530.5 799t422.5 710h188q-176 -227 -506 -754.5t-446 -754.5h-189zM152 1372v74q39 4 69.5 28.5t32.5 63.5h76q-2 -66 -2 -416q0 -270 10 -325q10 -18 24 -19h25v-73h-235v73h28q16 0 21 23q6 61 6 321q0 201 -4 250h-51zM801 -18v100q0 94 23.5 157.5 t51 92t91.5 78.5q92 74 92 206q0 61 -24.5 98.5t-65.5 37.5t-45 -13q43 -27 43 -82q0 -37 -23.5 -63.5t-58.5 -26.5t-59.5 25.5t-24.5 60.5q0 78 48 126t126 48q96 0 149.5 -57t53.5 -166q0 -152 -150 -254q-72 -51 -91 -99t-19 -155v-33h169q20 0 21 60h66v-141h-373z" />
<glyph unicode="&#xbe;" horiz-adv-x="1243" d="M51 0q201 283 530.5 799t422.5 710h188q-176 -227 -506 -754.5t-446 -754.5h-189zM53 866q0 33 24.5 59.5t57.5 26.5q35 0 59.5 -27.5t24.5 -62.5q0 -63 -43 -84q8 -12 43 -12q41 0 64 29q25 33 24 153q0 100 -14 135t-57 35h-62v64h62q37 0 48 28.5t11 122.5 q0 68 -11.5 100.5t-22.5 38t-38 5.5q-29 0 -41 -13q43 -27 43 -82q0 -37 -24.5 -63.5t-57.5 -26.5q-37 0 -60.5 25.5t-23.5 66.5q0 74 47.5 119t133.5 45t135 -55t49 -154q0 -156 -76 -192q92 -59 92 -207q0 -109 -55 -179.5t-158 -70.5q-78 0 -126 48t-48 128zM768 338 q68 215 88 383h111q-45 -168 -70 -307h107l2 180q0 137 -11 219h181v-74h-25q-16 0 -21.5 -30.5t-7.5 -126.5l-2 -168h68v-76h-68l-2 -191q-1 -14 0 -26q0 -36 4 -49q6 -18 31 -19h23v-73h-250v73h47q31 0 31 94v191h-236z" />
<glyph unicode="&#xbf;" horiz-adv-x="716" d="M33 -43q0 100 44 183t107.5 137.5t127 100.5t107.5 97t44 103q0 53 -32 84.5t-79 35.5v47q78 0 131.5 -52t53.5 -130q0 -92 -52 -153q-25 -33 -93 -95.5t-101 -105.5q-72 -104 -72 -248q0 -272 182 -272q41 0 75 15t38 46q-94 37 -94 141q0 57 39 101.5t94 44.5 q57 0 95 -43t38 -109q0 -127 -84 -206.5t-219 -79.5q-172 0 -261 85t-89 273zM274 995q0 68 37 112t99 44q59 0 96 -44t37 -112q0 -70 -37 -112.5t-96 -42.5q-61 0 -98.5 42.5t-37.5 112.5z" />
<glyph unicode="&#xc0;" horiz-adv-x="1040" d="M31 -283h24q51 0 66 60q29 94 141.5 735t165.5 997h201q88 -735 252 -1507q51 -248 67 -268q14 -16 47 -17h21v-94h-432v94h24q74 0 74 37q0 70 -29 242h-397l-33 -205q-2 -16 -2 -39q0 -35 70 -35h26v-94h-286v94zM199 1923h235l189 -321h-185zM270 88h371l-166 1100 q-14 -68 -103.5 -547t-101.5 -553z" />
<glyph unicode="&#xc1;" horiz-adv-x="1040" d="M31 -283h24q51 0 66 60q29 94 141.5 735t165.5 997h201q88 -735 252 -1507q51 -248 67 -268q14 -16 47 -17h21v-94h-432v94h24q74 0 74 37q0 70 -29 242h-397l-33 -205q-2 -16 -2 -39q0 -35 70 -35h26v-94h-286v94zM270 88h371l-166 1100q-14 -68 -103.5 -547 t-101.5 -553zM391 1602l191 321h233l-237 -321h-187z" />
<glyph unicode="&#xc2;" horiz-adv-x="1040" d="M31 -283h24q51 0 66 60q29 94 141.5 735t165.5 997h201q88 -735 252 -1507q51 -248 67 -268q14 -16 47 -17h21v-94h-432v94h24q74 0 74 37q0 70 -29 242h-397l-33 -205q-2 -16 -2 -39q0 -35 70 -35h26v-94h-286v94zM199 1602l217 321h205l217 -321h-170l-150 198 l-147 -198h-172zM270 88h371l-166 1100q-14 -68 -103.5 -547t-101.5 -553z" />
<glyph unicode="&#xc3;" horiz-adv-x="1040" d="M31 -283h24q51 0 66 60q29 94 141.5 735t165.5 997h201q88 -735 252 -1507q51 -248 67 -268q14 -16 47 -17h21v-94h-432v94h24q74 0 74 37q0 70 -29 242h-397l-33 -205q-2 -16 -2 -39q0 -35 70 -35h26v-94h-286v94zM201 1761q37 51 94 88t104 37q51 0 127 -49t115 -49 q76 0 158 94l37 -129q-25 -39 -80.5 -68.5t-98.5 -29.5q-51 0 -133 49t-119 49q-82 0 -167 -119zM270 88h371l-166 1100q-14 -68 -103.5 -547t-101.5 -553z" />
<glyph unicode="&#xc4;" horiz-adv-x="1040" d="M31 -283h24q51 0 66 60q29 94 141.5 735t165.5 997h201q88 -735 252 -1507q51 -248 67 -268q14 -16 47 -17h21v-94h-432v94h24q74 0 74 37q0 70 -29 242h-397l-33 -205q-2 -16 -2 -39q0 -35 70 -35h26v-94h-286v94zM207 1832.5q0 65.5 37 107.5t94 42q59 0 96 -42 t37 -107.5t-37 -105t-96 -39.5q-57 0 -94 39.5t-37 105zM270 88h371l-166 1100q-14 -68 -103.5 -547t-101.5 -553zM567 1832.5q0 65.5 37 107.5t96 42q57 0 94 -42t37 -107.5t-36.5 -105t-94.5 -39.5q-59 0 -96 39.5t-37 105z" />
<glyph unicode="&#xc5;" horiz-adv-x="1040" d="M31 -283h24q51 0 66 60q29 94 141.5 735t165.5 997h201q88 -735 252 -1507q51 -248 67 -268q14 -16 47 -17h21v-94h-432v94h24q74 0 74 37q0 70 -29 242h-397l-33 -205q-2 -16 -2 -39q0 -35 70 -35h26v-94h-286v94zM270 88h371l-166 1100q-14 -68 -103.5 -547 t-101.5 -553zM301 1741q0 74 64.5 128t152.5 54t153.5 -53t65.5 -129q0 -80 -64.5 -130t-154.5 -50q-94 0 -155.5 51t-61.5 129zM449 1733q0 -115 69 -115q74 0 74 115q0 121 -74 120q-69 1 -69 -120z" />
<glyph unicode="&#xc6;" horiz-adv-x="1409" d="M31 -283h24q51 0 66 60q29 94 141.5 735t165.5 997h696v-213h-88q0 121 -57 121h-219q-74 0 -74 -28q0 -172 43 -625h152q70 0 69 121h86v-336h-86q0 125 -69 125h-144q35 -367 76 -672l29 -201q6 -33 17 -45t36 -12h358q57 0 58 113h84v-234h-908l7 94h26q76 0 76 37 q0 135 -8 242h-332l-33 -205q-2 -16 -2 -39q0 -35 70 -35h26v-94h-286v94zM270 88h312l-88 1208q-212 -1132 -224 -1208z" />
<glyph unicode="&#xc7;" horiz-adv-x="915" d="M51 745q0 248 19.5 367t81.5 217q127 203 387 203q154 0 250 -80t96 -197q0 -61 -39 -109t-96 -48q-115 0 -115 137q0 63 15.5 94t64.5 51q-51 59 -170 60q-127 0 -201 -92q-43 -53 -60.5 -171t-17.5 -419q0 -467 72 -576q43 -61 92 -85.5t127 -24.5q193 0 242 172 l65 -29q-37 -125 -115.5 -180t-207.5 -55q-231 0 -361 161q-68 86 -98.5 217t-30.5 387zM365 -205q0 51 36.5 89t92.5 38q59 0 95 -38t36 -101q0 -100 -55.5 -171t-137.5 -87l-16 43q94 37 106 98q-16 -8 -39 -8q-53 0 -85.5 35.5t-32.5 101.5z" />
<glyph unicode="&#xc8;" horiz-adv-x="1001" d="M39 -283h27q39 0 55 14.5t18 61.5q6 125 6 496q0 895 -10 1050q-4 43 -18.5 60.5t-44.5 17.5h-33v92h676v-213h-86q0 121 -58 121h-145q-49 0 -63.5 -10t-20.5 -53q-12 -127 -14 -590h143q70 0 70 121h88v-336h-88q0 125 -70 125h-145v-191q0 -573 16 -696q8 -43 84 -43 h418q57 0 57 113h86v-234h-948v94zM94 1923h236l188 -321h-184z" />
<glyph unicode="&#xc9;" horiz-adv-x="1001" d="M39 -283h27q39 0 55 14.5t18 61.5q6 125 6 496q0 895 -10 1050q-4 43 -18.5 60.5t-44.5 17.5h-33v92h676v-213h-86q0 121 -58 121h-145q-49 0 -63.5 -10t-20.5 -53q-12 -127 -14 -590h143q70 0 70 121h88v-336h-88q0 125 -70 125h-145v-191q0 -573 16 -696q8 -43 84 -43 h418q57 0 57 113h86v-234h-948v94zM287 1602l190 321h234l-238 -321h-186z" />
<glyph unicode="&#xca;" horiz-adv-x="1001" d="M39 -283h27q39 0 55 14.5t18 61.5q6 125 6 496q0 895 -10 1050q-4 43 -18.5 60.5t-44.5 17.5h-33v92h676v-213h-86q0 121 -58 121h-145q-49 0 -63.5 -10t-20.5 -53q-12 -127 -14 -590h143q70 0 70 121h88v-336h-88q0 125 -70 125h-145v-191q0 -573 16 -696q8 -43 84 -43 h418q57 0 57 113h86v-234h-948v94zM94 1602l217 321h205l217 -321h-170l-149 198l-148 -198h-172z" />
<glyph unicode="&#xcb;" horiz-adv-x="1001" d="M39 -283h27q39 0 55 14.5t18 61.5q6 125 6 496q0 895 -10 1050q-4 43 -18.5 60.5t-44.5 17.5h-33v92h676v-213h-86q0 121 -58 121h-145q-49 0 -63.5 -10t-20.5 -53q-12 -127 -14 -590h143q70 0 70 121h88v-336h-88q0 125 -70 125h-145v-191q0 -573 16 -696q8 -43 84 -43 h418q57 0 57 113h86v-234h-948v94zM102 1832.5q0 65.5 37 107.5t94 42q59 0 96.5 -42t37.5 -107.5t-37 -105t-97 -39.5q-57 0 -94 39.5t-37 105zM463 1832.5q0 65.5 37 107.5t96 42q57 0 94 -42t37 -107.5t-37 -105t-94 -39.5q-59 0 -96 39.5t-37 105z" />
<glyph unicode="&#xcc;" horiz-adv-x="468" d="M-84 1923h236l188 -321h-184zM39 -283h33q27 0 38 7.5t17 29.5q14 45 14 920q0 664 -14 704q-10 39 -55 39h-33v92h391v-92h-35q-41 0 -55 -39q-12 -41 -12 -704q0 -870 12 -920q12 -37 55 -37h35v-94h-391v94z" />
<glyph unicode="&#xcd;" horiz-adv-x="468" d="M39 -283h33q27 0 38 7.5t17 29.5q14 45 14 920q0 664 -14 704q-10 39 -55 39h-33v92h391v-92h-35q-41 0 -55 -39q-12 -41 -12 -704q0 -870 12 -920q12 -37 55 -37h35v-94h-391v94zM106 1602l191 321h233l-237 -321h-187z" />
<glyph unicode="&#xce;" horiz-adv-x="468" d="M-86 1602l217 321h205l217 -321h-170l-150 198l-147 -198h-172zM39 -283h33q27 0 38 7.5t17 29.5q14 45 14 920q0 664 -14 704q-10 39 -55 39h-33v92h391v-92h-35q-41 0 -55 -39q-12 -41 -12 -704q0 -870 12 -920q12 -37 55 -37h35v-94h-391v94z" />
<glyph unicode="&#xcf;" horiz-adv-x="468" d="M-78 1832.5q0 65.5 37 107.5t94 42q59 0 96 -42t37 -107.5t-36.5 -105t-96.5 -39.5q-57 0 -94 39.5t-37 105zM39 -283h33q27 0 38 7.5t17 29.5q14 45 14 920q0 664 -14 704q-10 39 -55 39h-33v92h391v-92h-35q-41 0 -55 -39q-12 -41 -12 -704q0 -870 12 -920 q12 -37 55 -37h35v-94h-391v94zM283 1832.5q0 65.5 36.5 107.5t96.5 42q57 0 94 -42t37 -107.5t-37 -105t-94 -39.5q-59 0 -96 39.5t-37 105z" />
<glyph unicode="&#xd0;" horiz-adv-x="1089" d="M37 674v90h108q-2 494 -22 625q-4 29 -62 28h-22v92h618q168 0 269 -149q61 -94 87.5 -264t26.5 -518q0 -350 -29.5 -525.5t-90.5 -269.5q-106 -160 -306 -160h-575v94h20q41 0 56 39q29 78 30 629v229v60h-108zM326 674q0 -702 8 -817q6 -82 23.5 -111t66.5 -29h127 q133 0 201 109q39 61 57 204.5t18 508.5q0 360 -15 509.5t-48 221.5q-66 147 -211 147h-141q-61 0 -70 -63q-16 -135 -16 -590h166q72 0 71 121h86v-336h-86q0 125 -71 125h-166z" />
<glyph unicode="&#xd1;" horiz-adv-x="1003" d="M39 -283h20q33 0 52 29q23 33 27.5 164t4.5 723q0 702 -20 756q-12 29 -45 28h-39v92h311q197 -739 436 -1437q8 317 9 651q0 629 -27 672q-10 23 -37 22h-43v92h305v-92h-18q-47 0 -64 -22q-18 -25 -22 -134.5t-4 -570.5q0 -858 16 -1067h-213q-70 287 -218 810 t-232 738q-4 -106 -5 -882q0 -340 4.5 -422t20.5 -117q14 -33 64 -33h20v-94h-303v94zM182 1761q37 51 94.5 88t104.5 37q53 0 127 -49t115 -49q76 0 157 94l37 -129q-25 -39 -80 -68.5t-98 -29.5q-49 0 -131 49t-121 49q-82 0 -168 -119z" />
<glyph unicode="&#xd2;" horiz-adv-x="1083" d="M51 530q0 422 35 606.5t121 272.5q117 123 328 123q223 0 350 -131q84 -88 115.5 -269.5t31.5 -603.5q0 -397 -30.5 -561t-106.5 -241q-123 -127 -334 -127q-242 0 -366 125q-80 78 -112 240.5t-32 565.5zM223 1923h236l188 -321h-184zM264 530q0 -420 14.5 -554 t51.5 -181q80 -102 213 -102q154 0 225 129q29 45 39 172t10 534q0 451 -15.5 600.5t-51.5 204.5q-74 106 -207 107q-137 0 -211 -109q-37 -55 -52.5 -203.5t-15.5 -597.5z" />
<glyph unicode="&#xd3;" horiz-adv-x="1083" d="M51 530q0 422 35 606.5t121 272.5q117 123 328 123q223 0 350 -131q84 -88 115.5 -269.5t31.5 -603.5q0 -397 -30.5 -561t-106.5 -241q-123 -127 -334 -127q-242 0 -366 125q-80 78 -112 240.5t-32 565.5zM264 530q0 -420 14.5 -554t51.5 -181q80 -102 213 -102 q154 0 225 129q29 45 39 172t10 534q0 451 -15.5 600.5t-51.5 204.5q-74 106 -207 107q-137 0 -211 -109q-37 -55 -52.5 -203.5t-15.5 -597.5zM414 1602l190 321h234l-238 -321h-186z" />
<glyph unicode="&#xd4;" horiz-adv-x="1083" d="M51 530q0 422 35 606.5t121 272.5q117 123 328 123q223 0 350 -131q84 -88 115.5 -269.5t31.5 -603.5q0 -397 -30.5 -561t-106.5 -241q-123 -127 -334 -127q-242 0 -366 125q-80 78 -112 240.5t-32 565.5zM221 1602l217 321h205l217 -321h-170l-149 198l-148 -198h-172z M264 530q0 -420 14.5 -554t51.5 -181q80 -102 213 -102q154 0 225 129q29 45 39 172t10 534q0 451 -15.5 600.5t-51.5 204.5q-74 106 -207 107q-137 0 -211 -109q-37 -55 -52.5 -203.5t-15.5 -597.5z" />
<glyph unicode="&#xd5;" horiz-adv-x="1083" d="M51 530q0 422 35 606.5t121 272.5q117 123 328 123q223 0 350 -131q84 -88 115.5 -269.5t31.5 -603.5q0 -397 -30.5 -561t-106.5 -241q-123 -127 -334 -127q-242 0 -366 125q-80 78 -112 240.5t-32 565.5zM223 1761q37 51 94.5 88t104.5 37q53 0 127 -49t115 -49 q76 0 157 94l37 -129q-25 -39 -80 -68.5t-98 -29.5q-49 0 -131 49t-121 49q-82 0 -168 -119zM264 530q0 -420 14.5 -554t51.5 -181q80 -102 213 -102q154 0 225 129q29 45 39 172t10 534q0 451 -15.5 600.5t-51.5 204.5q-74 106 -207 107q-137 0 -211 -109 q-37 -55 -52.5 -203.5t-15.5 -597.5z" />
<glyph unicode="&#xd6;" horiz-adv-x="1083" d="M51 530q0 422 35 606.5t121 272.5q117 123 328 123q223 0 350 -131q84 -88 115.5 -269.5t31.5 -603.5q0 -397 -30.5 -561t-106.5 -241q-123 -127 -334 -127q-242 0 -366 125q-80 78 -112 240.5t-32 565.5zM229 1832.5q0 65.5 37 107.5t94 42q59 0 96.5 -42t37.5 -107.5 t-37 -105t-97 -39.5q-57 0 -94 39.5t-37 105zM264 530q0 -420 14.5 -554t51.5 -181q80 -102 213 -102q154 0 225 129q29 45 39 172t10 534q0 451 -15.5 600.5t-51.5 204.5q-74 106 -207 107q-137 0 -211 -109q-37 -55 -52.5 -203.5t-15.5 -597.5zM590 1832.5 q0 65.5 37 107.5t96 42q57 0 94 -42t37 -107.5t-37 -105t-94 -39.5q-59 0 -96 39.5t-37 105z" />
<glyph unicode="&#xd7;" horiz-adv-x="872" d="M109 494l243 245l-243 242l86 84l241 -244l244 244l82 -84l-242 -242l244 -245l-84 -82l-244 241l-243 -241z" />
<glyph unicode="&#xd8;" horiz-adv-x="1083" d="M51 530q0 422 35 606.5t121 272.5q117 123 328 123q133 0 241 -51q31 106 47 174h205l-119 -285q68 -88 95.5 -270t27.5 -572q0 -397 -30.5 -561t-106.5 -241q-123 -127 -334 -127q-154 0 -270 53q-12 -41 -33 -127h-205l103 244q-57 80 -81 244.5t-24 516.5zM264 530 q0 -334 8 -473q313 805 465 1293q-72 90 -194 90q-137 0 -211 -109q-37 -55 -52.5 -203.5t-15.5 -597.5zM332 -209q82 -98 211 -98q154 0 225 129q29 45 39 172t10 534q0 422 -14 582q-299 -748 -471 -1319z" />
<glyph unicode="&#xd9;" horiz-adv-x="1079" d="M31 1417v92h409v-92h-26q-43 0 -60 -43q-16 -41 -20 -113.5t-4 -330.5q0 -12 -2 -241.5t-2 -424.5q0 -223 10 -303t37 -141q57 -127 211 -127q133 0 182 74q57 82 75.5 197.5t18.5 400.5q0 518 -12 899q-2 100 -21 127q-23 27 -59 26h-23v92h306v-92h-27q-29 0 -47 -26 q-16 -29 -21.5 -75t-5.5 -186q0 -61 4 -409t4 -526q0 -350 -96 -480q-84 -117 -299 -116q-242 0 -350 145q-51 70 -71.5 156t-20.5 247q0 123 4 402.5t4 451.5q0 317 -10 369q-6 29 -18.5 38t-45.5 9h-24zM262 1923h236l188 -321h-184z" />
<glyph unicode="&#xda;" horiz-adv-x="1079" d="M31 1417v92h409v-92h-26q-43 0 -60 -43q-16 -41 -20 -113.5t-4 -330.5q0 -12 -2 -241.5t-2 -424.5q0 -223 10 -303t37 -141q57 -127 211 -127q133 0 182 74q57 82 75.5 197.5t18.5 400.5q0 518 -12 899q-2 100 -21 127q-23 27 -59 26h-23v92h306v-92h-27q-29 0 -47 -26 q-16 -29 -21.5 -75t-5.5 -186q0 -61 4 -409t4 -526q0 -350 -96 -480q-84 -117 -299 -116q-242 0 -350 145q-51 70 -71.5 156t-20.5 247q0 123 4 402.5t4 451.5q0 317 -10 369q-6 29 -18.5 38t-45.5 9h-24zM455 1602l190 321h234l-238 -321h-186z" />
<glyph unicode="&#xdb;" horiz-adv-x="1079" d="M31 1417v92h409v-92h-26q-43 0 -60 -43q-16 -41 -20 -113.5t-4 -330.5q0 -12 -2 -241.5t-2 -424.5q0 -223 10 -303t37 -141q57 -127 211 -127q133 0 182 74q57 82 75.5 197.5t18.5 400.5q0 518 -12 899q-2 100 -21 127q-23 27 -59 26h-23v92h306v-92h-27q-29 0 -47 -26 q-16 -29 -21.5 -75t-5.5 -186q0 -61 4 -409t4 -526q0 -350 -96 -480q-84 -117 -299 -116q-242 0 -350 145q-51 70 -71.5 156t-20.5 247q0 123 4 402.5t4 451.5q0 317 -10 369q-6 29 -18.5 38t-45.5 9h-24zM262 1602l217 321h205l217 -321h-170l-149 198l-148 -198h-172z" />
<glyph unicode="&#xdc;" horiz-adv-x="1079" d="M31 1417v92h409v-92h-26q-43 0 -60 -43q-16 -41 -20 -113.5t-4 -330.5q0 -12 -2 -241.5t-2 -424.5q0 -223 10 -303t37 -141q57 -127 211 -127q133 0 182 74q57 82 75.5 197.5t18.5 400.5q0 518 -12 899q-2 100 -21 127q-23 27 -59 26h-23v92h306v-92h-27q-29 0 -47 -26 q-16 -29 -21.5 -75t-5.5 -186q0 -61 4 -409t4 -526q0 -350 -96 -480q-84 -117 -299 -116q-242 0 -350 145q-51 70 -71.5 156t-20.5 247q0 123 4 402.5t4 451.5q0 317 -10 369q-6 29 -18.5 38t-45.5 9h-24zM268 1832.5q0 65.5 37 107.5t94 42q59 0 96 -42t37 -107.5 t-36.5 -105t-96.5 -39.5q-57 0 -94 39.5t-37 105zM629 1832.5q0 65.5 36.5 107.5t96.5 42q57 0 94 -42t37 -107.5t-37 -105t-94 -39.5q-59 0 -96 39.5t-37 105z" />
<glyph unicode="&#xdd;" horiz-adv-x="1058" d="M14 1417v92h426v-92h-37q-59 0 -59 -39q0 -10 8 -38.5t33 -93t47.5 -125t69.5 -185.5t84 -223q231 616 231 665q0 39 -43 39h-47v92h317v-92h-16q-27 0 -41 -13t-37 -61q-66 -133 -329 -788q0 -223 -1.5 -449.5t-1.5 -261.5q0 -80 17.5 -103.5t69.5 -23.5h36v-94h-440v94 h55q31 0 46.5 27t21.5 111q8 109 14 690q-98 285 -332 809q-14 37 -29.5 50t-41.5 13h-21zM449 1602l190 321h233l-237 -321h-186z" />
<glyph unicode="&#xde;" horiz-adv-x="919" d="M35 -285h20q61 0 73.5 86t12.5 508q0 418 -2 615.5t-15 323.5t-31.5 149.5t-57.5 23.5v92h336l10 -92q-6 2 -25 2q-25 0 -39 -11t-20 -41t-7 -55.5t-1 -80.5q0 -94 12 -246h207q170 0 260 -114.5t90 -323.5q0 -197 -95 -312.5t-271 -115.5h-170q0 -373 22 -383 q29 -25 84 -25v-92h-393v92zM322 217h124q96 0 147.5 65.5t51.5 182.5v164q0 121 -53 193.5t-146 72.5h-40q-55 0 -67.5 -99.5t-14.5 -379.5q-2 -127 -2 -199z" />
<glyph unicode="&#xdf;" horiz-adv-x="860" d="M18 0v94h33q31 0 44.5 18.5t19.5 81t6 199.5q0 18 -1 395t-1 441q0 184 93 277t267 93q319 0 320 -366q0 -207 -47 -268q-37 -51 -101 -68q86 -45 133 -178t47 -279q0 -285 -90 -381q-74 -80 -194 -79q-100 0 -174 65l41 72q29 -27 88 -27t84 47q18 31 25 91.5t7 240.5 q0 283 -47 350q-29 41 -77 41h-54v78h56q23 0 39 8t31.5 31.5t23.5 79t8 139.5q0 203 -29 256q-33 55 -90 55q-98 0 -131 -71q-27 -59 -33 -137t-6 -345q0 -102 7.5 -489t7.5 -465h-306z" />
<glyph unicode="&#xe0;" horiz-adv-x="876" d="M20 219q0 76 29 125t101 92q35 23 122.5 66t133.5 69q96 59 112 80q0 172 -33 217q-33 49 -114 50q-49 0 -83 -18.5t-40 -47.5q90 -33 90 -139q0 -57 -37 -99.5t-92 -42.5q-59 0 -96 39t-37 113q0 127 93 205t226 78q164 0 234 -82q47 -55 62.5 -152.5t15.5 -325.5 q0 -256 10 -307q10 -45 39 -45q35 0 35 56v67h81v-76q0 -70 -42 -113.5t-115 -43.5q-98 0 -160 123q-90 -127 -242 -127q-143 0 -218 62t-75 177zM96 1460h236l188 -321h-184zM221 229q0 -61 42 -99t106 -38q115 0 157 125q0 158 -4 358q-20 -31 -50 -55t-77 -56t-61 -42 q-59 -45 -86 -84t-27 -109z" />
<glyph unicode="&#xe1;" horiz-adv-x="876" d="M20 219q0 76 29 125t101 92q35 23 122.5 66t133.5 69q96 59 112 80q0 172 -33 217q-33 49 -114 50q-49 0 -83 -18.5t-40 -47.5q90 -33 90 -139q0 -57 -37 -99.5t-92 -42.5q-59 0 -96 39t-37 113q0 127 93 205t226 78q164 0 234 -82q47 -55 62.5 -152.5t15.5 -325.5 q0 -256 10 -307q10 -45 39 -45q35 0 35 56v67h81v-76q0 -70 -42 -113.5t-115 -43.5q-98 0 -160 123q-90 -127 -242 -127q-143 0 -218 62t-75 177zM221 229q0 -61 42 -99t106 -38q115 0 157 125q0 158 -4 358q-20 -31 -50 -55t-77 -56t-61 -42q-59 -45 -86 -84t-27 -109z M289 1139l190 321h234l-238 -321h-186z" />
<glyph unicode="&#xe2;" horiz-adv-x="876" d="M20 219q0 76 29 125t101 92q35 23 122.5 66t133.5 69q96 59 112 80q0 172 -33 217q-33 49 -114 50q-49 0 -83 -18.5t-40 -47.5q90 -33 90 -139q0 -57 -37 -99.5t-92 -42.5q-59 0 -96 39t-37 113q0 127 93 205t226 78q164 0 234 -82q47 -55 62.5 -152.5t15.5 -325.5 q0 -256 10 -307q10 -45 39 -45q35 0 35 56v67h81v-76q0 -70 -42 -113.5t-115 -43.5q-98 0 -160 123q-90 -127 -242 -127q-143 0 -218 62t-75 177zM98 1139l217 321h205l217 -321h-170l-149 198l-148 -198h-172zM221 229q0 -61 42 -99t106 -38q115 0 157 125q0 158 -4 358 q-20 -31 -50 -55t-77 -56t-61 -42q-59 -45 -86 -84t-27 -109z" />
<glyph unicode="&#xe3;" horiz-adv-x="876" d="M20 219q0 76 29 125t101 92q35 23 122.5 66t133.5 69q96 59 112 80q0 172 -33 217q-33 49 -114 50q-49 0 -83 -18.5t-40 -47.5q90 -33 90 -139q0 -57 -37 -99.5t-92 -42.5q-59 0 -96 39t-37 113q0 127 93 205t226 78q164 0 234 -82q47 -55 62.5 -152.5t15.5 -325.5 q0 -256 10 -307q10 -45 39 -45q35 0 35 56v67h81v-76q0 -70 -42 -113.5t-115 -43.5q-98 0 -160 123q-90 -127 -242 -127q-143 0 -218 62t-75 177zM98 1298q37 51 94.5 88t104.5 37q51 0 127 -49t115 -49q76 0 157 94l37 -129q-25 -39 -80 -68.5t-98 -29.5q-51 0 -133 49 t-119 49q-82 0 -168 -119zM221 229q0 -61 42 -99t106 -38q115 0 157 125q0 158 -4 358q-20 -31 -50 -55t-77 -56t-61 -42q-59 -45 -86 -84t-27 -109z" />
<glyph unicode="&#xe4;" horiz-adv-x="876" d="M20 219q0 76 29 125t101 92q35 23 122.5 66t133.5 69q96 59 112 80q0 172 -33 217q-33 49 -114 50q-49 0 -83 -18.5t-40 -47.5q90 -33 90 -139q0 -57 -37 -99.5t-92 -42.5q-59 0 -96 39t-37 113q0 127 93 205t226 78q164 0 234 -82q47 -55 62.5 -152.5t15.5 -325.5 q0 -256 10 -307q10 -45 39 -45q35 0 35 56v67h81v-76q0 -70 -42 -113.5t-115 -43.5q-98 0 -160 123q-90 -127 -242 -127q-143 0 -218 62t-75 177zM104 1370.5q0 65.5 37 107.5t95 42q59 0 96 -42t37 -107.5t-37 -105.5t-96 -40q-57 0 -94.5 40t-37.5 105.5zM221 229 q0 -61 42 -99t106 -38q115 0 157 125q0 158 -4 358q-20 -31 -50 -55t-77 -56t-61 -42q-59 -45 -86 -84t-27 -109zM465 1370.5q0 65.5 37 107.5t96 42q57 0 94 -42t37 -107.5t-37 -105.5t-94 -40q-59 0 -96 40t-37 105.5z" />
<glyph unicode="&#xe5;" horiz-adv-x="876" d="M20 219q0 76 29 125t101 92q35 23 122.5 66t133.5 69q96 59 112 80q0 172 -33 217q-33 49 -114 50q-49 0 -83 -18.5t-40 -47.5q90 -33 90 -139q0 -57 -37 -99.5t-92 -42.5q-59 0 -96 39t-37 113q0 127 93 205t226 78q164 0 234 -82q47 -55 62.5 -152.5t15.5 -325.5 q0 -256 10 -307q10 -45 39 -45q35 0 35 56v67h81v-76q0 -70 -42 -113.5t-115 -43.5q-98 0 -160 123q-90 -127 -242 -127q-143 0 -218 62t-75 177zM199 1278q0 74 64.5 128t152.5 54t153.5 -53t65.5 -129q0 -80 -64.5 -130t-154.5 -50q-94 0 -155.5 51t-61.5 129zM221 229 q0 -61 42 -99t106 -38q115 0 157 125q0 158 -4 358q-20 -31 -50 -55t-77 -56t-61 -42q-59 -45 -86 -84t-27 -109zM346 1270q0 -115 70 -115q74 0 73 115q0 121 -73 121q-70 0 -70 -121z" />
<glyph unicode="&#xe6;" horiz-adv-x="1216" d="M20 219q0 76 29 125t101 92q35 23 122.5 66t133.5 69q96 59 112 80q0 172 -33 217q-33 49 -114 50q-49 0 -83 -18.5t-40 -47.5q90 -33 90 -139q0 -57 -37 -99.5t-92 -42.5q-59 0 -96 39t-37 113q0 127 93 205t226 78q164 0 234 -82q12 -16 16 -25q100 106 229 107 q143 0 223.5 -74t80.5 -215q0 -63 -32 -98t-132 -80l-279 -123q0 -242 47 -299q41 -47 92 -47q96 0 164 51t90 125l56 -13q-78 -254 -309 -253q-172 0 -275 170q-6 6 -8 14q-94 -184 -279 -184q-143 0 -218 62t-75 177zM221 229q0 -61 42 -99t106 -38q68 0 108.5 41 t73.5 129q-27 88 -27 223q0 61 2 93q-18 -35 -47.5 -59.5t-77 -53.5t-67.5 -43q-59 -45 -86 -84t-27 -109zM735 526l240 99q53 20 53 104q0 96 -33.5 140t-120.5 44q-59 0 -100 -55q-23 -25 -31 -87.5t-8 -244.5z" />
<glyph unicode="&#xe7;" horiz-adv-x="737" d="M43 483q0 299 123 426q92 96 227 97q152 0 227.5 -75t75.5 -198q0 -68 -37.5 -116t-93.5 -48q-57 0 -96 42t-39 102q0 55 26.5 95t71.5 50q-23 70 -135 70q-53 0 -94 -54q-27 -29 -36 -102.5t-9 -292.5q0 -186 8 -253.5t29 -94.5q49 -53 133 -53q82 0 144.5 50t78.5 120 l55 -15q-78 -254 -309 -253q-141 0 -237 112q-113 129 -113 391zM260 -205q0 51 37 89t94.5 38t93 -38t35.5 -101q0 -100 -54 -171t-136 -87l-19 43q94 37 107 98q-16 -8 -39 -8q-53 0 -86 35.5t-33 101.5z" />
<glyph unicode="&#xe8;" horiz-adv-x="735" d="M43 485q0 270 113 404q100 117 237 117q143 0 223 -74t80 -215q0 -63 -31.5 -98t-132.5 -80l-278 -123q0 -242 47 -299q41 -47 92 -47q96 0 164 51t90 125l55 -13q-78 -254 -309 -253q-172 0 -274 170q-76 122 -76 335zM70 1460h235l189 -321h-185zM254 526l240 99 q53 20 53 104q0 96 -34 140t-120 44q-57 0 -102 -55q-20 -25 -28.5 -88.5t-8.5 -243.5z" />
<glyph unicode="&#xe9;" horiz-adv-x="735" d="M43 485q0 270 113 404q100 117 237 117q143 0 223 -74t80 -215q0 -63 -31.5 -98t-132.5 -80l-278 -123q0 -242 47 -299q41 -47 92 -47q96 0 164 51t90 125l55 -13q-78 -254 -309 -253q-172 0 -274 170q-76 122 -76 335zM254 526l240 99q53 20 53 104q0 96 -34 140 t-120 44q-57 0 -102 -55q-20 -25 -28.5 -88.5t-8.5 -243.5zM260 1139l191 321h233l-238 -321h-186z" />
<glyph unicode="&#xea;" horiz-adv-x="735" d="M43 485q0 270 113 404q100 117 237 117q143 0 223 -74t80 -215q0 -63 -31.5 -98t-132.5 -80l-278 -123q0 -242 47 -299q41 -47 92 -47q96 0 164 51t90 125l55 -13q-78 -254 -309 -253q-172 0 -274 170q-76 122 -76 335zM68 1139l217 321h204l218 -321h-170l-150 198 l-147 -198h-172zM254 526l240 99q53 20 53 104q0 96 -34 140t-120 44q-57 0 -102 -55q-20 -25 -28.5 -88.5t-8.5 -243.5z" />
<glyph unicode="&#xeb;" horiz-adv-x="735" d="M43 485q0 270 113 404q100 117 237 117q143 0 223 -74t80 -215q0 -63 -31.5 -98t-132.5 -80l-278 -123q0 -242 47 -299q41 -47 92 -47q96 0 164 51t90 125l55 -13q-78 -254 -309 -253q-172 0 -274 170q-76 122 -76 335zM78 1370.5q0 65.5 37 107.5t94 42q59 0 96 -42 t37 -107.5t-37 -105.5t-96 -40q-57 0 -94 40t-37 105.5zM254 526l240 99q53 20 53 104q0 96 -34 140t-120 44q-57 0 -102 -55q-20 -25 -28.5 -88.5t-8.5 -243.5zM438 1370.5q0 65.5 37 107.5t96 42q57 0 94 -42t37 -107.5t-36.5 -105.5t-94.5 -40q-59 0 -96 40t-37 105.5z " />
<glyph unicode="&#xec;" horiz-adv-x="483" d="M-72 1460h236l188 -321h-184zM51 891v92h305q-12 -123 -12 -512q0 -215 5 -267t30 -85q20 -25 49 -25h16v-94h-393v94h31q37 0 51 43q16 41 20.5 120t4.5 405q0 170 -39 202q-27 27 -56 27h-12z" />
<glyph unicode="&#xed;" horiz-adv-x="489" d="M39 891v92h305q-12 -123 -12 -512q0 -215 5 -267t30 -85q20 -25 49 -25h16v-94h-393v94h31q37 0 51 43q16 41 20 120t4 405q0 170 -39 202q-27 27 -55 27h-12zM109 1139l190 321h233l-237 -321h-186z" />
<glyph unicode="&#xee;" horiz-adv-x="589" d="M-27 1139l217 321h205l217 -321h-170l-149 198l-148 -198h-172zM96 891v92h305q-12 -123 -12 -512q0 -215 5 -267t30 -85q20 -25 49 -25h16v-94h-393v94h31q37 0 51 43q16 41 20.5 120t4.5 405q0 170 -39 202q-27 27 -55 27h-13z" />
<glyph unicode="&#xef;" horiz-adv-x="595" d="M-18 1370.5q0 65.5 36.5 107.5t94.5 42q59 0 96 -42t37 -107.5t-37 -105.5t-96 -40q-57 0 -94 40t-37 105.5zM96 891v92h305q-12 -123 -12 -512q0 -215 5 -267t30 -85q20 -25 49 -25h16v-94h-393v94h31q37 0 51 43q16 41 20.5 120t4.5 405q0 170 -39 202q-27 27 -55 27 h-13zM342 1370.5q0 65.5 37 107.5t96 42q57 0 94 -42t37 -107.5t-37 -105.5t-94 -40q-59 0 -96 40t-37 105.5z" />
<glyph unicode="&#xf0;" horiz-adv-x="802" d="M43 483q0 176 31.5 271.5t97.5 158.5q96 92 221 93q74 0 135 -31q-12 186 -67 309l-260 -213l-49 66l268 219q-70 100 -219 184l24 59q178 -57 289 -165l119 98l49 -66l-115 -94q61 -84 100.5 -188.5t54.5 -234.5t19 -223t4 -247q0 -156 -29.5 -244t-88.5 -153 q-92 -102 -234 -102q-147 0 -241 110q-57 63 -83 146t-26 247zM254 483q0 -201 10 -270.5t31 -95.5q37 -47 98.5 -47t95.5 45q23 27 32 95.5t9 272.5q0 219 -8 290t-30 95q-37 45 -98.5 45t-98.5 -45q-23 -25 -32 -96.5t-9 -288.5z" />
<glyph unicode="&#xf1;" horiz-adv-x="927" d="M31 0v94h30q41 0 55.5 41t14.5 451q0 174 -2 218t-14 56q-31 31 -64 31h-20v92h55q76 0 107.5 -20.5t64.5 -75.5q86 119 260 119q156 0 230.5 -93.5t74.5 -212.5q0 -535 17 -583q8 -23 53 -23h22v-94h-393v94h29q39 0 49 17q25 31 25 413q0 184 -8.5 236.5t-38.5 91.5 q-33 43 -103 43q-66 0 -102 -49q-27 -33 -36 -99.5t-9 -232.5q0 -365 8 -387q12 -33 70 -33h20v-94h-395zM145 1298q37 51 94.5 88t104.5 37q53 0 127 -49t115 -49q76 0 157 94l37 -129q-25 -39 -80 -68.5t-98 -29.5q-49 0 -131 49t-121 49q-82 0 -168 -119z" />
<glyph unicode="&#xf2;" d="M43 483q0 176 31.5 271.5t97.5 158.5q96 92 221 93q121 0 215 -84q72 -61 104.5 -153.5t32.5 -289.5q0 -156 -29.5 -244t-88.5 -153q-92 -102 -234 -102q-147 0 -241 110q-57 63 -83 146t-26 247zM74 1460h235l189 -321h-185zM254 483q0 -201 10 -270.5t31 -95.5 q37 -47 98.5 -47t95.5 45q23 27 32 95.5t9 272.5q0 215 -9 288t-29 97q-39 45 -98.5 45t-98.5 -45q-23 -25 -32 -97.5t-9 -287.5z" />
<glyph unicode="&#xf3;" d="M43 483q0 176 31.5 271.5t97.5 158.5q96 92 221 93q121 0 215 -84q72 -61 104.5 -153.5t32.5 -289.5q0 -156 -29.5 -244t-88.5 -153q-92 -102 -234 -102q-147 0 -241 110q-57 63 -83 146t-26 247zM254 483q0 -201 10 -270.5t31 -95.5q37 -47 98.5 -47t95.5 45 q23 27 32 95.5t9 272.5q0 215 -9 288t-29 97q-39 45 -98.5 45t-98.5 -45q-23 -25 -32 -97.5t-9 -287.5zM266 1139l191 321h233l-237 -321h-187z" />
<glyph unicode="&#xf4;" d="M43 483q0 176 31.5 271.5t97.5 158.5q96 92 221 93q121 0 215 -84q72 -61 104.5 -153.5t32.5 -289.5q0 -156 -29.5 -244t-88.5 -153q-92 -102 -234 -102q-147 0 -241 110q-57 63 -83 146t-26 247zM74 1139l217 321h205l217 -321h-170l-150 198l-147 -198h-172zM254 483 q0 -201 10 -270.5t31 -95.5q37 -47 98.5 -47t95.5 45q23 27 32 95.5t9 272.5q0 215 -9 288t-29 97q-39 45 -98.5 45t-98.5 -45q-23 -25 -32 -97.5t-9 -287.5z" />
<glyph unicode="&#xf5;" d="M43 483q0 176 31.5 271.5t97.5 158.5q96 92 221 93q121 0 215 -84q72 -61 104.5 -153.5t32.5 -289.5q0 -156 -29.5 -244t-88.5 -153q-92 -102 -234 -102q-147 0 -241 110q-57 63 -83 146t-26 247zM76 1298q37 51 94 88t104 37q53 0 127 -49t115 -49q76 0 158 94l37 -129 q-25 -39 -80.5 -68.5t-98.5 -29.5q-49 0 -131 49t-120 49q-82 0 -168 -119zM254 483q0 -201 10 -270.5t31 -95.5q37 -47 98.5 -47t95.5 45q23 27 32 95.5t9 272.5q0 215 -9 288t-29 97q-39 45 -98.5 45t-98.5 -45q-23 -25 -32 -97.5t-9 -287.5z" />
<glyph unicode="&#xf6;" d="M43 483q0 176 31.5 271.5t97.5 158.5q96 92 221 93q121 0 215 -84q72 -61 104.5 -153.5t32.5 -289.5q0 -156 -29.5 -244t-88.5 -153q-92 -102 -234 -102q-147 0 -241 110q-57 63 -83 146t-26 247zM82 1370.5q0 65.5 37 107.5t94 42q59 0 96 -42t37 -107.5t-37 -105.5 t-96 -40q-57 0 -94 40t-37 105.5zM254 483q0 -201 10 -270.5t31 -95.5q37 -47 98.5 -47t95.5 45q23 27 32 95.5t9 272.5q0 215 -9 288t-29 97q-39 45 -98.5 45t-98.5 -45q-23 -25 -32 -97.5t-9 -287.5zM442 1370.5q0 65.5 37 107.5t96 42q57 0 94.5 -42t37.5 -107.5 t-37 -105.5t-95 -40q-59 0 -96 40t-37 105.5z" />
<glyph unicode="&#xf7;" horiz-adv-x="872" d="M33 680v119h807v-119h-807zM303 311q0 68 37 112t96 44q61 0 98 -44t37 -112q0 -70 -36.5 -112.5t-98.5 -42.5q-59 0 -96 42.5t-37 112.5zM303 1167q0 68 37 112t96 44q61 0 98 -44t37 -112q0 -70 -36.5 -112.5t-98.5 -42.5q-59 0 -96 42.5t-37 112.5z" />
<glyph unicode="&#xf8;" d="M-8 -182q84 141 147 286q-51 57 -73.5 139.5t-22.5 239.5q0 176 31.5 271.5t97.5 158.5q96 92 221 93q70 0 135 -31q53 121 78 225h193q-80 -141 -158 -309q53 -59 78.5 -149.5t25.5 -262.5q0 -156 -29.5 -244t-88.5 -153q-92 -102 -234 -102q-70 0 -141 30 q-41 -88 -70 -192h-190zM254 348q150 319 233 524q-35 41 -94 41q-61 0 -98 -45q-14 -14 -21.5 -37.5t-13.5 -105.5t-6 -229v-148zM291 117q43 -47 102 -47q61 0 96 45q23 27 32 95.5t9 272.5v174q-130 -270 -239 -540z" />
<glyph unicode="&#xf9;" horiz-adv-x="862" d="M16 891v92h398v-92h-31q-29 0 -47 -21q-16 -18 -20.5 -73.5t-4.5 -282.5q0 -201 6.5 -265.5t22.5 -101.5q20 -41 47 -56t74 -15q80 0 117 71q16 35 21 94.5t5 258.5q0 326 -14 358q-10 33 -66 33h-16v92h344v-92h-25q-39 0 -53 -27q-10 -16 -13 -80.5t-3 -324.5 q0 -276 -47 -357q-72 -123 -254 -122q-197 0 -281 102q-37 45 -51 128t-14 275q0 362 -15 383q-14 23 -80 23zM133 1460h236l188 -321h-184z" />
<glyph unicode="&#xfa;" horiz-adv-x="862" d="M16 891v92h398v-92h-31q-29 0 -47 -21q-16 -18 -20.5 -73.5t-4.5 -282.5q0 -201 6.5 -265.5t22.5 -101.5q20 -41 47 -56t74 -15q80 0 117 71q16 35 21 94.5t5 258.5q0 326 -14 358q-10 33 -66 33h-16v92h344v-92h-25q-39 0 -53 -27q-10 -16 -13 -80.5t-3 -324.5 q0 -276 -47 -357q-72 -123 -254 -122q-197 0 -281 102q-37 45 -51 128t-14 275q0 362 -15 383q-14 23 -80 23zM326 1139l190 321h234l-238 -321h-186z" />
<glyph unicode="&#xfb;" horiz-adv-x="862" d="M16 891v92h398v-92h-31q-29 0 -47 -21q-16 -18 -20.5 -73.5t-4.5 -282.5q0 -201 6.5 -265.5t22.5 -101.5q20 -41 47 -56t74 -15q80 0 117 71q16 35 21 94.5t5 258.5q0 326 -14 358q-10 33 -66 33h-16v92h344v-92h-25q-39 0 -53 -27q-10 -16 -13 -80.5t-3 -324.5 q0 -276 -47 -357q-72 -123 -254 -122q-197 0 -281 102q-37 45 -51 128t-14 275q0 362 -15 383q-14 23 -80 23zM131 1139l217 321h205l217 -321h-170l-149 198l-148 -198h-172z" />
<glyph unicode="&#xfc;" horiz-adv-x="862" d="M16 891v92h398v-92h-31q-29 0 -47 -21q-16 -18 -20.5 -73.5t-4.5 -282.5q0 -201 6.5 -265.5t22.5 -101.5q20 -41 47 -56t74 -15q80 0 117 71q16 35 21 94.5t5 258.5q0 326 -14 358q-10 33 -66 33h-16v92h344v-92h-25q-39 0 -53 -27q-10 -16 -13 -80.5t-3 -324.5 q0 -276 -47 -357q-72 -123 -254 -122q-197 0 -281 102q-37 45 -51 128t-14 275q0 362 -15 383q-14 23 -80 23zM139 1370.5q0 65.5 37 107.5t94 42q59 0 96 -42t37 -107.5t-36.5 -105.5t-96.5 -40q-57 0 -94 40t-37 105.5zM500 1370.5q0 65.5 36.5 107.5t96.5 42q57 0 94 -42 t37 -107.5t-37 -105.5t-94 -40q-59 0 -96 40t-37 105.5z" />
<glyph unicode="&#xfd;" horiz-adv-x="811" d="M-43 -219q0 72 36 115t95 43q55 0 88 -35t33 -101q0 -57 -32 -91t-89 -34q0 -29 25.5 -46t54.5 -17q70 0 108 59q29 39 43.5 87.5t57.5 222.5q-20 78 -128 432t-128 413q-12 37 -24.5 49.5t-41.5 12.5h-24v92h397v-92h-37q-55 0 -55 -45q0 -137 141 -586q119 449 127 574 q2 31 -9 44t-46 13h-31v92h270v-92h-12q-53 0 -71 -62q-12 -43 -101.5 -406.5t-111.5 -447.5q-55 -240 -121 -345t-191 -105q-119 0 -171 71.5t-52 184.5zM322 1139l190 321h233l-237 -321h-186z" />
<glyph unicode="&#xfe;" horiz-adv-x="851" d="M12 -383q63 0 82 21.5t19 93.5q0 18 -1 67t-1 84q0 135 1 574.5t1 472.5q0 352 -7 491q-8 45 -21 53.5t-73 8.5v94h305q-2 -63 -2 -221q0 -272 7 -400q70 43 135 43q145 0 247.5 -131t102.5 -305v-145q0 -178 -103.5 -308t-246.5 -130q-90 0 -150 83q-2 -94 -2 -200 q0 -119 11.5 -172t28.5 -63.5t63 -10.5v-92h-396v92zM315 303q0 -119 39 -176t103 -57q55 0 96 53t41 121v491q0 68 -39 121t-98 53q-61 0 -101.5 -53t-40.5 -121v-432z" />
<glyph unicode="&#xff;" horiz-adv-x="811" d="M-43 -219q0 72 36 115t95 43q55 0 88 -35t33 -101q0 -57 -32 -91t-89 -34q0 -29 25.5 -46t54.5 -17q70 0 108 59q29 39 43.5 87.5t57.5 222.5q-20 78 -128 432t-128 413q-12 37 -24.5 49.5t-41.5 12.5h-24v92h397v-92h-37q-55 0 -55 -45q0 -137 141 -586q119 449 127 574 q2 31 -9 44t-46 13h-31v92h270v-92h-12q-53 0 -71 -62q-12 -43 -101.5 -406.5t-111.5 -447.5q-55 -240 -121 -345t-191 -105q-119 0 -171 71.5t-52 184.5zM92 1370.5q0 65.5 37 107.5t94 42q59 0 96 -42t37 -107.5t-36.5 -105.5t-96.5 -40q-57 0 -94 40t-37 105.5z M453 1370.5q0 65.5 36.5 107.5t96.5 42q57 0 94 -42t37 -107.5t-37 -105.5t-94 -40q-59 0 -96 40t-37 105.5z" />
<glyph unicode="&#x152;" horiz-adv-x="1607" d="M51 530q0 422 35 606.5t121 272.5q117 123 328 123q86 0 159 -23h629v-213h-88q0 121 -57 121h-146q-49 0 -63.5 -10t-18.5 -53q-12 -127 -14 -590h141q72 0 72 121h86v-336h-86q0 125 -72 125h-143v-191q0 -573 16 -696q6 -43 82 -43h418q57 0 57 113h86v-234h-868 q-84 -25 -164 -24q-242 0 -366 125q-80 78 -112 240.5t-32 565.5zM264 530q0 -420 14.5 -554t51.5 -181q80 -102 213 -102q125 0 202 94q6 131 7 502q0 895 -11 1057q-74 94 -198 94q-137 0 -211 -109q-37 -55 -52.5 -203.5t-15.5 -597.5z" />
<glyph unicode="&#x153;" horiz-adv-x="1196" d="M43 483q0 176 31.5 271.5t97.5 158.5q96 92 221 93q66 0 133.5 -28t104.5 -77q98 104 225 105q143 0 223 -74t80 -215q0 -63 -31.5 -98t-132.5 -80l-280 -123q0 -238 47 -299q43 -47 94 -47q96 0 163.5 51t90.5 125l55 -13q-78 -254 -309 -253q-133 0 -227 104l-2 -2 q-92 -102 -234 -102q-147 0 -241 110q-57 63 -83 146t-26 247zM254 483q0 -201 10 -270.5t31 -95.5q37 -47 98 -47q119 0 158 135q-47 119 -47 280q0 178 45 295q-14 66 -47 99.5t-109 33.5q-61 0 -98 -45q-23 -25 -32 -96.5t-9 -288.5zM715 526l241 99q53 20 54 104 q0 96 -35 140t-119 44q-57 0 -102 -55q-20 -27 -29.5 -90.5t-9.5 -241.5z" />
<glyph unicode="&#x178;" horiz-adv-x="1058" d="M14 1417v92h426v-92h-37q-59 0 -59 -39q0 -10 8 -38.5t33 -93t47.5 -125t69.5 -185.5t84 -223q231 616 231 665q0 39 -43 39h-47v92h317v-92h-16q-27 0 -41 -13t-37 -61q-66 -133 -329 -788q0 -223 -1.5 -449.5t-1.5 -261.5q0 -80 17.5 -103.5t69.5 -23.5h36v-94h-440v94 h55q31 0 46.5 27t21.5 111q8 109 14 690q-98 285 -332 809q-14 37 -29.5 50t-41.5 13h-21zM215 1767.5q0 65.5 37 107.5t94 42q59 0 96 -42t37 -107.5t-36.5 -105.5t-96.5 -40q-57 0 -94 40t-37 105.5zM575 1767.5q0 65.5 37 107.5t97 42q57 0 94 -42t37 -107.5t-37 -105.5 t-94 -40q-59 0 -96.5 40t-37.5 105.5z" />
<glyph unicode="&#x2c6;" horiz-adv-x="673" d="M16 1139l217 321h205l217 -321h-170l-149 198l-148 -198h-172z" />
<glyph unicode="&#x2dc;" horiz-adv-x="688" d="M25 1298q37 51 94 88t104 37q51 0 127 -49t115 -49q76 0 158 94l36 -129q-25 -39 -80 -68.5t-98 -29.5q-51 0 -133 49t-119 49q-82 0 -168 -119z" />
<glyph unicode="&#x3bc;" horiz-adv-x="856" d="M29 891v92h395v-92h-31q-29 0 -45 -21q-18 -18 -22 -72.5t-4 -283.5v-332q63 -106 149 -106q129 0 143 155l4 453q0 137 -18 174q-10 33 -65 33h-17v92h344v-92h-24q-39 0 -54 -27q-10 -16 -13 -80.5t-3 -324.5v-144q0 -115 12 -176q8 -45 37 -45q35 0 35 56v67h84v-76 q0 -70 -42 -113.5t-116 -43.5q-98 0 -143 90q-41 -94 -168 -94q-76 0 -128 30.5t-95 108.5q4 -129 41 -245t37 -146q0 -129 -100.5 -129t-100.5 131v755q0 362 -15 383q-14 23 -77 23z" />
<glyph unicode="&#x2013;" horiz-adv-x="808" d="M37 539v168q272 -18 407 -19q184 0 326 19v-168q-172 12 -342 12q-198 0 -391 -12z" />
<glyph unicode="&#x2014;" horiz-adv-x="1425" d="M37 539v168q494 -18 751 -19q334 0 598 19v-168q-319 12 -630 12q-359 0 -719 -12z" />
<glyph unicode="&#x2018;" horiz-adv-x="442" d="M86 1337q0 115 55.5 197t141.5 102l16 -43q-92 -43 -115 -123q20 10 41 11q59 0 94 -41t35 -119q0 -61 -37.5 -103t-97 -42t-96.5 43.5t-37 117.5z" />
<glyph unicode="&#x2019;" horiz-adv-x="442" d="M86 1452q0 61 38 103t95 42q61 0 98 -44t37 -117q0 -115 -56 -197t-142 -102l-15 43q94 45 113 123q-16 -10 -41 -11q-57 0 -92 42t-35 118z" />
<glyph unicode="&#x201a;" horiz-adv-x="442" d="M86 150q0 59 38 102t95 43q61 0 98 -45t37 -119q0 -115 -56 -196.5t-142 -100.5l-15 43q94 41 113 123q-16 -10 -41 -10q-57 0 -92 42t-35 118z" />
<glyph unicode="&#x201c;" horiz-adv-x="800" d="M86 1337q0 115 55.5 197t141.5 102l16 -43q-92 -43 -115 -123q20 10 41 11q59 0 94 -41t35 -119q0 -61 -37.5 -103t-97 -42t-96.5 43.5t-37 117.5zM444 1337q0 115 55.5 197t141.5 102l16 -43q-92 -43 -114 -123q20 10 41 11q59 0 94 -41t35 -119q0 -61 -38 -103 t-97.5 -42t-96.5 43.5t-37 117.5z" />
<glyph unicode="&#x201d;" horiz-adv-x="800" d="M86 1452q0 61 38 103t95 42q61 0 98 -44t37 -117q0 -115 -56 -197t-142 -102l-15 43q94 45 113 123q-16 -10 -41 -11q-57 0 -92 42t-35 118zM444 1452q0 61 38 103t96 42q61 0 98 -44t37 -117q0 -115 -56.5 -197t-142.5 -102l-14 43q94 45 112 123q-16 -10 -41 -11 q-57 0 -92 42t-35 118z" />
<glyph unicode="&#x201e;" horiz-adv-x="800" d="M86 150q0 59 38 102t95 43q61 0 98 -45t37 -119q0 -115 -56 -196.5t-142 -100.5l-15 43q94 41 113 123q-16 -10 -41 -10q-57 0 -92 42t-35 118zM444 150q0 59 38 102t96 43q61 0 98 -45t37 -119q0 -115 -56.5 -196.5t-142.5 -100.5l-14 43q94 41 112 123q-16 -10 -41 -10 q-57 0 -92 42t-35 118z" />
<glyph unicode="&#x2022;" horiz-adv-x="651" d="M98 762q0 96 65.5 162.5t160 66.5t161 -67.5t66.5 -161.5t-66.5 -159.5t-161 -65.5t-160 65.5t-65.5 159.5z" />
<glyph unicode="&#x2026;" horiz-adv-x="1728" d="M100 139q0 68 37 112t96 44q61 0 98.5 -44t37.5 -112q0 -70 -37 -112.5t-99 -42.5q-59 0 -96 42.5t-37 112.5zM731 139q0 68 37 112t96 44q61 0 98 -44t37 -112q0 -70 -36.5 -112.5t-98.5 -42.5q-59 0 -96 42.5t-37 112.5zM1362 139q0 68 37 112t96 44q61 0 98 -44 t37 -112q0 -70 -37 -112.5t-98 -42.5q-59 0 -96 42.5t-37 112.5z" />
<glyph unicode="&#x2039;" horiz-adv-x="391" d="M35 588v205l321 217v-170l-241 -150l241 -139v-180z" />
<glyph unicode="&#x203a;" horiz-adv-x="391" d="M35 371v180l239 139l-239 150v170l321 -217v-205z" />
<glyph unicode="&#x20ac;" horiz-adv-x="991" d="M8 539l23 88h96q-2 31 -2 194h-117l23 88h98q16 295 104 432q127 190 377 191q156 0 251 -80t95 -197q0 -63 -37.5 -110t-95.5 -47q-59 0 -93 34.5t-34 102.5q0 59 20.5 91t71.5 54q-53 59 -170 60q-123 0 -196 -90q-39 -47 -57.5 -137.5t-24.5 -303.5h467l-21 -88h-448 v-194h389l-25 -88h-362q4 -279 53 -349q79 -119 225 -118q201 0 250 164l66 -11q-88 -246 -318 -245q-195 0 -311 98q-78 63 -120 167.5t-56 293.5h-121z" />
<glyph unicode="&#x2122;" horiz-adv-x="1501" d="M39 1386v123h569v-123h-61q0 29 -12.5 40.5t-51.5 11.5h-55q-35 0 -39 -15q-8 -18 -8 -268q0 -307 8 -332q4 -14 39 -14h37v-66h-295v66h39q27 0 37 14q8 18 8 359q0 223 -8 241q-10 14 -37 15h-74q-39 0 -39 -52h-57zM672 743v68h12q45 0 47 6q14 29 14 266v166 q0 152 -16 181q-12 14 -47 14h-10v65h217q49 -244 166 -606q94 219 202 606h181v-65h-13q-35 0 -47 -21q-16 -35 -16 -266q0 -268 12 -323q4 -25 49 -25h15v-66h-264v66h12q49 0 51 25q10 215 10 340q0 39 -2 63v25q-82 -240 -166 -519h-112q-14 57 -77 251t-89 266 q0 -12 -1 -37t-1 -37q0 -150 10 -355q2 -23 49 -22h16v-66h-202z" />
<glyph unicode="&#xe000;" horiz-adv-x="985" d="M0 985h985v-985h-985v985z" />
<glyph unicode="&#xfb01;" horiz-adv-x="1095" d="M18 891v92h123v180q0 246 73 341t210 95q100 0 175 -72.5t75 -223.5q0 -59 -35 -99.5t-90 -40.5t-92 43t-37 103q0 109 96 143q-6 59 -80 59q-68 0 -94.5 -74.5t-26.5 -277.5v-176h158v-92h-160v-176q0 -463 19 -559q8 -39 24.5 -50.5t65.5 -11.5h29v-94h-422v94h30 q23 0 34 10.5t20 38.5q18 55 23 152.5t5 425.5v170h-123zM664 891v92h305q-12 -123 -13 -512q0 -215 5.5 -267t29.5 -85q20 -25 49 -25h17v-94h-393v94h30q37 0 51 43q16 41 20.5 120t4.5 405q0 170 -39 202q-27 27 -55 27h-12zM721 1370.5q0 65.5 37 107.5t94 42 q59 0 96 -42t37 -107.5t-37 -105.5t-96 -40q-57 0 -94 40t-37 105.5z" />
<glyph unicode="&#xfb02;" horiz-adv-x="1124" d="M18 891v92h123v180q0 246 73 341t210 95q100 0 175 -72.5t75 -223.5q0 -59 -35 -99.5t-90 -40.5t-92 43t-37 103q0 109 96 143q-6 59 -80 59q-68 0 -94.5 -74.5t-26.5 -277.5v-176h158v-92h-160v-176q0 -463 19 -559q8 -39 24.5 -50.5t65.5 -11.5h29v-94h-422v94h30 q23 0 34 10.5t20 38.5q18 55 23 152.5t5 425.5v170h-123zM690 1487v90h303q0 -39 -3 -132t-5 -231.5t-2 -341.5q0 -651 10 -716q6 -35 18.5 -48.5t43.5 -13.5h30v-94h-395v94h33q31 0 43 41q18 55 24.5 189.5t6.5 558.5q0 473 -15 538q-8 41 -19 53.5t-48 12.5h-25z" />
<glyph unicode="&#xfb03;" horiz-adv-x="1773" d="M1341 891v92h305q-12 -123 -12 -512q0 -215 5 -267t30 -85q20 -25 49 -25h16v-94h-393v94h31q37 0 51 43q16 41 20 120t4 405q0 170 -39 202q-27 27 -55 27h-12zM1398 1370.5q0 65.5 37 107.5t94 42q59 0 96 -42t37 -107.5t-36.5 -105.5t-96.5 -40q-57 0 -94 40 t-37 105.5zM669 891v92h123v180q0 246 73 341t210 95q100 0 175 -72.5t75 -223.5q0 -59 -35 -99.5t-90 -40.5t-92 43t-37 103q0 109 96 143q-6 59 -80 59q-68 0 -94.5 -74.5t-26.5 -277.5v-176h158v-92h-160v-176q0 -463 19 -559q8 -39 24.5 -50.5t65.5 -11.5h29v-94h-422 v94h30q23 0 34 10.5t20 38.5q18 55 23 152.5t5 425.5v170h-123zM18 891v92h123v180q0 246 73 341t210 95q100 0 175 -72.5t75 -223.5q0 -59 -35 -99.5t-90 -40.5t-92 43t-37 103q0 109 96 143q-6 59 -80 59q-68 0 -94.5 -74.5t-26.5 -277.5v-176h158v-92h-160v-176 q0 -463 19 -559q8 -39 24.5 -50.5t65.5 -11.5h29v-94h-422v94h30q23 0 34 10.5t20 38.5q18 55 23 152.5t5 425.5v170h-123z" />
<glyph unicode="&#xfb04;" horiz-adv-x="1775" d="M1341 1487v90h303q0 -39 -3 -132t-5 -231.5t-2 -341.5q0 -651 10 -716q6 -35 18.5 -48.5t42.5 -13.5h31v-94h-395v94h33q31 0 43 41q18 55 24 189.5t6 558.5q0 473 -14 538q-8 41 -19.5 53.5t-48.5 12.5h-24zM669 891v92h123v180q0 246 73 341t210 95q100 0 175 -72.5 t75 -223.5q0 -59 -35 -99.5t-90 -40.5t-92 43t-37 103q0 109 96 143q-6 59 -80 59q-68 0 -94.5 -74.5t-26.5 -277.5v-176h158v-92h-160v-176q0 -463 19 -559q8 -39 24.5 -50.5t65.5 -11.5h29v-94h-422v94h30q23 0 34 10.5t20 38.5q18 55 23 152.5t5 425.5v170h-123zM18 891 v92h123v180q0 246 73 341t210 95q100 0 175 -72.5t75 -223.5q0 -59 -35 -99.5t-90 -40.5t-92 43t-37 103q0 109 96 143q-6 59 -80 59q-68 0 -94.5 -74.5t-26.5 -277.5v-176h158v-92h-160v-176q0 -463 19 -559q8 -39 24.5 -50.5t65.5 -11.5h29v-94h-422v94h30q23 0 34 10.5 t20 38.5q18 55 23 152.5t5 425.5v170h-123z" />
</font>
</defs>
</svg>
