<?xml version="1.0" standalone="no"?>
<!DOCTYPE svg PUBLIC "-//W3C//DTD SVG 1.1//EN" "http://www.w3.org/Graphics/SVG/1.1/DTD/svg11.dtd" >
<svg xmlns="http://www.w3.org/2000/svg">
<metadata>
This is a custom SVG webfont generated by Fontspring.
</metadata>
<defs>
<font id="NeuropoliticalRegular" horiz-adv-x="1818" >
<font-face units-per-em="2048" ascent="1597" descent="-451" />
<missing-glyph horiz-adv-x="813" />
<glyph unicode=" "  horiz-adv-x="813" />
<glyph unicode="&#x09;" horiz-adv-x="813" />
<glyph unicode="&#xa0;" horiz-adv-x="813" />
<glyph unicode="!" horiz-adv-x="581" d="M444 424h-309v973h309v-973zM340 0h-100q-57 0 -81 21.5t-24 70.5v119q0 49 24.5 71.5t80.5 22.5h100q55 0 79.5 -22.5t24.5 -71.5v-119q0 -49 -23.5 -70.5t-80.5 -21.5z" />
<glyph unicode="&#x22;" horiz-adv-x="856" d="M328 932h-211l-31 541h276zM735 932h-211l-30 541h276z" />
<glyph unicode="#" horiz-adv-x="1347" d="M733 0l45 328h-311l-45 -328h-201l43 328h-215l29 200h215l45 328h-219l28 201h218l47 340h202l-47 -340h312l47 340h198l-47 -340h217l-26 -201h-219l-43 -328h217l-27 -200h-219l-45 -328h-199zM539 856l-45 -328h313l43 328h-311z" />
<glyph unicode="$" horiz-adv-x="1710" d="M1190 0h-215v-150h-219v150h-643v260h643v328h-232q-238 0 -323.5 74.5t-85.5 271.5v70q0 227 95 310t325 83h221v102h219v-680h203q244 0 340 -80t96 -288v-89q0 -197 -96.5 -279.5t-327.5 -82.5zM756 819v316h-207q-94 0 -125 -29t-31 -117v-35q0 -80 30 -107.5 t118 -27.5h215zM1335 401v48q0 82 -33.5 110.5t-136.5 28.5h-190v-328h203q94 0 125.5 29.5t31.5 111.5z" />
<glyph unicode="%" horiz-adv-x="2148" d="M653 719h-276q-156 0 -213.5 53t-57.5 186v220q0 133 57.5 186t213.5 53h276q156 0 214.5 -53t58.5 -186v-220q0 -133 -58.5 -186t-214.5 -53zM733 971v192q0 51 -19.5 69.5t-72.5 18.5h-250q-55 0 -74.5 -18.5t-19.5 -69.5v-192q0 -51 19.5 -69.5t74.5 -18.5h250 q53 0 72.5 18.5t19.5 69.5zM696 0h-237l981 1397h237zM1769 -20h-276q-156 0 -213 53t-57 186v219q0 133 57 186.5t213 53.5h276q156 0 214.5 -53.5t58.5 -186.5v-219q0 -133 -58.5 -186t-214.5 -53zM1849 231v193q0 51 -19.5 69.5t-72.5 18.5h-250q-55 0 -74.5 -18.5 t-19.5 -69.5v-193q0 -51 19.5 -69.5t74.5 -18.5h250q53 0 72.5 18.5t19.5 69.5z" />
<glyph unicode="&#x26;" horiz-adv-x="1904" d="M1544 0l-123 80q-150 -80 -471 -80h-432q-223 0 -325.5 85t-102.5 224v131q0 143 64.5 211t240.5 107q-90 55 -127 108.5t-37 128.5v144q0 133 84 195.5t260 62.5h469q369 0 369 -281v-90q0 -225 -239 -283l-287 -69l489 -312q59 80 60 236v82h270v-88q0 -229 -113 -373 l336 -219h-385zM1006 1165h-404q-59 0 -82.5 -20.5t-23.5 -71.5v-45q0 -63 15 -92t71 -64l77 -49l377 88q53 12 72.5 32t19.5 71v73q0 43 -27 60.5t-95 17.5zM1004 244q92 0 155 14l-538 348q-143 -29 -186.5 -58.5t-43.5 -113.5v-90q0 -51 33 -75.5t111 -24.5h469z" />
<glyph unicode="'" horiz-adv-x="448" d="M328 932h-211l-31 541h276z" />
<glyph unicode="(" horiz-adv-x="735" d="M709 -451h-64q-207 0 -317.5 109t-110.5 291v1403q0 182 110.5 290.5t317.5 108.5h64v-164h-66q-223 0 -223 -233v-1409q0 -233 223 -234h66v-162z" />
<glyph unicode=")" horiz-adv-x="735" d="M281 -451h-64v162h66q223 0 223 234v1409q0 233 -223 233h-66v164h64q207 0 317.5 -108.5t110.5 -290.5v-1403q0 -182 -110.5 -291t-317.5 -109z" />
<glyph unicode="*" horiz-adv-x="1161" d="M702 1008l244 -312l-145 -106l-221 328l-224 -328l-147 104l246 314l-385 112l55 172l377 -139l-15 403h183l-17 -403l377 139l57 -172z" />
<glyph unicode="+" horiz-adv-x="1208" d="M705 240h-201v383h-383v200h383v383h201v-383h382v-200h-382v-383z" />
<glyph unicode="," horiz-adv-x="481" d="M311 -150h-227l47 500h299z" />
<glyph unicode="-" horiz-adv-x="811" d="M743 532h-675v242h675v-242z" />
<glyph unicode="." horiz-adv-x="552" d="M326 0h-101q-57 0 -80.5 21.5t-23.5 70.5v168q0 49 24.5 70.5t79.5 21.5h101q57 0 81.5 -21.5t24.5 -70.5v-168q0 -49 -24.5 -70.5t-81.5 -21.5z" />
<glyph unicode="/" horiz-adv-x="1044" d="M254 -207h-246l785 1675h243z" />
<glyph unicode="0" horiz-adv-x="1832" d="M1188 0h-545q-305 0 -418.5 105.5t-113.5 373.5v439q0 268 113.5 373.5t418.5 105.5h545q305 0 419.5 -105.5t114.5 -373.5v-439q0 -268 -114.5 -373.5t-419.5 -105.5zM1411 492v411q0 131 -49 178t-186 47h-519q-145 0 -191 -46t-46 -179v-411q0 -137 45 -181.5 t192 -44.5h519q139 0 187 45.5t48 180.5z" />
<glyph unicode="1" horiz-adv-x="552" d="M432 0h-311v1397h311v-1397z" />
<glyph unicode="2" horiz-adv-x="1878" d="M1767 0h-1667v444q0 207 91.5 294t345.5 87h806q80 0 109 28t29 105v35q0 82 -27 111t-102 29h-512v264h532q209 0 302 -91.5t93 -304.5v-69q0 -195 -87 -268.5t-316 -73.5h-813q-96 0 -131 -33t-35 -125v-168h1382v-264z" />
<glyph unicode="3" horiz-adv-x="1849" d="M1272 1139h-441v258h449q250 0 354.5 -75t104.5 -253v-104q0 -205 -154 -248q84 -20 128 -85t44 -206v-113q0 -170 -102.5 -241.5t-347.5 -71.5h-1215v258h1208q92 0 129 22.5t37 86.5v82q0 84 -33.5 112.5t-121.5 28.5h-1211v235h1203q82 0 112.5 26t30.5 95v86 q0 61 -37 84t-137 23z" />
<glyph unicode="4" horiz-adv-x="1980" d="M1821 0h-303v391h-1407v1006h305v-740h1102v740h303v-1397z" />
<glyph unicode="5" horiz-adv-x="1929" d="M1391 0h-1268v264h1239q104 0 141 25.5t37 97.5v90q0 68 -36 100.5t-130 32.5h-1253v787h1014v-264h-729v-281h985q236 0 335 -82t99 -276v-125q0 -199 -99 -284t-335 -85z" />
<glyph unicode="6" horiz-adv-x="1933" d="M1448 0h-805q-305 0 -418.5 105.5t-113.5 373.5v439q0 268 113.5 373.5t418.5 105.5h442v-264h-432q-135 0 -184 -44.5t-49 -170.5v-70h1028q205 0 295 -97.5t90 -283.5v-86q0 -197 -89 -289t-296 -92zM1524 393v78q0 80 -30 111.5t-103 31.5h-971v-141q0 -135 55 -174 t236 -39h680q70 0 101.5 31.5t31.5 101.5z" />
<glyph unicode="7" horiz-adv-x="1851" d="M807 0h-399l950 1126h-1295v271h1547q78 0 122 -40t44 -104q0 -74 -62 -147z" />
<glyph unicode="8" horiz-adv-x="1847" d="M1296 0h-745q-246 0 -349.5 71.5t-103.5 241.5v113q0 139 45 204.5t127 86.5q-154 43 -153 248v104q0 178 104.5 253t356.5 75h692q250 0 354.5 -75t104.5 -253v-104q0 -115 -39 -171.5t-113 -76.5q82 -20 126 -85t44 -206v-113q0 -170 -102.5 -241.5t-348.5 -71.5z M1303 598h-758q-86 0 -120 -31.5t-34 -115.5v-82q0 -68 41 -88.5t148 -20.5h688q104 0 146 20.5t42 88.5v82q0 84 -33.5 115.5t-119.5 31.5zM1239 1137h-631q-117 0 -157.5 -20.5t-40.5 -86.5v-86q0 -70 31.5 -98.5t111.5 -28.5h741q80 0 112 28.5t32 98.5v86q0 66 -42 86.5 t-157 20.5z" />
<glyph unicode="9" horiz-adv-x="1921" d="M477 1397h801q303 0 417.5 -101.5t114.5 -347.5v-469q0 -268 -113.5 -373.5t-418.5 -105.5h-438v260h428q135 0 184 44t49 171v55h-1024q-387 0 -387 381v103q0 197 90 290t297 93zM401 997v-90q0 -78 29 -109.5t105 -31.5h966v176q0 119 -41 155t-182 36h-743 q-70 0 -102 -33t-32 -103z" />
<glyph unicode=":" horiz-adv-x="552" d="M326 0h-101q-57 0 -80.5 21.5t-23.5 70.5v168q0 49 24.5 70.5t79.5 21.5h101q57 0 81.5 -21.5t24.5 -70.5v-168q0 -49 -24.5 -70.5t-81.5 -21.5zM326 735h-101q-55 0 -79.5 22.5t-24.5 71.5v166q0 49 24.5 72t79.5 23h101q57 0 81.5 -23t24.5 -72v-166q0 -49 -24.5 -71.5 t-81.5 -22.5z" />
<glyph unicode=";" horiz-adv-x="552" d="M313 -150h-227l47 500h299zM326 735h-103q-55 0 -79.5 22.5t-24.5 71.5v166q0 49 24.5 72t79.5 23h103q55 0 79.5 -23t24.5 -72v-166q0 -49 -24.5 -71.5t-79.5 -22.5z" />
<glyph unicode="&#x3c;" horiz-adv-x="1208" d="M121 674q0 80 92 133l874 481v-231l-710 -383l710 -387v-232l-874 484q-92 49 -92 135z" />
<glyph unicode="=" horiz-adv-x="1208" d="M1087 874h-966v201h966v-201zM1087 373h-966v198h966v-198z" />
<glyph unicode="&#x3e;" horiz-adv-x="1208" d="M1087 674q0 -86 -92 -135l-874 -484v232l710 387l-710 383v231l874 -481q92 -53 92 -133z" />
<glyph unicode="?" horiz-adv-x="1218" d="M778 578h-282q-51 0 -70.5 -21.5t-19.5 -73.5v-59h-304v86q0 158 77 225.5t270 67.5h299q66 0 96 29.5t30 105.5v57q0 78 -31.5 109t-105.5 31h-307v262h328q213 0 307 -90t94 -299v-78q0 -193 -81 -272.5t-300 -79.5zM307 0h-100q-57 0 -81 21.5t-24 70.5v119 q0 49 25 71.5t80 22.5h100q57 0 82 -22.5t25 -71.5v-119q0 -49 -25 -70.5t-82 -21.5z" />
<glyph unicode="@" horiz-adv-x="1515" d="M813 -332h-330q-207 0 -284.5 73t-77.5 255v987q0 182 77.5 255t284.5 73h576q207 0 282.5 -73t75.5 -255v-530q0 -182 -77.5 -254t-286.5 -72h-113q-207 0 -283.5 70.5t-76.5 255.5v98q0 184 76.5 256t283.5 72h252v96q0 76 -28.5 103.5t-112.5 27.5h-562 q-78 0 -108.5 -29.5t-30.5 -105.5v-959q0 -80 33 -111.5t115 -31.5h315v-201zM1042 319q82 0 116 31t34 107v223h-240q-84 0 -114.5 -28.5t-30.5 -106.5v-88q0 -78 31.5 -108t113.5 -30h90z" />
<glyph unicode="A" horiz-adv-x="2119" d="M1743 0l-203 322h-967l-198 -322h-359l811 1290q41 68 94.5 102.5t141.5 34.5q86 0 139 -34.5t94 -102.5l807 -1290h-360zM1057 1112l-338 -551h676z" />
<glyph unicode="B" horiz-adv-x="1837" d="M119 0v1397h1177q240 0 340.5 -72t100.5 -246v-114q0 -115 -39 -171.5t-113 -76.5q84 -16 127 -81t43 -210v-123q0 -166 -100.5 -234.5t-337.5 -68.5h-1198zM1311 596h-881v-342h870q90 0 127 24.5t37 88.5v86q0 84 -33.5 113.5t-119.5 29.5zM1272 1143h-842v-322h873 q82 0 112.5 26.5t30.5 96.5v88q0 63 -38 87t-136 24z" />
<glyph unicode="C" horiz-adv-x="1691" d="M1612 0h-969q-305 0 -418.5 105.5t-113.5 373.5v439q0 268 113.5 373.5t418.5 105.5h969v-269h-955q-141 0 -189 -48t-48 -179v-409q0 -131 48 -178.5t191 -47.5h953v-266z" />
<glyph unicode="D" horiz-adv-x="1873" d="M1227 0h-1106v1397h1106q307 0 421.5 -105.5t114.5 -373.5v-439q0 -268 -114.5 -373.5t-421.5 -105.5zM1452 489v414q0 129 -50 177t-188 48h-782v-862h782q129 0 183.5 47t54.5 176z" />
<glyph unicode="E" horiz-adv-x="1697" d="M1618 0h-975q-305 0 -418.5 105.5t-113.5 373.5v439q0 268 113.5 373.5t418.5 105.5h344v-264h-344q-133 0 -178 -46.5t-45 -168.5v-95h1190v-248h-1190v-98q0 -127 44 -170t179 -43h975v-264z" />
<glyph unicode="F" horiz-adv-x="1648" d="M1602 524h-1178v-524h-309v918q0 268 113.5 373.5t418.5 105.5h328v-269h-320q-127 0 -179 -53t-52 -176v-111h1178v-264z" />
<glyph unicode="G" horiz-adv-x="1826" d="M1194 0h-551q-305 0 -418.5 105.5t-113.5 373.5v439q0 268 113.5 373.5t418.5 105.5h365v-269h-351q-139 0 -188 -48t-49 -177v-411q0 -135 49 -180.5t188 -45.5h527q135 0 185 46t50 192v323h312v-348q0 -268 -115 -373.5t-422 -105.5z" />
<glyph unicode="H" horiz-adv-x="1886" d="M1765 0h-309v557h-1024v-557h-311v1397h311v-570h1024v570h309v-1397z" />
<glyph unicode="I" horiz-adv-x="559" d="M434 0h-311v1397h311v-1397z" />
<glyph unicode="J" horiz-adv-x="1048" d="M397 0h-362v266h338q147 0 198.5 50.5t51.5 177.5v903h311v-918q0 -268 -115 -373.5t-422 -105.5z" />
<glyph unicode="K" horiz-adv-x="1642" d="M1634 0h-426l-778 682v-682h-309v1397h309v-668l762 668h420l-799 -678z" />
<glyph unicode="L" horiz-adv-x="1544" d="M1503 0h-856q-305 0 -418.5 105.5t-113.5 373.5v918h309v-905q0 -125 53 -175.5t197 -50.5h829v-266z" />
<glyph unicode="M" horiz-adv-x="2441" d="M2324 0h-286v920l-682 -891q-47 -59 -137.5 -59.5t-137.5 59.5l-680 891v-920h-282v1300q0 63 46 95t122 32q98 0 147 -65l789 -1047l794 1047q51 66 140 65q76 0 121.5 -31.5t45.5 -95.5v-1300z" />
<glyph unicode="N" horiz-adv-x="1867" d="M1595 -31q-102 0 -170 66l-1017 958v-993h-289v1298q0 63 45 96t121 33q94 0 145 -51l1026 -989v1010h295v-1299q0 -129 -156 -129z" />
<glyph unicode="O" d="M1174 0h-531q-305 0 -418.5 105.5t-113.5 373.5v439q0 268 113.5 373.5t418.5 105.5h531q305 0 419.5 -105.5t114.5 -373.5v-439q0 -268 -114.5 -373.5t-419.5 -105.5zM1397 492v411q0 131 -49.5 178t-186.5 47h-504q-145 0 -191 -46t-46 -179v-411q0 -137 45 -181.5 t192 -44.5h504q139 0 187.5 45.5t48.5 180.5z" />
<glyph unicode="P" horiz-adv-x="1837" d="M1239 399h-807v-399h-311v1397h1118q297 0 410.5 -100.5t113.5 -350.5v-121q0 -250 -108.5 -338t-415.5 -88zM1452 838v96q0 113 -47 153.5t-174 40.5h-799v-477h803q125 0 171 39t46 148z" />
<glyph unicode="Q" d="M1812 -201h-382l-201 215h-586q-307 0 -420.5 102.5t-113.5 368.5v433q0 268 114.5 373.5t419.5 105.5h531q305 0 419.5 -105.5t114.5 -373.5v-433q0 -158 -37 -254t-123 -147zM1397 498v405q0 131 -49.5 178t-186.5 47h-504q-145 0 -191 -46t-46 -179v-356 q0 -172 41 -223.5t196 -51.5h504q139 0 187.5 45.5t48.5 180.5z" />
<glyph unicode="R" horiz-adv-x="1859" d="M1782 0h-537l-817 508v-508h-309v1397h1093q303 0 427 -88t124 -332v-96q0 -233 -128 -320.5t-427 -87.5h-245zM1452 885v76q0 109 -51 141.5t-209 32.5h-764v-426h764q156 0 208 32.5t52 143.5z" />
<glyph unicode="S" horiz-adv-x="1656" d="M1157 0h-1077v264h1061q86 0 121.5 25.5t35.5 93.5v76q0 66 -36.5 93.5t-118.5 27.5h-666q-227 0 -311 82.5t-84 271.5v70q0 213 92 303t303 90h434v-264h-405q-74 0 -106.5 -30t-32.5 -110v-45q0 -66 30.5 -93.5t106.5 -27.5h653q231 0 328.5 -81.5t97.5 -272.5v-111 q0 -197 -97.5 -279.5t-328.5 -82.5z" />
<glyph unicode="T" horiz-adv-x="1564" d="M938 0h-313v1128h-586v269h1485v-269h-586v-1128z" />
<glyph unicode="U" d="M1171 0h-524q-305 0 -418.5 105.5t-113.5 373.5v918h313v-908q0 -127 54.5 -175t195.5 -48h469q141 0 195.5 48t54.5 178v905h309v-918q0 -268 -115 -373.5t-420 -105.5z" />
<glyph unicode="V" horiz-adv-x="2099" d="M2083 1397l-807 -1295q-41 -68 -92 -100.5t-137 -32.5t-137.5 32t-92.5 101l-803 1295h377l662 -1080l659 1080h371z" />
<glyph unicode="W" horiz-adv-x="2754" d="M1780 102l-406 902l-428 -902q-66 -133 -198 -133q-131 0 -187 133l-543 1295h347l409 -1010l416 916q31 70 72 97t116.5 27t118.5 -27.5t72 -96.5l399 -916l424 1010h340l-571 -1295q-59 -133 -185 -133q-137 0 -196 133z" />
<glyph unicode="X" horiz-adv-x="2066" d="M2052 0h-453l-575 535l-573 -535h-435l803 723l-758 674h449l532 -496l562 496h424l-760 -672z" />
<glyph unicode="Y" horiz-adv-x="1972" d="M1139 0h-312v659l-819 738h420l563 -498l574 498h397l-823 -742v-655z" />
<glyph unicode="Z" horiz-adv-x="1726" d="M1614 1253q0 -76 -60 -129l-979 -858h1076v-266h-1442q-63 0 -99 38t-36 99q0 78 63 133l1000 858h-1031v269h1373q63 0 99 -41.5t36 -102.5z" />
<glyph unicode="[" horiz-adv-x="743" d="M715 -451h-498v2202h498v-162h-295v-1878h295v-162z" />
<glyph unicode="\" horiz-adv-x="1044" d="M1036 -207h-248l-780 1675h244z" />
<glyph unicode="]" horiz-adv-x="743" d="M715 -451h-498v162h295v1878h-295v162h498v-2202z" />
<glyph unicode="^" horiz-adv-x="1269" d="M633 1427q94 0 141 -98l436 -870h-245l-332 671l-332 -671h-244l437 870q47 98 139 98z" />
<glyph unicode="_" horiz-adv-x="1372" d="M1378 -285h-1382v203h1382v-203z" />
<glyph unicode="`" horiz-adv-x="819" d="M698 1255h-254l-323 447h319z" />
<glyph unicode="a" horiz-adv-x="1716" d="M1100 0h-600q-227 0 -316.5 73.5t-89.5 219.5v104q0 150 83 221.5t302 71.5h821v25q0 102 -41.5 140t-146.5 38h-303v217h303q262 0 378 -97.5t116 -312.5v-270q0 -244 -106.5 -337t-399.5 -93zM1300 408v94h-788q-57 0 -86 -24.5t-29 -88.5v-76q0 -104 125 -104h574 q113 0 158.5 40t45.5 159z" />
<glyph unicode="b" horiz-adv-x="1681" d="M1036 0h-389q-305 0 -418.5 105.5t-113.5 373.5v989h305v-358h616q307 0 421 -105.5t114 -375.5v-150q0 -268 -115 -373.5t-420 -105.5zM1266 487v131q0 143 -47.5 186.5t-192.5 43.5h-606v-363q0 -137 47 -182t190 -45h369q145 0 192.5 46t47.5 183z" />
<glyph unicode="c" horiz-adv-x="1548" d="M1448 0h-805q-305 0 -418.5 105.5t-113.5 373.5v150q0 270 113.5 375.5t418.5 105.5h803v-262h-793q-143 0 -190 -46t-47 -184v-131q0 -133 48 -181t189 -48h795v-258z" />
<glyph unicode="d" horiz-adv-x="1681" d="M1032 0h-387q-307 0 -421.5 105.5t-114.5 373.5v150q0 270 114.5 375.5t421.5 105.5h617v358h305v-989q0 -268 -115 -373.5t-420 -105.5zM414 618v-131q0 -143 52 -186t218 -43h340q145 0 191.5 45t46.5 182v363h-580q-166 0 -217 -42.5t-51 -187.5z" />
<glyph unicode="e" horiz-adv-x="1656" d="M1556 442h-1140v-51q0 -98 36.5 -129t147.5 -31h361v-231h-361q-262 0 -375.5 99.5t-113.5 322.5v256q0 246 106.5 339t396.5 93h537q223 0 314 -79t91 -224v-365zM1251 639v143q0 53 -26.5 72.5t-98.5 19.5h-508q-123 0 -162.5 -30.5t-39.5 -145.5v-59h835z" />
<glyph unicode="f" horiz-adv-x="886" d="M426 0h-305v1169q0 164 86 231.5t270 67.5h354v-217h-307q-57 0 -77.5 -19.5t-20.5 -72.5v-49h403v-248h-403v-862z" />
<glyph unicode="g" horiz-adv-x="1671" d="M1169 -332h-452v250h424q68 0 96.5 26.5t28.5 92.5v90h-697q-254 0 -359.5 84t-105.5 287v170q0 256 99.5 349t380.5 93h495q270 0 377 -101.5t107 -340.5v-648q0 -186 -93.5 -269t-300.5 -83zM1266 365v297q0 109 -43 148.5t-156 39.5h-479q-106 0 -145.5 -40 t-39.5 -151v-145q0 -88 39 -118.5t146 -30.5h678z" />
<glyph unicode="h" horiz-adv-x="1693" d="M1579 0h-305v618q0 139 -48 184.5t-192 45.5h-608v-848h-305v1468h305v-358h616q307 0 422 -105.5t115 -375.5v-629z" />
<glyph unicode="i" horiz-adv-x="552" d="M432 0h-311v1081h311v-1081zM326 1174h-101q-55 0 -79.5 22.5t-24.5 71.5v118q0 49 23.5 71t80.5 22h101q57 0 81.5 -21.5t24.5 -71.5v-118q0 -49 -24.5 -71.5t-81.5 -22.5z" />
<glyph unicode="j" horiz-adv-x="583" d="M-33 -332h-82v260h68q119 0 162 36t43 138v979h305v-989q0 -223 -116 -323.5t-380 -100.5zM358 1174h-100q-57 0 -81.5 22.5t-24.5 71.5v118q0 49 24.5 71t81.5 22h100q57 0 81 -21.5t24 -71.5v-118q0 -49 -25 -71.5t-80 -22.5z" />
<glyph unicode="k" horiz-adv-x="1497" d="M1485 0h-412l-645 524v-524h-307v1468h307v-872l641 514h397l-690 -535z" />
<glyph unicode="l" horiz-adv-x="552" d="M432 0h-311v1468h311v-1468z" />
<glyph unicode="m" horiz-adv-x="2279" d="M2165 0h-299v668q0 100 -39 140t-129 40h-199q-135 0 -181 -39t-46 -141v-668h-268v668q0 104 -46.5 142t-183.5 38h-194q-92 0 -130 -39t-38 -141v-668h-297v713q0 209 91 303t306 94h268q164 0 244 -46t113 -149q31 100 112.5 147.5t241.5 47.5h276q215 0 306.5 -94 t91.5 -303v-713z" />
<glyph unicode="n" horiz-adv-x="1667" d="M1552 0h-305v618q0 137 -50 183.5t-198 46.5h-331q-145 0 -196.5 -46t-51.5 -184v-618h-305v629q0 270 113.5 375.5t418.5 105.5h371q307 0 420.5 -105.5t113.5 -375.5v-629z" />
<glyph unicode="o" horiz-adv-x="1658" d="M1014 0h-371q-305 0 -418.5 105.5t-113.5 373.5v150q0 270 113.5 375.5t418.5 105.5h371q307 0 420.5 -106.5t113.5 -376.5v-148q0 -268 -114.5 -373.5t-419.5 -105.5zM1243 487v131q0 141 -52 185.5t-218 44.5h-289q-164 0 -216 -44t-52 -186v-131q0 -139 53 -184 t215 -45h289q166 0 218 45t52 184z" />
<glyph unicode="p" horiz-adv-x="1681" d="M647 1110h389q307 0 421 -105.5t114 -375.5v-150q0 -268 -115 -373.5t-420 -105.5h-618v-332h-305v961q0 270 113.5 375.5t420.5 105.5zM1266 489v132q0 143 -52.5 186t-216.5 43h-340q-143 0 -191 -45t-48 -182v-363h581q164 0 215.5 41t51.5 188z" />
<glyph unicode="q" horiz-adv-x="1681" d="M645 1110h387q307 0 421 -105.5t114 -375.5v-961h-305v332h-617q-307 0 -421.5 105.5t-114.5 373.5v150q0 270 114.5 375.5t421.5 105.5zM414 621v-132q0 -141 47 -185t194 -44h607v363q0 137 -46.5 182t-191.5 45h-340q-166 0 -218 -43t-52 -186z" />
<glyph unicode="r" horiz-adv-x="901" d="M426 0h-305v643q0 250 119.5 358.5t400.5 108.5h199v-248h-191q-129 0 -176 -45t-47 -176v-641z" />
<glyph unicode="s" horiz-adv-x="1509" d="M1425 352v-57q0 -170 -73.5 -232.5t-300.5 -62.5h-955v240h916q61 0 85.5 21.5t24.5 76.5v37q0 59 -21.5 75.5t-80.5 16.5h-623q-178 0 -238.5 67.5t-60.5 225.5v84q0 147 66.5 206.5t243.5 59.5h421v-231h-348q-45 0 -64.5 -16.5t-19.5 -59.5v-51q0 -45 18.5 -62.5 t59.5 -17.5h602q207 0 277.5 -70t70.5 -250z" />
<glyph unicode="t" horiz-adv-x="872" d="M496 0h-312v862h-155v248h155v313h312v-313h350v-248h-350v-862z" />
<glyph unicode="u" horiz-adv-x="1658" d="M1008 0h-361q-305 0 -418.5 105.5t-113.5 373.5v631h307v-623q0 -137 53 -182t197 -45h319q152 0 201 44t49 183v623h303v-631q0 -268 -114.5 -373.5t-421.5 -105.5z" />
<glyph unicode="v" horiz-adv-x="1918" d="M1901 1110l-732 -1036q-76 -104 -208 -105q-137 0 -211 105l-732 1036h365l582 -850l575 850h361z" />
<glyph unicode="w" horiz-adv-x="2258" d="M1442 80l-314 684l-329 -684q-53 -111 -170 -111t-164 111l-445 1030h310l319 -748l318 664q31 59 67.5 87t100.5 28q115 0 165 -115l302 -664l335 748h304l-465 -1030q-49 -111 -168 -111q-113 0 -166 111z" />
<glyph unicode="x" horiz-adv-x="1540" d="M1524 0h-381l-375 401l-381 -401h-373l576 578l-537 532h367l360 -375l369 375h369l-555 -543z" />
<glyph unicode="y" horiz-adv-x="1695" d="M420 1110v-578q0 -90 40 -126.5t134 -36.5h682v741h297v-1090q0 -186 -93.5 -269t-299.5 -83h-445v250h418q66 0 94.5 25.5t28.5 93.5v90h-701q-246 0 -351 94t-105 299v590h301z" />
<glyph unicode="z" horiz-adv-x="1435" d="M1329 995q0 -61 -47 -102l-762 -662h842v-231h-1182q-49 0 -77.5 33t-28.5 78q0 61 51 106l786 666h-811v227h1119q53 0 81.5 -34t28.5 -81z" />
<glyph unicode="{" horiz-adv-x="681" d="M446 1499v-653q0 -90 -30.5 -140.5t-81.5 -56.5q51 -6 81.5 -57t30.5 -139v-652q0 -88 64 -88h145v-164h-194q-125 0 -172 53.5t-47 184.5v637q0 72 -26 99.5t-87 27.5h-25q-80 0 -79 98q0 96 79 96h25q61 0 87 29t26 100v639q0 131 47 184.5t172 53.5h194v-164h-145 q-64 0 -64 -88z" />
<glyph unicode="|" horiz-adv-x="542" d="M373 -451h-205v2202h205v-2202z" />
<glyph unicode="}" horiz-adv-x="681" d="M233 846v653q0 88 -63 88h-145v164h194q125 0 172 -53t47 -185v-639q0 -72 25.5 -100.5t87.5 -28.5h24q80 0 80 -96q0 -98 -80 -98h-24q-61 0 -87 -27.5t-26 -99.5v-637q0 -131 -47 -184.5t-172 -53.5h-194v164h145q63 0 63 88v652q0 88 31 139t82 57q-51 6 -82 56.5 t-31 140.5z" />
<glyph unicode="~" horiz-adv-x="1208" d="M819 553q-16 0 -35 6l-356 123q-10 4 -29 4q-14 0 -34 -6l-246 -94v215l217 84q31 10 51 10q16 0 35 -6l356 -123q10 -4 29 -4q12 0 35 6l245 94v-215l-217 -84q-31 -10 -51 -10z" />
<glyph unicode="&#xa1;" horiz-adv-x="581" d="M135 973h309v-973h-309v973zM240 1397h100q57 0 80.5 -21.5t23.5 -70.5v-119q0 -49 -24.5 -71.5t-79.5 -22.5h-100q-55 0 -80 22.5t-25 71.5v119q0 49 24 70.5t81 21.5z" />
<glyph unicode="&#xa2;" horiz-adv-x="1501" d="M1434 131h-437v-131h-219v131h-147q-305 0 -420 105.5t-115 373.5v150q0 270 114 375.5t421 105.5h147v156h219v-156h435v-260h-435v-592h437v-258zM401 618q0 -133 48.5 -181t189.5 -48h139v592h-139q-143 0 -190.5 -47t-47.5 -184v-132z" />
<glyph unicode="&#xa3;" horiz-adv-x="1726" d="M1640 0h-1589v260h182v658q0 268 115 373.5t424 105.5h315v-260h-315q-125 0 -175 -50.5t-50 -168.5v-101h1085v-237h-1085v-320h1093v-260z" />
<glyph unicode="&#xa4;" horiz-adv-x="1482" d="M1419 133l-123 -121l-307 314h-502l-309 -316l-117 123l310 309v504l-310 307l119 119l307 -309h502l307 309l125 -119l-313 -307v-504zM932 500v387h-385v-387h385z" />
<glyph unicode="&#xa5;" horiz-adv-x="1789" d="M1561 188h-521v-188h-299v188h-512v201h512v139h-512v201h482l-701 668h379l508 -500l520 500h361l-707 -668h490v-201h-521v-139h521v-201z" />
<glyph unicode="&#xa6;" horiz-adv-x="542" d="M373 819h-205v932h205v-932zM373 -451h-205v932h205v-932z" />
<glyph unicode="&#xa7;" horiz-adv-x="1505" d="M903 -451h-821v230h811q113 0 157 39t44 151v125h-557q-260 0 -357.5 90t-97.5 318v487q0 227 97 317.5t358 90.5h438v-230h-428q-117 0 -159 -41t-42 -149v-127h557q262 0 359.5 -89t97.5 -319v-483q0 -229 -98.5 -319.5t-358.5 -90.5zM1094 324v108q0 109 -44 150 t-157 41h-547v-111q0 -115 41 -151.5t160 -36.5h547z" />
<glyph unicode="&#xa8;" horiz-adv-x="1069" d="M317 1174h-94q-63 0 -84.5 25.5t-21.5 88.5v92q0 53 23.5 76t82.5 23h94q57 0 81 -22.5t24 -76.5v-108q0 -53 -24 -75.5t-81 -22.5zM844 1174h-94q-57 0 -81 22.5t-24 75.5v108q0 53 23.5 76t81.5 23h94q57 0 80.5 -22.5t23.5 -76.5v-108q0 -53 -23.5 -75.5t-80.5 -22.5z " />
<glyph unicode="&#xa9;" horiz-adv-x="1777" d="M1133 0h-490q-305 0 -418.5 105.5t-113.5 373.5v439q0 268 113.5 373.5t418.5 105.5h490q305 0 419.5 -105.5t114.5 -373.5v-439q0 -268 -114.5 -373.5t-419.5 -105.5zM1524 479v439q0 193 -80 263t-311 70h-490q-229 0 -309 -70.5t-80 -262.5v-439q0 -195 79 -264.5 t310 -69.5h490q231 0 311 69.5t80 264.5zM1219 387h-453q-143 0 -198.5 50t-55.5 177v205q0 125 55.5 176.5t198.5 51.5h453v-121h-443q-76 0 -99.5 -22.5t-23.5 -90.5v-192q0 -68 24.5 -90.5t98.5 -22.5h443v-121z" />
<glyph unicode="&#xaa;" horiz-adv-x="1077" d="M674 614h-334q-127 0 -178 41t-51 121v60q0 82 47 120.5t170 38.5h422v17q0 39 -15.5 53t-54.5 14h-170v146h170q147 0 211.5 -54.5t64.5 -175.5v-143q0 -135 -59 -186.5t-223 -51.5zM750 834v40h-388q-45 0 -45 -49v-26q0 -43 48 -43h305q43 0 61.5 16.5t18.5 61.5z" />
<glyph unicode="&#xab;" horiz-adv-x="1183" d="M125 840l399 301v-277l-268 -196l268 -199v-272l-399 299q-86 66 -86 174q0 104 86 170zM717 840l399 301v-277l-268 -196l268 -199v-272l-399 299q-86 66 -86 174q0 104 86 170z" />
<glyph unicode="&#xac;" horiz-adv-x="1181" d="M1061 0h-209v645h-772v207h981v-852z" />
<glyph unicode="&#xad;" horiz-adv-x="811" d="M743 532h-675v242h675v-242z" />
<glyph unicode="&#xae;" horiz-adv-x="1777" d="M1133 0h-490q-305 0 -419.5 105.5t-114.5 373.5v439q0 268 114.5 373.5t419.5 105.5h490q305 0 419.5 -105.5t114.5 -373.5v-439q0 -268 -114.5 -373.5t-419.5 -105.5zM1522 479v439q0 193 -80 262t-309 69h-490q-229 0 -309 -69.5t-80 -261.5v-439q0 -195 79 -264.5 t310 -69.5h490q231 0 310 69.5t79 264.5zM1294 389h-243l-400 238v-238h-137v658h512q143 0 202.5 -41t59.5 -156v-45q0 -55 -17.5 -91t-42 -56.5t-81.5 -30t-106.5 -11.5t-147.5 -2zM1147 807v35q0 53 -25.5 67.5t-107.5 14.5h-363v-205h363q80 0 106.5 16.5t26.5 71.5z " />
<glyph unicode="&#xaf;" horiz-adv-x="1323" d="M1202 1348h-1081v217h1081v-217z" />
<glyph unicode="&#xb0;" horiz-adv-x="921" d="M537 678h-150q-184 0 -251.5 62.5t-67.5 222.5v147q0 160 67.5 223.5t251.5 63.5h150q182 0 250.5 -63.5t68.5 -223.5v-147q0 -160 -67.5 -222.5t-251.5 -62.5zM657 971v131q0 76 -24.5 98.5t-104.5 22.5h-133q-80 0 -104.5 -23.5t-24.5 -97.5v-131q0 -74 25.5 -98.5 t103.5 -24.5h133q78 0 103.5 24.5t25.5 98.5z" />
<glyph unicode="&#xb1;" horiz-adv-x="1208" d="M705 240h-201v383h-383v200h383v383h201v-383h382v-200h-382v-383zM1087 -33h-966v201h966v-201z" />
<glyph unicode="&#xb2;" horiz-adv-x="1009" d="M926 719h-848v237q0 102 49 145.5t176 43.5h393q31 0 42.5 10t11.5 39v12q0 29 -11.5 39t-40.5 10h-243v162h264q111 0 159 -46t48 -154v-39q0 -100 -45 -139.5t-164 -39.5h-400q-35 0 -49 -12t-14 -43v-63h672v-162z" />
<glyph unicode="&#xb3;" horiz-adv-x="995" d="M922 934v-55q0 -86 -53.5 -123t-182.5 -37h-612v155h606q61 0 61 44v30q0 29 -13 40t-46 11h-604v140h596q57 0 57 47v33q0 43 -65 43h-215v155h223q131 0 184 -40t53 -130v-49q0 -96 -67 -123q78 -28 78 -141z" />
<glyph unicode="&#xb4;" horiz-adv-x="819" d="M373 1255h-252l256 447h321z" />
<glyph unicode="&#xb5;" horiz-adv-x="1699" d="M1042 0h-616v-332h-305v1442h305v-850h608q139 0 189.5 46t50.5 181v623h305v-631q0 -268 -115 -373.5t-422 -105.5z" />
<glyph unicode="&#xb6;" horiz-adv-x="1789" d="M1669 -332h-262v1575h-391v-1575h-264v885h-254q-254 0 -348.5 87t-94.5 308v125q0 221 94.5 308t348.5 87h1171v-1800zM752 776v467h-248q-111 0 -149 -37t-38 -141v-111q0 -104 39 -141t150 -37h246z" />
<glyph unicode="&#xb7;" horiz-adv-x="552" d="M326 492h-101q-57 0 -80.5 21.5t-23.5 70.5v168q0 49 24.5 70.5t79.5 21.5h101q57 0 81.5 -21.5t24.5 -70.5v-168q0 -49 -24.5 -70.5t-81.5 -21.5z" />
<glyph unicode="&#xb8;" horiz-adv-x="563" d="M332 -451h-211l45 398h276z" />
<glyph unicode="&#xb9;" horiz-adv-x="370" d="M281 719h-193v698h193v-698z" />
<glyph unicode="&#xba;" horiz-adv-x="1044" d="M627 614h-209q-170 0 -233.5 58.5t-63.5 206.5v82q0 147 63.5 205.5t233.5 58.5h209q172 0 235.5 -58.5t63.5 -205.5v-82q0 -147 -63.5 -206t-235.5 -59zM719 887v63q0 57 -23.5 78t-89.5 21h-168q-66 0 -88 -19.5t-22 -79.5v-63q0 -57 22.5 -76.5t87.5 -19.5h168 q66 0 89.5 19.5t23.5 76.5z" />
<glyph unicode="&#xbb;" horiz-adv-x="1183" d="M39 1141l399 -301q86 -66 86 -170q0 -109 -86 -174l-399 -299v272l268 199l-268 196v277zM631 1141l399 -301q86 -66 86 -170q0 -109 -86 -174l-399 -299v272l268 199l-268 196v277z" />
<glyph unicode="&#xbc;" horiz-adv-x="1912" d="M408 719h-193v698h193v-698zM348 0h-237l981 1397h237zM1806 -20h-188v182h-682v516h188v-352h494v352h188v-698z" />
<glyph unicode="&#xbd;" horiz-adv-x="1720" d="M408 719h-193v698h193v-698zM348 0h-237l981 1397h237zM1614 -20h-848v237q0 102 49 145.5t176 43.5h393q31 0 42.5 10t11.5 39v12q0 29 -11.5 39t-40.5 10h-243v162h264q111 0 159 -46t48 -155v-39q0 -100 -45 -139t-164 -39h-399q-35 0 -49.5 -12t-14.5 -43v-64h672 v-161z" />
<glyph unicode="&#xbe;" horiz-adv-x="2279" d="M954 934v-55q0 -86 -53 -123t-182 -37h-613v155h607q61 0 61 44v30q0 29 -13 40t-46 11h-604v140h596q57 0 57 47v33q0 43 -66 43h-215v155h224q131 0 184 -40t53 -130v-49q0 -96 -67 -123q77 -28 77 -141zM735 0h-237l981 1397h237zM2173 -20h-188v182h-682v516h188 v-352h494v352h188v-698z" />
<glyph unicode="&#xbf;" horiz-adv-x="1218" d="M442 819h283q51 0 70.5 21.5t19.5 72.5v60h303v-86q0 -158 -76.5 -225.5t-269.5 -67.5h-299q-66 0 -96.5 -29.5t-30.5 -105.5v-58q0 -78 32 -108.5t105 -30.5h308v-262h-328q-213 0 -307.5 90t-94.5 299v78q0 193 81 272.5t300 79.5zM913 1397h101q57 0 80.5 -21.5 t23.5 -70.5v-119q0 -49 -24.5 -71.5t-79.5 -22.5h-101q-57 0 -81.5 22.5t-24.5 71.5v119q0 49 24.5 70.5t81.5 21.5z" />
<glyph unicode="&#xc0;" horiz-adv-x="2119" d="M1743 0l-203 322h-967l-198 -322h-359l811 1290q41 68 94.5 102.5t141.5 34.5q86 0 139 -34.5t94 -102.5l807 -1290h-360zM1057 1112l-338 -551h676zM1245 1542h-254l-323 447h319z" />
<glyph unicode="&#xc1;" horiz-adv-x="2119" d="M1743 0l-203 322h-967l-198 -322h-359l811 1290q41 68 94.5 102.5t141.5 34.5q86 0 139 -34.5t94 -102.5l807 -1290h-360zM1057 1112l-338 -551h676zM1124 1542h-252l256 447h322z" />
<glyph unicode="&#xc2;" horiz-adv-x="2119" d="M1743 0l-203 322h-967l-198 -322h-359l811 1290q41 68 94.5 102.5t141.5 34.5q86 0 139 -34.5t94 -102.5l807 -1290h-360zM1057 1112l-338 -551h676zM1587 1462h-301l-231 312l-228 -312h-295l347 461q63 84 182 84q113 0 178 -84z" />
<glyph unicode="&#xc3;" horiz-adv-x="2119" d="M1743 0l-203 322h-967l-198 -322h-359l811 1290q41 68 94.5 102.5t141.5 34.5q86 0 139 -34.5t94 -102.5l807 -1290h-360zM1057 1112l-338 -551h676zM1599 1634h-1081v217h1081v-217z" />
<glyph unicode="&#xc4;" horiz-adv-x="2119" d="M1743 0l-203 322h-967l-198 -322h-359l811 1290q41 68 94.5 102.5t141.5 34.5q86 0 139 -34.5t94 -102.5l807 -1290h-360zM1057 1112l-338 -551h676zM844 1460h-94q-63 0 -85 25.5t-22 89.5v92q0 53 23.5 75.5t83.5 22.5h94q57 0 80.5 -22.5t23.5 -75.5v-108 q0 -53 -23.5 -76t-80.5 -23zM1370 1460h-94q-57 0 -81 22.5t-24 76.5v108q0 53 24 75.5t81 22.5h94q57 0 81 -22.5t24 -75.5v-108q0 -53 -24 -76t-81 -23z" />
<glyph unicode="&#xc5;" horiz-adv-x="2119" d="M1743 0l-203 322h-967l-198 -322h-359l811 1290q41 68 94.5 102.5t141.5 34.5q86 0 139 -34.5t94 -102.5l807 -1290h-360zM1057 1112l-338 -551h676zM1161 1450h-203q-143 0 -196 48t-53 173v115q0 123 53 172t196 49h203q143 0 196.5 -49t53.5 -172v-115 q0 -125 -53.5 -173t-196.5 -48zM1262 1675v105q0 57 -22.5 77.5t-82.5 20.5h-194q-59 0 -84 -21.5t-25 -76.5v-105q0 -57 23.5 -77.5t85.5 -20.5h194q57 0 81 21.5t24 76.5z" />
<glyph unicode="&#xc6;" horiz-adv-x="2762" d="M1225 322h-639l-195 -322h-375l795 1262q41 66 94 100.5t139 34.5h1037v-264h-561v-316h1153v-237h-1153v-156q0 -94 43 -129t170 -35h950v-260h-950q-256 0 -369.5 70t-138.5 252zM1210 561v567h-131l-350 -567h481z" />
<glyph unicode="&#xc7;" horiz-adv-x="1691" d="M1612 0h-969q-305 0 -418.5 105.5t-113.5 373.5v439q0 268 113.5 373.5t418.5 105.5h969v-269h-955q-141 0 -189 -48t-48 -179v-409q0 -131 48 -178.5t191 -47.5h953v-266zM936 -451h-211l45 398h277z" />
<glyph unicode="&#xc8;" horiz-adv-x="1697" d="M1618 0h-975q-305 0 -418.5 105.5t-113.5 373.5v439q0 268 113.5 373.5t418.5 105.5h344v-264h-344q-133 0 -178 -46.5t-45 -168.5v-95h1190v-248h-1190v-98q0 -127 44 -170t179 -43h975v-264zM1034 1542h-254l-323 447h319z" />
<glyph unicode="&#xc9;" horiz-adv-x="1697" d="M1618 0h-975q-305 0 -418.5 105.5t-113.5 373.5v439q0 268 113.5 373.5t418.5 105.5h344v-264h-344q-133 0 -178 -46.5t-45 -168.5v-95h1190v-248h-1190v-98q0 -127 44 -170t179 -43h975v-264zM913 1542h-251l256 447h321z" />
<glyph unicode="&#xca;" horiz-adv-x="1697" d="M1618 0h-975q-305 0 -418.5 105.5t-113.5 373.5v439q0 268 113.5 373.5t418.5 105.5h344v-264h-344q-133 0 -178 -46.5t-45 -168.5v-95h1190v-248h-1190v-98q0 -127 44 -170t179 -43h975v-264zM1438 1462h-301l-232 312l-227 -312h-295l346 461q63 84 182 84 q113 0 179 -84z" />
<glyph unicode="&#xcb;" horiz-adv-x="1697" d="M1618 0h-975q-305 0 -418.5 105.5t-113.5 373.5v439q0 268 113.5 373.5t418.5 105.5h344v-264h-344q-133 0 -178 -46.5t-45 -168.5v-95h1190v-248h-1190v-98q0 -127 44 -170t179 -43h975v-264zM694 1460h-94q-63 0 -84.5 25.5t-21.5 89.5v92q0 53 23.5 75.5t82.5 22.5h94 q57 0 81 -22.5t24 -75.5v-108q0 -53 -24 -76t-81 -23zM1221 1460h-95q-57 0 -80.5 22.5t-23.5 76.5v108q0 53 23.5 75.5t80.5 22.5h95q57 0 80.5 -22.5t23.5 -75.5v-108q0 -53 -23.5 -76t-80.5 -23z" />
<glyph unicode="&#xcc;" horiz-adv-x="559" d="M434 0h-311v1397h311v-1397zM467 1542h-254l-324 447h320z" />
<glyph unicode="&#xcd;" horiz-adv-x="559" d="M434 0h-311v1397h311v-1397zM346 1542h-252l256 447h322z" />
<glyph unicode="&#xce;" horiz-adv-x="559" d="M434 0h-311v1397h311v-1397zM807 1462h-301l-232 312l-227 -312h-295l346 461q63 84 183 84q113 0 178 -84z" />
<glyph unicode="&#xcf;" horiz-adv-x="559" d="M434 0h-311v1397h311v-1397zM66 1460h-95q-63 0 -84.5 25.5t-21.5 89.5v92q0 53 23.5 75.5t82.5 22.5h95q57 0 80.5 -22.5t23.5 -75.5v-108q0 -53 -23.5 -76t-80.5 -23zM592 1460h-94q-57 0 -81 22.5t-24 76.5v108q0 53 23.5 75.5t81.5 22.5h94q57 0 80.5 -22.5 t23.5 -75.5v-108q0 -53 -23.5 -76t-80.5 -23z" />
<glyph unicode="&#xd0;" horiz-adv-x="1927" d="M1280 0h-1106v580h-166v237h166v580h1106q307 0 422 -105.5t115 -373.5v-439q0 -268 -115 -373.5t-422 -105.5zM1505 485v424q0 131 -50 179.5t-187 48.5h-783v-326h576v-225h-576v-328h783q129 0 183 48t54 179z" />
<glyph unicode="&#xd1;" horiz-adv-x="1867" d="M1595 -31q-102 0 -170 66l-1017 958v-993h-289v1298q0 63 45 96t121 33q94 0 145 -51l1026 -989v1010h295v-1299q0 -129 -156 -129zM1475 1634h-1082v217h1082v-217z" />
<glyph unicode="&#xd2;" d="M1174 0h-531q-305 0 -418.5 105.5t-113.5 373.5v439q0 268 113.5 373.5t418.5 105.5h531q305 0 419.5 -105.5t114.5 -373.5v-439q0 -268 -114.5 -373.5t-419.5 -105.5zM1397 492v411q0 131 -49.5 178t-186.5 47h-504q-145 0 -191 -46t-46 -179v-411q0 -137 45 -181.5 t192 -44.5h504q139 0 187.5 45.5t48.5 180.5zM1096 1542h-254l-324 447h320z" />
<glyph unicode="&#xd3;" d="M1174 0h-531q-305 0 -418.5 105.5t-113.5 373.5v439q0 268 113.5 373.5t418.5 105.5h531q305 0 419.5 -105.5t114.5 -373.5v-439q0 -268 -114.5 -373.5t-419.5 -105.5zM1397 492v411q0 131 -49.5 178t-186.5 47h-504q-145 0 -191 -46t-46 -179v-411q0 -137 45 -181.5 t192 -44.5h504q139 0 187.5 45.5t48.5 180.5zM975 1542h-252l256 447h321z" />
<glyph unicode="&#xd4;" d="M1174 0h-531q-305 0 -418.5 105.5t-113.5 373.5v439q0 268 113.5 373.5t418.5 105.5h531q305 0 419.5 -105.5t114.5 -373.5v-439q0 -268 -114.5 -373.5t-419.5 -105.5zM1397 492v411q0 131 -49.5 178t-186.5 47h-504q-145 0 -191 -46t-46 -179v-411q0 -137 45 -181.5 t192 -44.5h504q139 0 187.5 45.5t48.5 180.5zM1436 1462h-301l-232 312l-227 -312h-295l346 461q63 84 182 84q113 0 178 -84z" />
<glyph unicode="&#xd5;" d="M1174 0h-531q-305 0 -418.5 105.5t-113.5 373.5v439q0 268 113.5 373.5t418.5 105.5h531q305 0 419.5 -105.5t114.5 -373.5v-439q0 -268 -114.5 -373.5t-419.5 -105.5zM1397 492v411q0 131 -49.5 178t-186.5 47h-504q-145 0 -191 -46t-46 -179v-411q0 -137 45 -181.5 t192 -44.5h504q139 0 187.5 45.5t48.5 180.5zM1450 1634h-1081v217h1081v-217z" />
<glyph unicode="&#xd6;" d="M1174 0h-531q-305 0 -418.5 105.5t-113.5 373.5v439q0 268 113.5 373.5t418.5 105.5h531q305 0 419.5 -105.5t114.5 -373.5v-439q0 -268 -114.5 -373.5t-419.5 -105.5zM1397 492v411q0 131 -49.5 178t-186.5 47h-504q-145 0 -191 -46t-46 -179v-411q0 -137 45 -181.5 t192 -44.5h504q139 0 187.5 45.5t48.5 180.5zM694 1460h-94q-63 0 -84.5 25.5t-21.5 89.5v92q0 53 23.5 75.5t82.5 22.5h94q57 0 81 -22.5t24 -75.5v-108q0 -53 -24 -76t-81 -23zM1221 1460h-95q-57 0 -80.5 22.5t-23.5 76.5v108q0 53 23.5 75.5t80.5 22.5h95 q57 0 80.5 -22.5t23.5 -75.5v-108q0 -53 -23.5 -76t-80.5 -23z" />
<glyph unicode="&#xd7;" horiz-adv-x="1208" d="M1018 453l-144 -144l-270 273l-270 -273l-144 144l273 270l-273 270l144 144l270 -273l270 273l144 -144l-273 -270z" />
<glyph unicode="&#xd8;" d="M1174 0h-531q-57 0 -84 2l-137 -190h-313l180 247q-98 51 -138 150.5t-40 269.5v439q0 268 113.5 373.5t418.5 105.5h531q14 0 41.5 -1t39.5 -1l140 190h313l-180 -250q98 -49 139 -149.5t41 -267.5v-439q0 -268 -114.5 -373.5t-419.5 -105.5zM420 492q0 -143 49 -185 l594 821h-406q-145 0 -191 -46t-46 -179v-411zM1397 492v411q0 133 -54 180l-591 -817h409q139 0 187.5 45.5t48.5 180.5z" />
<glyph unicode="&#xd9;" d="M1171 0h-524q-305 0 -418.5 105.5t-113.5 373.5v918h313v-908q0 -127 54.5 -175t195.5 -48h469q141 0 195.5 48t54.5 178v905h309v-918q0 -268 -115 -373.5t-420 -105.5zM1096 1542h-254l-324 447h320z" />
<glyph unicode="&#xda;" d="M1171 0h-524q-305 0 -418.5 105.5t-113.5 373.5v918h313v-908q0 -127 54.5 -175t195.5 -48h469q141 0 195.5 48t54.5 178v905h309v-918q0 -268 -115 -373.5t-420 -105.5zM975 1542h-252l256 447h321z" />
<glyph unicode="&#xdb;" d="M1171 0h-524q-305 0 -418.5 105.5t-113.5 373.5v918h313v-908q0 -127 54.5 -175t195.5 -48h469q141 0 195.5 48t54.5 178v905h309v-918q0 -268 -115 -373.5t-420 -105.5zM1436 1462h-301l-232 312l-227 -312h-295l346 461q63 84 182 84q113 0 178 -84z" />
<glyph unicode="&#xdc;" d="M1171 0h-524q-305 0 -418.5 105.5t-113.5 373.5v918h313v-908q0 -127 54.5 -175t195.5 -48h469q141 0 195.5 48t54.5 178v905h309v-918q0 -268 -115 -373.5t-420 -105.5zM694 1460h-94q-63 0 -84.5 25.5t-21.5 89.5v92q0 53 23.5 75.5t82.5 22.5h94q57 0 81 -22.5 t24 -75.5v-108q0 -53 -24 -76t-81 -23zM1221 1460h-95q-57 0 -80.5 22.5t-23.5 76.5v108q0 53 23.5 75.5t80.5 22.5h95q57 0 80.5 -22.5t23.5 -75.5v-108q0 -53 -23.5 -76t-80.5 -23z" />
<glyph unicode="&#xdd;" horiz-adv-x="1972" d="M1139 0h-312v659l-819 738h420l563 -498l574 498h397l-823 -742v-655zM1051 1542h-252l256 447h321z" />
<glyph unicode="&#xde;" horiz-adv-x="1826" d="M1229 203h-797v-203h-311v1397h311v-205h797q313 0 423.5 -89t110.5 -347v-117q0 -258 -110.5 -347t-423.5 -89zM1452 651v88q0 123 -44 162t-185 39h-791v-487h791q141 0 185 38.5t44 159.5z" />
<glyph unicode="&#xdf;" horiz-adv-x="1939" d="M1323 0h-616v258h618q133 0 180 42t47 146v119q0 86 -35.5 122t-109.5 36h-297q-252 0 -252 217v197q0 57 -23.5 80.5t-74.5 23.5h-236q-53 0 -75.5 -22.5t-22.5 -81.5v-1137h-305v1157q0 172 84 241.5t268 69.5h344q178 0 252 -68.5t74 -242.5v-147q0 -63 74 -64h188 q258 0 354 -79t96 -304v-117q0 -242 -112.5 -344t-419.5 -102z" />
<glyph unicode="&#xe0;" horiz-adv-x="1716" d="M1100 0h-600q-227 0 -316.5 73.5t-89.5 219.5v104q0 150 83 221.5t302 71.5h821v25q0 102 -41.5 140t-146.5 38h-303v217h303q262 0 378 -97.5t116 -312.5v-270q0 -244 -106.5 -337t-399.5 -93zM1300 408v94h-788q-57 0 -86 -24.5t-29 -88.5v-76q0 -104 125 -104h574 q113 0 158.5 40t45.5 159zM1106 1255h-254l-324 447h320z" />
<glyph unicode="&#xe1;" horiz-adv-x="1716" d="M1100 0h-600q-227 0 -316.5 73.5t-89.5 219.5v104q0 150 83 221.5t302 71.5h821v25q0 102 -41.5 140t-146.5 38h-303v217h303q262 0 378 -97.5t116 -312.5v-270q0 -244 -106.5 -337t-399.5 -93zM1300 408v94h-788q-57 0 -86 -24.5t-29 -88.5v-76q0 -104 125 -104h574 q113 0 158.5 40t45.5 159zM985 1255h-252l256 447h322z" />
<glyph unicode="&#xe2;" horiz-adv-x="1716" d="M1100 0h-600q-227 0 -316.5 73.5t-89.5 219.5v104q0 150 83 221.5t302 71.5h821v25q0 102 -41.5 140t-146.5 38h-303v217h303q262 0 378 -97.5t116 -312.5v-270q0 -244 -106.5 -337t-399.5 -93zM1300 408v94h-788q-57 0 -86 -24.5t-29 -88.5v-76q0 -104 125 -104h574 q113 0 158.5 40t45.5 159zM1446 1176h-301l-232 311l-227 -311h-295l346 460q63 84 183 84q113 0 178 -84z" />
<glyph unicode="&#xe3;" horiz-adv-x="1716" d="M1100 0h-600q-227 0 -316.5 73.5t-89.5 219.5v104q0 150 83 221.5t302 71.5h821v25q0 102 -41.5 140t-146.5 38h-303v217h303q262 0 378 -97.5t116 -312.5v-270q0 -244 -106.5 -337t-399.5 -93zM1300 408v94h-788q-57 0 -86 -24.5t-29 -88.5v-76q0 -104 125 -104h574 q113 0 158.5 40t45.5 159zM1460 1348h-1081v217h1081v-217z" />
<glyph unicode="&#xe4;" horiz-adv-x="1716" d="M1100 0h-600q-227 0 -316.5 73.5t-89.5 219.5v104q0 150 83 221.5t302 71.5h821v25q0 102 -41.5 140t-146.5 38h-303v217h303q262 0 378 -97.5t116 -312.5v-270q0 -244 -106.5 -337t-399.5 -93zM1300 408v94h-788q-57 0 -86 -24.5t-29 -88.5v-76q0 -104 125 -104h574 q113 0 158.5 40t45.5 159zM705 1174h-95q-63 0 -84.5 25.5t-21.5 88.5v92q0 53 23.5 76t82.5 23h95q57 0 80.5 -22.5t23.5 -76.5v-108q0 -53 -23.5 -75.5t-80.5 -22.5zM1231 1174h-94q-57 0 -81 22.5t-24 75.5v108q0 53 23.5 76t81.5 23h94q57 0 80.5 -22.5t23.5 -76.5v-108 q0 -53 -23.5 -75.5t-80.5 -22.5z" />
<glyph unicode="&#xe5;" horiz-adv-x="1716" d="M1100 0h-600q-227 0 -316.5 73.5t-89.5 219.5v104q0 150 83 221.5t302 71.5h821v25q0 102 -41.5 140t-146.5 38h-303v217h303q262 0 378 -97.5t116 -312.5v-270q0 -244 -106.5 -337t-399.5 -93zM1300 408v94h-788q-57 0 -86 -24.5t-29 -88.5v-76q0 -104 125 -104h574 q113 0 158.5 40t45.5 159zM1020 1163h-203q-143 0 -196.5 48.5t-53.5 172.5v115q0 123 53.5 172t196.5 49h203q143 0 196.5 -49t53.5 -172v-115q0 -125 -53.5 -173t-196.5 -48zM1120 1389v104q0 57 -22.5 77.5t-81.5 20.5h-195q-59 0 -83.5 -21.5t-24.5 -76.5v-104 q0 -57 23.5 -78t84.5 -21h195q57 0 80.5 22t23.5 77z" />
<glyph unicode="&#xe6;" horiz-adv-x="2807" d="M1280 408v94h-768q-57 0 -86 -24.5t-29 -88.5v-76q0 -104 125 -104h553q113 0 159 40t46 159zM2402 639v143q0 53 -26.5 72.5t-98.5 19.5h-487q-123 0 -164 -30.5t-41 -145.5v-59h817zM2707 442h-1122v-51q0 -98 37 -129t150 -31h346v-231h-346q-225 0 -332 70 q-106 -70 -359 -70h-581q-227 0 -316.5 73.5t-89.5 219.5v104q0 150 83 221.5t302 71.5h801v25q0 102 -42 140t-144 38h-291v217h291q217 0 331 -72q111 72 359 72h518q223 0 314 -79t91 -224v-365z" />
<glyph unicode="&#xe7;" horiz-adv-x="1548" d="M1448 0h-805q-305 0 -418.5 105.5t-113.5 373.5v150q0 270 113.5 375.5t418.5 105.5h803v-262h-793q-143 0 -190 -46t-47 -184v-131q0 -133 48 -181t189 -48h795v-258zM844 -451h-211l45 398h276z" />
<glyph unicode="&#xe8;" horiz-adv-x="1656" d="M1556 442h-1140v-51q0 -98 36.5 -129t147.5 -31h361v-231h-361q-262 0 -375.5 99.5t-113.5 322.5v256q0 246 106.5 339t396.5 93h537q223 0 314 -79t91 -224v-365zM1251 639v143q0 53 -26.5 72.5t-98.5 19.5h-508q-123 0 -162.5 -30.5t-39.5 -145.5v-59h835zM1014 1255 h-254l-324 447h320z" />
<glyph unicode="&#xe9;" horiz-adv-x="1656" d="M1556 442h-1140v-51q0 -98 36.5 -129t147.5 -31h361v-231h-361q-262 0 -375.5 99.5t-113.5 322.5v256q0 246 106.5 339t396.5 93h537q223 0 314 -79t91 -224v-365zM1251 639v143q0 53 -26.5 72.5t-98.5 19.5h-508q-123 0 -162.5 -30.5t-39.5 -145.5v-59h835zM893 1255 h-252l256 447h322z" />
<glyph unicode="&#xea;" horiz-adv-x="1656" d="M1556 442h-1140v-51q0 -98 36.5 -129t147.5 -31h361v-231h-361q-262 0 -375.5 99.5t-113.5 322.5v256q0 246 106.5 339t396.5 93h537q223 0 314 -79t91 -224v-365zM1251 639v143q0 53 -26.5 72.5t-98.5 19.5h-508q-123 0 -162.5 -30.5t-39.5 -145.5v-59h835zM1356 1176 h-301l-232 311l-227 -311h-295l346 460q63 84 182 84q113 0 179 -84z" />
<glyph unicode="&#xeb;" horiz-adv-x="1656" d="M1556 442h-1140v-51q0 -98 36.5 -129t147.5 -31h361v-231h-361q-262 0 -375.5 99.5t-113.5 322.5v256q0 246 106.5 339t396.5 93h537q223 0 314 -79t91 -224v-365zM1251 639v143q0 53 -26.5 72.5t-98.5 19.5h-508q-123 0 -162.5 -30.5t-39.5 -145.5v-59h835zM612 1174 h-94q-63 0 -84.5 25.5t-21.5 88.5v92q0 53 23.5 76t82.5 23h94q57 0 81 -22.5t24 -76.5v-108q0 -53 -24 -75.5t-81 -22.5zM1139 1174h-95q-57 0 -80.5 22.5t-23.5 75.5v108q0 53 23.5 76t80.5 23h95q57 0 80.5 -22.5t23.5 -76.5v-108q0 -53 -23.5 -75.5t-80.5 -22.5z" />
<glyph unicode="&#xec;" horiz-adv-x="552" d="M432 0h-311v1081h311v-1081zM463 1255h-254l-324 447h320z" />
<glyph unicode="&#xed;" horiz-adv-x="552" d="M432 0h-311v1081h311v-1081zM342 1255h-252l256 447h322z" />
<glyph unicode="&#xee;" horiz-adv-x="843" d="M578 0h-312v1081h312v-1081zM950 1176h-301l-231 311l-228 -311h-294l346 460q63 84 182 84q113 0 178 -84z" />
<glyph unicode="&#xef;" horiz-adv-x="643" d="M477 0h-311v1081h311v-1081zM106 1174h-94q-63 0 -84.5 25.5t-21.5 88.5v92q0 53 23.5 76t82.5 23h94q57 0 81 -22.5t24 -76.5v-108q0 -53 -24 -75.5t-81 -22.5zM633 1174h-94q-57 0 -81 22.5t-24 75.5v108q0 53 23.5 76t81.5 23h94q57 0 80.5 -22.5t23.5 -76.5v-108 q0 -53 -23.5 -75.5t-80.5 -22.5z" />
<glyph unicode="&#xf0;" horiz-adv-x="1685" d="M1034 0h-389q-305 0 -418.5 102.5t-113.5 370.5v64q0 250 114.5 351t417.5 101h619v250h-783v229h875l133 152h305l-225 -264v-877q0 -268 -115 -373.5t-420 -105.5zM1264 483v267h-609q-139 0 -188 -47.5t-49 -180.5v-35q0 -139 49 -187t188 -48h369q133 0 186.5 50 t53.5 181z" />
<glyph unicode="&#xf1;" horiz-adv-x="1667" d="M1552 0h-305v618q0 137 -50 183.5t-198 46.5h-331q-145 0 -196.5 -46t-51.5 -184v-618h-305v629q0 270 113.5 375.5t418.5 105.5h371q307 0 420.5 -105.5t113.5 -375.5v-629zM1374 1348h-1081v217h1081v-217z" />
<glyph unicode="&#xf2;" horiz-adv-x="1658" d="M1014 0h-371q-305 0 -418.5 105.5t-113.5 373.5v150q0 270 113.5 375.5t418.5 105.5h371q307 0 420.5 -106.5t113.5 -376.5v-148q0 -268 -114.5 -373.5t-419.5 -105.5zM1243 487v131q0 141 -52 185.5t-218 44.5h-289q-164 0 -216 -44t-52 -186v-131q0 -139 53 -184 t215 -45h289q166 0 218 45t52 184zM1016 1255h-254l-324 447h320z" />
<glyph unicode="&#xf3;" horiz-adv-x="1658" d="M1014 0h-371q-305 0 -418.5 105.5t-113.5 373.5v150q0 270 113.5 375.5t418.5 105.5h371q307 0 420.5 -106.5t113.5 -376.5v-148q0 -268 -114.5 -373.5t-419.5 -105.5zM1243 487v131q0 141 -52 185.5t-218 44.5h-289q-164 0 -216 -44t-52 -186v-131q0 -139 53 -184 t215 -45h289q166 0 218 45t52 184zM895 1255h-252l256 447h322z" />
<glyph unicode="&#xf4;" horiz-adv-x="1658" d="M1014 0h-371q-305 0 -418.5 105.5t-113.5 373.5v150q0 270 113.5 375.5t418.5 105.5h371q307 0 420.5 -106.5t113.5 -376.5v-148q0 -268 -114.5 -373.5t-419.5 -105.5zM1243 487v131q0 141 -52 185.5t-218 44.5h-289q-164 0 -216 -44t-52 -186v-131q0 -139 53 -184 t215 -45h289q166 0 218 45t52 184zM1356 1176h-301l-232 311l-227 -311h-295l346 460q63 84 182 84q113 0 179 -84z" />
<glyph unicode="&#xf5;" horiz-adv-x="1658" d="M1014 0h-371q-305 0 -418.5 105.5t-113.5 373.5v150q0 270 113.5 375.5t418.5 105.5h371q307 0 420.5 -106.5t113.5 -376.5v-148q0 -268 -114.5 -373.5t-419.5 -105.5zM1243 487v131q0 141 -52 185.5t-218 44.5h-289q-164 0 -216 -44t-52 -186v-131q0 -139 53 -184 t215 -45h289q166 0 218 45t52 184zM1370 1348h-1081v217h1081v-217z" />
<glyph unicode="&#xf6;" horiz-adv-x="1658" d="M1014 0h-371q-305 0 -418.5 105.5t-113.5 373.5v150q0 270 113.5 375.5t418.5 105.5h371q307 0 420.5 -106.5t113.5 -376.5v-148q0 -268 -114.5 -373.5t-419.5 -105.5zM1243 487v131q0 141 -52 185.5t-218 44.5h-289q-164 0 -216 -44t-52 -186v-131q0 -139 53 -184 t215 -45h289q166 0 218 45t52 184zM614 1174h-94q-63 0 -84.5 25.5t-21.5 88.5v92q0 53 23.5 76t82.5 23h94q57 0 81 -22.5t24 -76.5v-108q0 -53 -24 -75.5t-81 -22.5zM1141 1174h-94q-57 0 -81 22.5t-24 75.5v108q0 53 23.5 76t81.5 23h94q57 0 80.5 -22.5t23.5 -76.5v-108 q0 -53 -23.5 -75.5t-80.5 -22.5z" />
<glyph unicode="&#xf7;" horiz-adv-x="1208" d="M1087 623h-966v200h966v-200zM653 926h-100q-57 0 -80.5 21.5t-23.5 70.5v168q0 49 24.5 70.5t79.5 21.5h100q57 0 82 -21.5t25 -70.5v-168q0 -49 -25 -70.5t-82 -21.5zM653 168h-100q-57 0 -80.5 21.5t-23.5 70.5v168q0 49 24.5 70.5t79.5 21.5h100q57 0 82 -21.5 t25 -70.5v-168q0 -49 -25 -70.5t-82 -21.5z" />
<glyph unicode="&#xf8;" horiz-adv-x="1658" d="M1014 0h-371q-53 0 -78 2l-143 -190h-313l186 245q-100 49 -142 150.5t-42 271.5v150q0 270 113.5 375.5t418.5 105.5h371q14 0 39.5 -1t38.5 -1l143 190h311l-186 -245q102 -49 145 -150.5t43 -275.5v-148q0 -268 -114.5 -373.5t-419.5 -105.5zM1243 487v131 q0 154 -65 195l-420 -555h215q166 0 218 45t52 184zM416 487q0 -145 61 -190l416 551h-209q-164 0 -216 -44t-52 -186v-131z" />
<glyph unicode="&#xf9;" horiz-adv-x="1658" d="M1008 0h-361q-305 0 -418.5 105.5t-113.5 373.5v631h307v-623q0 -137 53 -182t197 -45h319q152 0 201 44t49 183v623h303v-631q0 -268 -114.5 -373.5t-421.5 -105.5zM1016 1255h-254l-324 447h320z" />
<glyph unicode="&#xfa;" horiz-adv-x="1658" d="M1008 0h-361q-305 0 -418.5 105.5t-113.5 373.5v631h307v-623q0 -137 53 -182t197 -45h319q152 0 201 44t49 183v623h303v-631q0 -268 -114.5 -373.5t-421.5 -105.5zM895 1255h-252l256 447h322z" />
<glyph unicode="&#xfb;" horiz-adv-x="1658" d="M1008 0h-361q-305 0 -418.5 105.5t-113.5 373.5v631h307v-623q0 -137 53 -182t197 -45h319q152 0 201 44t49 183v623h303v-631q0 -268 -114.5 -373.5t-421.5 -105.5zM1356 1176h-301l-232 311l-227 -311h-295l346 460q63 84 182 84q113 0 179 -84z" />
<glyph unicode="&#xfc;" horiz-adv-x="1658" d="M1008 0h-361q-305 0 -418.5 105.5t-113.5 373.5v631h307v-623q0 -137 53 -182t197 -45h319q152 0 201 44t49 183v623h303v-631q0 -268 -114.5 -373.5t-421.5 -105.5zM614 1174h-94q-63 0 -84.5 25.5t-21.5 88.5v92q0 53 23.5 76t82.5 23h94q57 0 81 -22.5t24 -76.5v-108 q0 -53 -24 -75.5t-81 -22.5zM1141 1174h-94q-57 0 -81 22.5t-24 75.5v108q0 53 23.5 76t81.5 23h94q57 0 80.5 -22.5t23.5 -76.5v-108q0 -53 -23.5 -75.5t-80.5 -22.5z" />
<glyph unicode="&#xfd;" horiz-adv-x="1695" d="M420 1110v-578q0 -90 40 -126.5t134 -36.5h682v741h297v-1090q0 -186 -93.5 -269t-299.5 -83h-445v250h418q66 0 94.5 25.5t28.5 93.5v90h-701q-246 0 -351 94t-105 299v590h301zM913 1255h-251l256 447h321z" />
<glyph unicode="&#xfe;" horiz-adv-x="1687" d="M1042 0h-610v-332h-311v1800h311v-358h610q307 0 421 -105.5t114 -375.5v-150q0 -268 -115 -373.5t-420 -105.5zM1272 487v131q0 135 -48 182.5t-190 47.5h-602v-590h602q141 0 189.5 46t48.5 183z" />
<glyph unicode="&#xff;" horiz-adv-x="1695" d="M420 1110v-578q0 -90 40 -126.5t134 -36.5h682v741h297v-1090q0 -186 -93.5 -269t-299.5 -83h-445v250h418q66 0 94.5 25.5t28.5 93.5v90h-701q-246 0 -351 94t-105 299v590h301zM633 1174h-94q-63 0 -85 25.5t-22 88.5v92q0 53 23.5 76t83.5 23h94q57 0 80.5 -22.5 t23.5 -76.5v-108q0 -53 -23.5 -75.5t-80.5 -22.5zM1159 1174h-94q-57 0 -80.5 22.5t-23.5 75.5v108q0 53 23.5 76t80.5 23h94q57 0 81 -22.5t24 -76.5v-108q0 -53 -24 -75.5t-81 -22.5z" />
<glyph unicode="&#x152;" horiz-adv-x="2945" d="M1378 492v411q0 131 -50 178t-187 47h-484q-145 0 -191 -46t-46 -179v-411q0 -137 45 -181.5t192 -44.5h484q139 0 188 45.5t49 180.5zM2865 0h-952q-268 0 -379 80q-115 -80 -381 -80h-510q-305 0 -418.5 105.5t-113.5 373.5v439q0 268 113.5 373.5t418.5 105.5h510 q264 0 381 -82q115 82 379 82h330v-264h-330q-129 0 -176 -43t-47 -156v-111h1167v-248h-1167v-114q0 -117 45 -157t178 -40h952v-264z" />
<glyph unicode="&#x153;" horiz-adv-x="2750" d="M2650 442h-1122v-51q0 -98 37 -129t149 -31h346v-231h-346q-233 0 -342 78q-115 -78 -379 -78h-350q-305 0 -418.5 105.5t-113.5 373.5v150q0 270 113.5 375.5t418.5 105.5h350q254 0 371 -76q109 76 365 76h516q223 0 314 -79t91 -224v-365zM1225 487v131 q0 141 -52.5 185.5t-218.5 44.5h-270q-164 0 -216 -44t-52 -186v-131q0 -139 53 -184t215 -45h270q164 0 217.5 45t53.5 184zM2347 639v143q0 53 -27.5 72.5t-99.5 19.5h-487q-123 0 -164 -30.5t-41 -145.5v-59h819z" />
<glyph unicode="&#x178;" horiz-adv-x="1972" d="M1139 0h-312v659l-819 738h420l563 -498l574 498h397l-823 -742v-655zM770 1460h-94q-63 0 -85 25.5t-22 89.5v92q0 53 23.5 75.5t83.5 22.5h94q57 0 80.5 -22.5t23.5 -75.5v-108q0 -53 -23.5 -76t-80.5 -23zM1296 1460h-94q-57 0 -80.5 22.5t-23.5 76.5v108 q0 53 23.5 75.5t80.5 22.5h94q57 0 81 -22.5t24 -75.5v-108q0 -53 -24 -76t-81 -23z" />
<glyph unicode="&#x2c6;" horiz-adv-x="1296" d="M1176 1176h-302l-231 311l-227 -311h-295l346 460q63 84 182 84q113 0 178 -84z" />
<glyph unicode="&#x2dc;" horiz-adv-x="1323" d="M1202 1348h-1081v217h1081v-217z" />
<glyph unicode="&#x3bc;" horiz-adv-x="1699" d="M1042 0h-616v-332h-305v1442h305v-850h608q139 0 189.5 46t50.5 181v623h305v-631q0 -268 -115 -373.5t-422 -105.5z" />
<glyph unicode="&#x2013;" horiz-adv-x="1431" d="M1366 532h-1298v242h1298v-242z" />
<glyph unicode="&#x2014;" horiz-adv-x="1961" d="M1896 532h-1828v242h1828v-242z" />
<glyph unicode="&#x2018;" horiz-adv-x="466" d="M416 971h-215l-117 502h285z" />
<glyph unicode="&#x2019;" horiz-adv-x="466" d="M299 971h-215l47 502h285z" />
<glyph unicode="&#x201a;" horiz-adv-x="466" d="M299 -150h-215l47 500h285z" />
<glyph unicode="&#x201c;" horiz-adv-x="933" d="M416 971h-215l-117 502h285zM883 971h-215l-117 502h285z" />
<glyph unicode="&#x201d;" horiz-adv-x="933" d="M299 971h-215l47 502h285zM766 971h-215l47 502h285z" />
<glyph unicode="&#x201e;" horiz-adv-x="933" d="M299 -150h-215l47 500h285zM766 -150h-215l47 500h285z" />
<glyph unicode="&#x2022;" horiz-adv-x="788" d="M465 389h-139q-94 0 -149.5 51.5t-55.5 141.5v213q0 90 57.5 144t147.5 54h139q203 0 203 -196v-215q0 -90 -55.5 -141.5t-147.5 -51.5z" />
<glyph unicode="&#x2026;" horiz-adv-x="2764" d="M326 0h-101q-57 0 -80.5 21.5t-23.5 70.5v168q0 49 24.5 70.5t79.5 21.5h101q57 0 81.5 -21.5t24.5 -70.5v-168q0 -49 -24.5 -70.5t-81.5 -21.5zM1432 0h-101q-57 0 -80.5 21.5t-23.5 70.5v168q0 49 24.5 70.5t79.5 21.5h101q57 0 81.5 -21.5t24.5 -70.5v-168 q0 -49 -24.5 -70.5t-81.5 -21.5zM2537 0h-100q-57 0 -80.5 21.5t-23.5 70.5v168q0 49 24.5 70.5t79.5 21.5h100q57 0 82 -21.5t25 -70.5v-168q0 -49 -25 -70.5t-82 -21.5z" />
<glyph unicode="&#x2039;" horiz-adv-x="591" d="M125 840l399 301v-277l-268 -196l268 -199v-272l-399 299q-86 66 -86 174q0 104 86 170z" />
<glyph unicode="&#x203a;" horiz-adv-x="591" d="M39 1141l399 -301q86 -66 86 -170q0 -109 -86 -174l-399 -299v272l268 199l-268 196v277z" />
<glyph unicode="&#x20ac;" horiz-adv-x="1699" d="M1270 467h-752q4 -127 48 -168t188 -41h886v-258h-892q-301 0 -416 104.5t-119 362.5h-193l48 174h145v113h-193l48 174h145q4 260 118.5 364.5t416.5 104.5h899l-109 -262h-784q-141 0 -186.5 -42t-47.5 -165h938l-74 -174h-868v-113h825z" />
<glyph unicode="&#x2122;" horiz-adv-x="2547" d="M590 524h-199v699h-325v174h854v-174h-330v-699zM2425 524h-182v561l-420 -542q-31 -39 -90 -39q-57 0 -88 39l-418 542v-561h-183v811q0 39 32 60.5t77 21.5q59 0 94 -43l490 -641l489 639q37 45 90 45q45 0 77 -21.5t32 -60.5v-811z" />
<glyph unicode="&#xe000;" horiz-adv-x="1110" d="M0 1110h1110v-1110h-1110v1110z" />
<glyph unicode="&#xfb01;" horiz-adv-x="1439" d="M426 0h-305v1169q0 164 86 231.5t270 67.5h354v-217h-307q-57 0 -77.5 -19.5t-20.5 -72.5v-49h403v-248h-403v-862zM1319 0h-311v1081h311v-1081zM1212 1174h-100q-55 0 -79.5 22.5t-24.5 71.5v118q0 49 23.5 71t80.5 22h100q57 0 82 -21.5t25 -71.5v-118 q0 -49 -25 -71.5t-82 -22.5z" />
<glyph unicode="&#xfb02;" horiz-adv-x="1439" d="M426 0h-305v1169q0 164 86 231.5t270 67.5h354v-217h-307q-57 0 -77.5 -19.5t-20.5 -72.5v-49h403v-248h-403v-862zM1319 0h-311v1468h311v-1468z" />
<glyph unicode="&#xfb03;" horiz-adv-x="2324" d="M2204 0h-311v1081h311v-1081zM2098 1174h-101q-55 0 -79.5 22.5t-24.5 71.5v118q0 49 23.5 71t80.5 22h101q57 0 81.5 -21.5t24.5 -71.5v-118q0 -49 -24.5 -71.5t-81.5 -22.5zM1312 0h-305v1169q0 164 86 231.5t270 67.5h354v-217h-307q-57 0 -77.5 -19.5t-20.5 -72.5 v-49h403v-248h-403v-862zM426 0h-305v1169q0 164 86 231.5t270 67.5h354v-217h-307q-57 0 -77.5 -19.5t-20.5 -72.5v-49h403v-248h-403v-862z" />
<glyph unicode="&#xfb04;" horiz-adv-x="2324" d="M2204 0h-311v1468h311v-1468zM1312 0h-305v1169q0 164 86 231.5t270 67.5h354v-217h-307q-57 0 -77.5 -19.5t-20.5 -72.5v-49h403v-248h-403v-862zM426 0h-305v1169q0 164 86 231.5t270 67.5h354v-217h-307q-57 0 -77.5 -19.5t-20.5 -72.5v-49h403v-248h-403v-862z" />
</font>
</defs>
</svg>
